<?xml version="1.0" standalone="no"?>
<!DOCTYPE svg PUBLIC "-//W3C//DTD SVG 1.1//EN" "http://www.w3.org/Graphics/SVG/1.1/DTD/svg11.dtd" >
<svg xmlns="http://www.w3.org/2000/svg" xmlns:xlink="http://www.w3.org/1999/xlink" version="1.1">
<metadata>
Created by FontForge 20170731 at Sat May 14 20:38:23 2022
 By Aleksey,,,
Copyright (c) 2011 - 2012 Linotype Corp., www.linotype.com. All rights reserved. This font software may not be reproduced, modified, disclosed or transferred without the express written approval of Linotype Corp. Neue Haas Grotesk is a trademark of Linotype Corp. registered in the U.S. Patent and Trademark Office and may be registered in certain other jurisdictions in the name of Linotype Corp. or its licensee Linotype GmbH. This typeface is original artwork of Christian Schwartz. The design may be protected in certain jurisdictions.
</metadata>
<defs>
<font id="NHaasGroteskDSPro-45Lt" horiz-adv-x="1024" >
  <font-face 
    font-family="NeueHaasGroteskDisp Pro Lt"
    font-weight="400"
    font-stretch="normal"
    units-per-em="2048"
    panose-1="2 11 4 4 2 2 2 2 2 4"
    ascent="1577"
    descent="-471"
    x-height="1059"
    cap-height="1464"
    bbox="-375 -438 2265 1872"
    underline-thickness="40"
    underline-position="-312"
    unicode-range="U+0020-FB04"
  />
<missing-glyph 
 />
    <glyph glyph-name="f_f" unicode="ff" horiz-adv-x="1009" 
d="M186 0v954h-153v105h153v178q0 117 62 172t186 55q62 0 70 -2v-108h-55q-76 0 -107 -29t-31 -92v-174h334v188q0 228 248 228q8 0 38.5 -1t33.5 -1v-109h-56q-75 0 -106 -29.5t-31 -91.5v-184h197v-105h-197v-954h-127v954h-334v-954h-125z" />
    <glyph glyph-name="fi" unicode="fi" horiz-adv-x="882" 
d="M186 0v954h-153v105h153v188q0 228 248 228q8 0 38.5 -1t33.5 -1v-109h-55q-77 0 -108.5 -29.5t-31.5 -91.5v-184h197v-105h-197v-954h-125zM645 0v1059h127v-1059h-127zM645 1284v180h127v-180h-127z" />
    <glyph glyph-name="fl" unicode="fl" horiz-adv-x="886" 
d="M186 0v954h-153v105h153v188q0 228 248 228q8 0 38.5 -1t33.5 -1v-109h-55q-77 0 -108.5 -29.5t-31.5 -91.5v-184h197v-105h-197v-954h-125zM647 0v1464h127v-1464h-127z" />
    <glyph glyph-name="f_f_i" unicode="ffi" horiz-adv-x="1341" 
d="M186 0v954h-153v105h153v178q0 117 62 172t186 55q62 0 70 -2v-108h-55q-76 0 -107 -29t-31 -92v-174h334v188q0 228 248 228q8 0 38.5 -1t33.5 -1v-109h-56q-75 0 -106 -29.5t-31 -91.5v-184h197v-105h-197v-954h-127v954h-334v-954h-125zM1104 0v1059h127v-1059h-127z
M1104 1284v180h127v-180h-127z" />
    <glyph glyph-name="f_f_l" unicode="ffl" horiz-adv-x="1345" 
d="M186 0v954h-153v105h153v178q0 117 62 172t186 55q62 0 70 -2v-108h-55q-76 0 -107 -29t-31 -92v-174h334v188q0 228 248 228q8 0 38.5 -1t33.5 -1v-109h-56q-75 0 -106 -29.5t-31 -91.5v-184h197v-105h-197v-954h-127v954h-334v-954h-125zM1108 0v1464h125v-1464h-125z
" />
    <glyph glyph-name=".notdef" 
 />
    <glyph glyph-name=".null" horiz-adv-x="0" 
 />
    <glyph glyph-name=".null" horiz-adv-x="0" 
 />
    <glyph glyph-name="nonmarkingreturn" horiz-adv-x="682" 
 />
    <glyph glyph-name="space" unicode=" " horiz-adv-x="307" 
 />
    <glyph glyph-name="exclam" unicode="!" horiz-adv-x="434" 
d="M178 354l-31 641v469h140v-469l-29 -641h-80zM139 0v178h156v-178h-156z" />
    <glyph glyph-name="quotedbl" unicode="&#x22;" horiz-adv-x="565" 
d="M88 1026v438h121v-438h-121zM356 1026v438h121v-438h-121z" />
    <glyph glyph-name="numbersign" unicode="#" horiz-adv-x="1150" 
d="M219 0l57 424h-208l16 113h207l49 348h-207l17 112h206l58 408h110l-55 -408h295l57 408h113l-57 -408h206l-16 -112h-207l-49 -348h205l-17 -113h-202l-58 -424h-112l57 424h-295l-59 -424h-111zM403 537h297l48 348h-295z" />
    <glyph glyph-name="dollar" unicode="$" horiz-adv-x="1136" 
d="M526 -174v178q-228 17 -351 144t-132 319h129q9 -155 100.5 -247t253.5 -107v579q-85 18 -145 36.5t-116.5 48t-90.5 67.5t-54 93t-20 126q0 162 117 262.5t309 108.5v116h95v-116q184 -15 289 -115t124 -264h-125q-13 118 -89.5 187t-198.5 81v-526q60 -12 105.5 -23.5
t95 -29t84.5 -37.5t68.5 -49t54 -64.5t32.5 -82.5t12 -103q0 -175 -126 -286.5t-326 -119.5v-176h-95zM526 815v510q-139 -7 -220 -77t-81 -181q0 -106 69 -161t232 -91zM621 111q140 8 230.5 84.5t90.5 203.5q0 121 -71.5 178t-249.5 95v-561z" />
    <glyph glyph-name="percent" unicode="%" horiz-adv-x="1636" 
d="M377 731q87 0 140.5 79t53.5 224q0 142 -54.5 221.5t-139.5 79.5q-88 0 -141.5 -78t-53.5 -223q0 -143 54 -223t141 -80zM377 635q-140 0 -228 107t-88 292t90.5 292.5t225.5 107.5q134 0 222.5 -106.5t88.5 -293.5q0 -185 -86.5 -292t-224.5 -107zM358 0l809 1403h111
l-807 -1403h-113zM1262 70q89 0 141.5 77.5t52.5 223.5q0 142 -54 222.5t-140 80.5t-140.5 -79t-54.5 -224q0 -142 54.5 -221.5t140.5 -79.5zM1262 -29q-138 0 -226 108t-88 292q0 186 90 292.5t224 106.5q136 0 224.5 -105.5t88.5 -293.5q0 -184 -87 -292t-226 -108z" />
    <glyph glyph-name="ampersand" unicode="&#x26;" horiz-adv-x="1181" 
d="M502 -27q-118 0 -216 45.5t-159 135.5t-61 208q0 66 18 123.5t45.5 100.5t74 84.5t90.5 71t107 65.5l-36 47q-65 85 -92 153.5t-27 147.5q0 123 88.5 207t218.5 84q127 0 214 -79.5t87 -219.5q0 -53 -16 -99.5t-40 -81t-64.5 -69t-76.5 -58t-88 -53.5l326 -419
q54 133 57 299h117q0 -222 -94 -402l205 -264h-154l-123 158q-151 -185 -401 -185zM506 868q117 67 169 131t52 152q0 86 -48 136t-126 50t-129 -50.5t-51 -133.5q0 -59 20 -110t68 -115zM508 86q199 0 323 166l-366 471q-62 -37 -103 -68t-82 -75t-61 -98t-20 -120
q0 -124 86 -200t223 -76z" />
    <glyph glyph-name="quotesingle" unicode="'" horiz-adv-x="296" 
d="M88 1026v438h121v-438h-121z" />
    <glyph glyph-name="parenleft" unicode="(" horiz-adv-x="581" 
d="M430 -242q-133 205 -206.5 431t-73.5 497q0 460 280 858h111q-246 -404 -246 -858q0 -265 61.5 -491t184.5 -437h-111z" />
    <glyph glyph-name="parenright" unicode=")" horiz-adv-x="581" 
d="M41 -242q246 417 246 887q0 493 -246 899h111q282 -416 282 -899q0 -477 -282 -887h-111z" />
    <glyph glyph-name="asterisk" unicode="*" horiz-adv-x="737" 
d="M229 907l-71 54l131 186l-205 72l31 79l204 -71v237h97v-237l207 71l30 -79l-204 -72l131 -186l-74 -54l-137 201z" />
    <glyph glyph-name="plus" unicode="+" horiz-adv-x="1085" 
d="M485 215v397h-372v111h372v393h115v-393h373v-111h-373v-397h-115z" />
    <glyph glyph-name="comma" unicode="," horiz-adv-x="327" 
d="M86 -221v74q70 25 70 139v8h-70v178h156v-184q0 -185 -156 -215z" />
    <glyph glyph-name="hyphen" unicode="-" horiz-adv-x="667" 
d="M72 516v115h524v-115h-524z" />
    <glyph glyph-name="period" unicode="." horiz-adv-x="327" 
d="M86 0v178h156v-178h-156z" />
    <glyph glyph-name="slash" unicode="/" horiz-adv-x="780" 
d="M33 0l581 1464h134l-582 -1464h-133z" />
    <glyph glyph-name="zero" unicode="0" horiz-adv-x="1193" 
d="M598 86q188 0 284.5 161t96.5 455q0 288 -99 453.5t-282 165.5q-185 0 -284 -163.5t-99 -455.5q0 -287 99 -451.5t284 -164.5zM596 -29q-246 0 -382 196t-136 535q0 340 140.5 536t379.5 196t378.5 -195t139.5 -537q0 -339 -135.5 -535t-384.5 -196z" />
    <glyph glyph-name="one" unicode="1" horiz-adv-x="669" 
d="M362 0v1055h-294v90q82 4 135.5 16.5t95.5 42t64.5 79.5t31.5 128h101v-1411h-134z" />
    <glyph glyph-name="two" unicode="2" horiz-adv-x="1064" 
d="M66 0q1 85 20 158.5t53 130.5t75 104.5t94.5 88t103.5 73t109 67.5q11 6 16 9q145 88 188 122q103 81 125 187q8 37 8 80q0 140 -82 219.5t-221 79.5q-149 0 -233 -90q-86 -96 -89 -277h-135q0 228 125 353q127 127 340 127q194 0 312 -115.5t118 -292.5q0 -94 -26 -166
t-90 -132.5t-108 -91t-143 -88.5q-27 -16 -40 -24q-45 -26 -71 -42.5t-67 -44.5t-66.5 -49.5t-57 -53.5t-50.5 -62t-35 -68t-22 -79h758v-123h-909z" />
    <glyph glyph-name="three" unicode="3" horiz-adv-x="1083" 
d="M547 -29q-141 0 -253 54.5t-178 161t-67 247.5h133q6 -166 104 -256t259 -90q158 0 247 82t89 225q0 140 -91 217.5t-255 77.5h-99v109h96q143 0 222.5 70t79.5 190q0 124 -81.5 195t-209.5 71q-148 0 -233 -94.5t-85 -241.5h-131q2 198 123 321.5t330 123.5
q181 0 299.5 -102t118.5 -273q0 -222 -211 -305v-6q262 -84 262 -363q0 -190 -129.5 -302t-339.5 -112z" />
    <glyph glyph-name="four" unicode="4" horiz-adv-x="1099" 
d="M705 0v358h-656v123l674 936h111v-948h217v-111h-217v-358h-129zM182 469h523v725h-5l-518 -719v-6z" />
    <glyph glyph-name="five" unicode="5" horiz-adv-x="1048" 
d="M516 -29q-198 0 -328.5 114t-134.5 294h131q18 -136 100 -211.5t230 -75.5q154 0 243 99.5t89 261.5q0 160 -90 254t-234 94q-208 0 -307 -144h-127l125 746h698v-119h-602l-78 -479h5q61 57 134 85t175 28q116 0 213.5 -52t160 -160.5t62.5 -256.5q0 -213 -128 -345.5
t-337 -132.5z" />
    <glyph glyph-name="six" unicode="6" horiz-adv-x="1114" 
d="M592 -29q-194 0 -326 119q-101 91 -144.5 242.5t-43.5 378.5q0 212 58 373t177 255.5t287 94.5q177 0 281.5 -102t122.5 -263h-134q-9 110 -80.5 180t-187.5 70q-199 0 -297 -171t-96 -472h4q132 227 383 227q193 0 318.5 -130t125.5 -327q2 -202 -125 -338.5
t-323 -136.5zM588 82q144 0 233.5 101t89.5 259q0 156 -90 253.5t-233 97.5q-150 0 -247 -99.5t-97 -255.5q0 -159 95.5 -257.5t248.5 -98.5z" />
    <glyph glyph-name="seven" unicode="7" horiz-adv-x="1001" 
d="M262 0q29 362 185.5 713.5t379.5 566.5v4h-780v119h918v-115q-221 -215 -374.5 -553.5t-184.5 -734.5h-144z" />
    <glyph glyph-name="eight" unicode="8" horiz-adv-x="1120" 
d="M563 -29q-98 0 -186.5 27t-158.5 78t-111 133t-41 184q0 141 74.5 233t201.5 136v6q-98 39 -153.5 118.5t-55.5 186.5q0 158 121.5 259.5t304.5 101.5q189 0 307.5 -102t118.5 -259q0 -107 -56 -185.5t-155 -117.5v-6q122 -38 200.5 -137.5t78.5 -233.5
q0 -103 -40 -185.5t-108.5 -133t-155.5 -77t-186 -26.5zM563 84q163 0 260 86t97 223q0 140 -97.5 227t-265.5 87q-166 0 -260 -86.5t-94 -227.5q0 -139 95.5 -224t264.5 -85zM557 815q135 0 216 72t81 180q0 112 -79.5 184t-215.5 72t-215.5 -72t-79.5 -184q0 -110 78 -181
t215 -71z" />
    <glyph glyph-name="nine" unicode="9" horiz-adv-x="1112" 
d="M524 -29q-184 0 -300.5 102t-127.5 271h135q9 -118 86.5 -188t202.5 -70q156 0 242 92q142 145 145 543h-4q-60 -105 -159 -162t-224 -57q-193 0 -319.5 129.5t-126.5 326.5q-2 201 128.5 338.5t329.5 137.5q183 0 314 -111q104 -86 147 -238.5t43 -390.5
q0 -419 -184 -600q-126 -123 -328 -123zM530 612q152 0 248 99t96 254q0 160 -94.5 259t-244.5 99q-147 0 -239.5 -101t-92.5 -259q0 -157 90.5 -254t236.5 -97z" />
    <glyph glyph-name="colon" unicode=":" horiz-adv-x="344" 
d="M94 0v178h156v-178h-156zM94 629v178h156v-178h-156z" />
    <glyph glyph-name="semicolon" unicode=";" horiz-adv-x="344" 
d="M94 -221v74q70 25 70 139v8h-70v178h156v-184q0 -185 -156 -215zM94 629v178h156v-178h-156z" />
    <glyph glyph-name="less" unicode="&#x3c;" horiz-adv-x="1021" 
d="M911 223l-809 346v138l809 346v-121l-702 -291v-4l702 -293v-121z" />
    <glyph glyph-name="equal" unicode="=" horiz-adv-x="1085" 
d="M113 418v108h860v-108h-860zM113 745v109h860v-109h-860z" />
    <glyph glyph-name="greater" unicode="&#x3e;" horiz-adv-x="1021" 
d="M111 223v121l702 291v4l-702 293v121l809 -346v-138z" />
    <glyph glyph-name="question" unicode="?" horiz-adv-x="1017" 
d="M408 354q0 116 21.5 194.5t63.5 135.5t123 125q85 72 114 108q69 85 69 197q0 118 -77.5 190t-205.5 72q-154 0 -240.5 -95t-89.5 -249h-131q2 92 30 172.5t83 145.5t146 103t208 38q188 0 301 -106.5t113 -268.5q0 -42 -7.5 -80.5t-16 -66t-29 -59t-32.5 -48.5t-42 -45
t-41 -38t-45 -38q-82 -68 -119 -112.5t-55.5 -108t-18.5 -166.5h-122zM391 0v178h154v-178h-154z" />
    <glyph glyph-name="at" unicode="@" horiz-adv-x="1781" 
d="M889 -209q-183 0 -334.5 57.5t-256.5 161.5t-162.5 253.5t-57.5 328.5q0 161 47.5 301t129.5 242.5t190 176t232 110t253 36.5q151 0 289 -49.5t246.5 -141t173.5 -236.5t65 -322q0 -234 -97 -379.5t-268 -145.5q-92 0 -147 45t-70 111h-4q-42 -77 -124 -125.5
t-177 -48.5q-156 0 -247 106.5t-91 280.5q0 233 116.5 375.5t293.5 142.5q94 0 161 -43t101 -115h6l21 140h114l-69 -574q-12 -91 18 -142.5t102 -51.5q114 0 181 111t67 309q0 159 -51 284t-141.5 204t-210.5 120t-262 41q-147 0 -279.5 -53t-233.5 -149t-160.5 -241.5
t-59.5 -318.5q0 -208 78.5 -364t236.5 -245t379 -89q193 0 391 77l37 -92q-203 -88 -426 -88zM823 266q101 0 170.5 58.5t100 151t30.5 212.5q0 132 -57.5 207.5t-175.5 75.5q-90 0 -155.5 -56.5t-97.5 -149.5t-32 -210q0 -131 53.5 -210t163.5 -79z" />
    <glyph glyph-name="A" unicode="A" horiz-adv-x="1298" 
d="M16 0l553 1464h156l557 -1464h-147l-170 461h-637l-172 -461h-140zM369 573h555l-201 547l-74 213h-4q-39 -125 -72 -213z" />
    <glyph glyph-name="B" unicode="B" horiz-adv-x="1275" 
d="M131 0v1464h608q200 0 312 -106q106 -95 106 -262q0 -241 -223 -318v-6q132 -37 208.5 -128t76.5 -232q0 -177 -107 -287q-122 -125 -346 -125h-635zM268 125h490q161 0 248 84q73 73 73 201q0 138 -87 215t-234 77h-490v-577zM268 821h469q132 0 206.5 71.5t74.5 192.5
q0 123 -74 190.5t-203 67.5h-473v-522z" />
    <glyph glyph-name="C" unicode="C" horiz-adv-x="1386" 
d="M733 -27q-201 0 -351 96t-229 267t-79 395q0 221 79 393.5t231 271.5t355 99q229 0 378 -119t186 -325h-136q-30 147 -142.5 236t-287.5 89q-126 0 -226 -50t-163.5 -138t-97 -204.5t-33.5 -252.5q0 -185 58.5 -327.5t177 -226t282.5 -83.5q103 0 187 34t140.5 94.5
t89.5 139t42 170.5h133q-6 -108 -45.5 -209.5t-105.5 -172.5q-157 -177 -443 -177z" />
    <glyph glyph-name="D" unicode="D" horiz-adv-x="1351" 
d="M268 121h365q255 0 378.5 159t123.5 447q0 292 -118 454t-370 162h-379v-1222zM131 0v1464h520q127 0 230.5 -35t177 -99.5t123 -156t73 -203t23.5 -243.5q0 -220 -69 -381.5t-215 -253.5t-357 -92h-506z" />
    <glyph glyph-name="E" unicode="E" horiz-adv-x="1224" 
d="M131 0v1464h995v-121h-858v-526h787v-119h-787v-571h881v-127h-1018z" />
    <glyph glyph-name="F" unicode="F" horiz-adv-x="1138" 
d="M131 0v1464h954v-121h-817v-520h697v-118h-697v-705h-137z" />
    <glyph glyph-name="G" unicode="G" horiz-adv-x="1478" 
d="M745 -29q-209 0 -362.5 99t-231 270t-77.5 391q0 163 46.5 301.5t132.5 241.5t218 161t295 58q230 0 384 -117t193 -336h-141q-33 161 -149 247.5t-287 86.5q-110 0 -201.5 -33t-155 -91.5t-107.5 -139.5t-64.5 -176t-20.5 -203q0 -183 59 -325.5t181 -228t291 -85.5
q122 0 217 40t152 109t85.5 155t28.5 184v51h-471v121h606v-752h-96l-29 233h-6q-167 -262 -490 -262z" />
    <glyph glyph-name="H" unicode="H" horiz-adv-x="1366" 
d="M131 0v1464h137v-633h830v633h137v-1464h-137v717h-830v-717h-137z" />
    <glyph glyph-name="I" unicode="I" horiz-adv-x="413" 
d="M137 0v1464h137v-1464h-137z" />
    <glyph glyph-name="J" unicode="J" horiz-adv-x="972" 
d="M459 -27q-199 0 -306.5 107.5t-107.5 327.5v55h135v-49q0 -175 69.5 -249.5t213.5 -74.5q252 0 252 270v1104h137v-1114q0 -169 -100.5 -273t-292.5 -104z" />
    <glyph glyph-name="K" unicode="K" horiz-adv-x="1280" 
d="M131 0v1464h137v-780l791 780h178l-612 -596l649 -868h-164l-580 774l-262 -258v-516h-137z" />
    <glyph glyph-name="L" unicode="L" horiz-adv-x="1097" 
d="M131 0v1464h137v-1337h781v-127h-918z" />
    <glyph glyph-name="M" unicode="M" horiz-adv-x="1644" 
d="M131 0v1464h186l506 -1278h4l494 1278h192v-1464h-133v1276h-4q-38 -117 -69 -199l-424 -1077h-121l-428 1077q-14 34 -32 83.5t-29 82.5l-11 33h-4v-1276h-127z" />
    <glyph glyph-name="N" unicode="N" horiz-adv-x="1366" 
d="M131 0v1464h150l673 -1028q33 -49 69.5 -109.5t56.5 -96.5l20 -35h4v1269h131v-1464h-143l-672 1016q-30 45 -68.5 107t-61.5 101l-24 40h-4v-1264h-131z" />
    <glyph glyph-name="O" unicode="O" horiz-adv-x="1511" 
d="M754 94q129 0 232.5 50t170 137t102 202.5t35.5 249.5t-35.5 249.5t-102 202.5t-170 137t-232.5 50q-128 0 -231 -50t-169.5 -137t-101.5 -202.5t-35 -249.5t35 -249.5t101.5 -202.5t169.5 -137t231 -50zM754 -29q-152 0 -280 58t-215.5 159.5t-136 242t-48.5 302.5
t48.5 302.5t136 242t215.5 159.5t280 58q204 0 360.5 -99.5t240 -272.5t83.5 -390t-83.5 -390t-240 -272.5t-360.5 -99.5z" />
    <glyph glyph-name="P" unicode="P" horiz-adv-x="1200" 
d="M131 0v1464h576q223 0 344 -127q102 -108 102 -282q0 -204 -118 -311t-347 -107h-420v-637h-137zM268 754h410q336 0 336 297q0 141 -83 216.5t-241 75.5h-422v-589z" />
    <glyph glyph-name="Q" unicode="Q" horiz-adv-x="1511" 
d="M754 94q146 0 258 64l-158 131l74 92l184 -150q90 85 136 215t46 287q0 134 -35.5 249.5t-102 202.5t-170 137t-232.5 50q-128 0 -231 -50t-169.5 -137t-101.5 -202.5t-35 -249.5t35 -249.5t101.5 -202.5t169.5 -137t231 -50zM1329 -100l-213 174q-156 -103 -362 -103
q-152 0 -280 58t-215.5 159.5t-136 242t-48.5 302.5t48.5 302.5t136 242t215.5 159.5t280 58q204 0 360.5 -99.5t240 -272.5t83.5 -390q0 -180 -59 -329.5t-167 -253.5l193 -156z" />
    <glyph glyph-name="R" unicode="R" horiz-adv-x="1292" 
d="M131 0v1464h653q197 0 306.5 -105.5t109.5 -289.5q0 -274 -246 -352v-6q111 -37 157 -125.5t54 -263.5q12 -279 64 -314v-8h-148q-25 17 -34.5 78t-18.5 250q-9 186 -79 255.5t-234 69.5h-447v-653h-137zM268 770h469q158 0 240 74.5t82 212.5q0 142 -71 214t-232 72
h-488v-573z" />
    <glyph glyph-name="S" unicode="S" horiz-adv-x="1226" 
d="M639 -27q-141 0 -252 38t-183 106.5t-111.5 158.5t-45.5 199h137q10 -185 130.5 -286t326.5 -101q166 0 270.5 81t104.5 226q0 44 -9 79.5t-25 63.5t-45.5 50.5t-62 39.5t-83.5 32.5t-102 27.5t-124 27q-88 17 -152.5 36.5t-125.5 50.5t-99 71t-61 99t-23 134
q0 174 135 280.5t355 106.5q236 0 365.5 -115t150.5 -313h-133q-18 152 -119.5 232.5t-261.5 80.5q-166 0 -262 -73t-96 -195q0 -52 17 -91t46.5 -67t81.5 -50t109.5 -37t142.5 -31q69 -13 119 -25t108 -31t98 -41t79.5 -54t63 -71.5t38 -93t14.5 -117.5q0 -194 -142.5 -311
t-373.5 -117z" />
    <glyph glyph-name="T" unicode="T" horiz-adv-x="1204" 
d="M535 0v1341h-496v123h1126v-123h-493v-1341h-137z" />
    <glyph glyph-name="U" unicode="U" horiz-adv-x="1302" 
d="M647 -23q-248 0 -390 122t-142 366v999h137v-987q0 -198 102 -289.5t299 -91.5q191 0 295.5 92.5t104.5 288.5v987h137v-999q0 -125 -40 -219.5t-113 -152.5t-171 -87t-219 -29z" />
    <glyph glyph-name="V" unicode="V" horiz-adv-x="1236" 
d="M541 0l-525 1464h144l379 -1081q15 -40 34 -100.5t31 -100.5l12 -41h5q46 158 79 248l381 1075h140l-531 -1464h-149z" />
    <glyph glyph-name="W" unicode="W" horiz-adv-x="1802" 
d="M414 0l-389 1464h141l254 -987q13 -48 29.5 -120.5t26.5 -120.5l11 -48h5q40 177 69 281l268 995h148l268 -993l68 -283h4q40 180 67 289l256 987h138l-398 -1464h-139l-278 1067q-12 41 -26.5 100.5t-22.5 98.5l-9 39h-4q-30 -144 -55 -238l-287 -1067h-145z" />
    <glyph glyph-name="X" unicode="X" horiz-adv-x="1208" 
d="M25 0l503 748l-475 716h158l399 -618h4l396 618h151l-473 -719l496 -745h-162l-416 647h-4l-422 -647h-155z" />
    <glyph glyph-name="Y" unicode="Y" horiz-adv-x="1228" 
d="M543 0v639l-529 825h152l446 -708h4l451 708h147l-532 -829v-635h-139z" />
    <glyph glyph-name="Z" unicode="Z" horiz-adv-x="1214" 
d="M53 0v133l895 1208v7h-839v116h1005v-116l-901 -1219v-6h934v-123h-1094z" />
    <glyph glyph-name="bracketleft" unicode="[" horiz-adv-x="589" 
d="M164 -242v1786h358v-108h-227v-1565h227v-113h-358z" />
    <glyph glyph-name="backslash" unicode="\" horiz-adv-x="780" 
d="M614 0l-581 1464h133l582 -1464h-134z" />
    <glyph glyph-name="bracketright" unicode="]" horiz-adv-x="589" 
d="M68 -242v113h227v1565h-227v108h358v-1786h-358z" />
    <glyph glyph-name="asciicircum" unicode="^" horiz-adv-x="839" 
d="M25 913l321 551h148l321 -551h-135l-258 451h-4l-260 -451h-133z" />
    <glyph glyph-name="underscore" unicode="_" horiz-adv-x="786" 
d="M-4 -340v100h795v-100h-795z" />
    <glyph glyph-name="grave" unicode="`" 
d="M485 1212l-192 261h168l135 -261h-111z" />
    <glyph glyph-name="a" unicode="a" horiz-adv-x="1021" 
d="M393 -25q-154 0 -250 76t-96 219q0 73 23.5 128.5t60 89t96.5 57.5t117 35.5t139 21.5q62 7 94.5 12t71.5 12.5t56 16.5t34.5 23.5t23 33t5.5 45.5v21q0 106 -65 159.5t-189 53.5q-282 0 -297 -236h-125q11 159 117 248.5t305 89.5q375 0 375 -327v-576q0 -89 69 -92
q12 0 48 8h6v-92q-36 -16 -86 -16q-147 0 -156 149v23h-6q-129 -183 -371 -183zM416 78q83 0 152 27t112 71t66.5 98t23.5 109v190q-77 -42 -274 -69q-53 -8 -86 -14t-74.5 -17t-65.5 -27t-47 -39.5t-33 -58t-10 -78.5q0 -70 34 -114.5t84.5 -61t117.5 -16.5z" />
    <glyph glyph-name="b" unicode="b" horiz-adv-x="1085" 
d="M588 -29q-119 0 -203 46.5t-147 142.5h-5v-160h-127v1464h127v-587h5q123 204 358 204q195 0 315.5 -148t120.5 -407q0 -249 -119 -402t-325 -153zM582 78q105 0 179 60.5t108 159.5t34 226q0 204 -84.5 327.5t-238.5 123.5q-113 0 -195 -61t-122 -161.5t-40 -228.5
q0 -203 93 -324.5t266 -121.5z" />
    <glyph glyph-name="c" unicode="c" horiz-adv-x="1005" 
d="M532 -27q-225 0 -353 155.5t-128 399.5q0 159 56 283.5t167 198t261 73.5q175 0 287.5 -90.5t138.5 -253.5h-127q-47 238 -299 238q-118 0 -199 -62t-117.5 -161t-36.5 -226t36.5 -225.5t117 -159.5t196.5 -61q133 0 216 76.5t98 206.5h121q-19 -182 -133.5 -287
t-301.5 -105z" />
    <glyph glyph-name="d" unicode="d" horiz-adv-x="1089" 
d="M508 -29q-211 0 -334 153.5t-123 401.5q0 257 129 406t324 149q119 0 207.5 -52t140.5 -146h4v581h127v-1464h-127v158h-4q-60 -93 -143.5 -140t-200.5 -47zM512 78q169 0 261.5 121.5t92.5 324.5q0 201 -93.5 326t-260.5 125q-154 0 -242 -124.5t-88 -326.5
q0 -196 85 -321t245 -125z" />
    <glyph glyph-name="e" unicode="e" horiz-adv-x="1040" 
d="M545 -27q-155 0 -268 73t-169.5 197.5t-56.5 284.5q0 158 59 284t170 198.5t255 72.5q99 0 177.5 -32t130 -85.5t85 -128.5t48 -157t13.5 -174h-807q2 -91 25.5 -167t67 -134t113 -90.5t157.5 -32.5q241 0 309 237h123q-35 -161 -146 -253.5t-286 -92.5zM184 606h672
q-5 167 -85.5 270t-235.5 103q-154 0 -243.5 -103t-107.5 -270z" />
    <glyph glyph-name="f" unicode="f" horiz-adv-x="550" 
d="M186 0v954h-153v105h153v188q0 228 248 228q8 0 38.5 -1t33.5 -1v-109h-55q-77 0 -108.5 -29.5t-31.5 -91.5v-184h197v-105h-197v-954h-125z" />
    <glyph glyph-name="g" unicode="g" horiz-adv-x="1079" 
d="M520 -371q-189 0 -299.5 77t-124.5 200h123q16 -88 95.5 -130t201.5 -42q165 0 248.5 80t83.5 223v168h-6q-61 -93 -140.5 -139t-195.5 -46q-207 0 -331 146.5t-124 382.5q0 125 36.5 227.5t99 168t144.5 101t175 35.5q223 0 336 -186h6v164h125v-1018q0 -175 -99 -285
q-121 -127 -354 -127zM512 127q172 0 258 113t86 311q0 194 -87 309t-255 115q-155 0 -243.5 -116t-88.5 -312q0 -189 84.5 -304.5t245.5 -115.5z" />
    <glyph glyph-name="h" unicode="h" horiz-adv-x="1034" 
d="M113 0v1464h127v-567h4q125 184 354 184q152 0 245 -86.5t93 -242.5v-752h-127v739q0 117 -63.5 175.5t-178.5 58.5q-137 0 -232 -86t-95 -215v-672h-127z" />
    <glyph glyph-name="i" unicode="i" horiz-adv-x="346" 
d="M111 0v1059h127v-1059h-127zM111 1284v180h127v-180h-127z" />
    <glyph glyph-name="j" unicode="j" horiz-adv-x="346" 
d="M-41 -322v107h2q8 -2 35 -2q59 0 87 28.5t28 92.5v1155h127v-1161q0 -122 -57.5 -172t-168.5 -50q-43 0 -53 2zM111 1284v180h127v-180h-127z" />
    <glyph glyph-name="k" unicode="k" horiz-adv-x="974" 
d="M106 0v1464h127v-915l527 510h162l-406 -383l455 -676h-148l-395 594l-195 -186v-408h-127z" />
    <glyph glyph-name="l" unicode="l" horiz-adv-x="352" 
d="M113 0v1464h127v-1464h-127z" />
    <glyph glyph-name="m" unicode="m" horiz-adv-x="1605" 
d="M106 0v1059h127v-160h5q117 182 321 182q100 0 176 -49.5t107 -142.5h4q53 92 141 142t199 50q140 0 229.5 -87t89.5 -242v-752h-125v741q0 114 -61 173t-162 59q-121 0 -204 -81t-83 -218v-674h-127v741q0 114 -58.5 173t-154.5 59q-117 0 -207 -86.5t-90 -212.5v-674
h-127z" />
    <glyph glyph-name="n" unicode="n" horiz-adv-x="1028" 
d="M106 0v1059h127v-162h5q125 184 354 184q152 0 245 -86.5t93 -242.5v-752h-127v739q0 117 -63.5 175.5t-178.5 58.5q-137 0 -232.5 -86t-95.5 -215v-672h-127z" />
    <glyph glyph-name="o" unicode="o" horiz-adv-x="1083" 
d="M543 80q170 0 264 126.5t94 321.5t-94 322t-264 127q-115 0 -198.5 -61t-123 -161.5t-39.5 -226.5t39.5 -226t123 -161t198.5 -61zM543 -27q-149 0 -262 73t-171.5 198.5t-58.5 283.5t58.5 283.5t171.5 198.5t262 73t260.5 -73.5t169 -198.5t57.5 -283t-57.5 -283
t-169 -198.5t-260.5 -73.5z" />
    <glyph glyph-name="p" unicode="p" horiz-adv-x="1085" 
d="M106 -340v1399h127v-182h5q121 204 358 204q195 0 316.5 -147.5t121.5 -405.5q0 -248 -120 -401.5t-326 -153.5q-226 0 -350 181h-5v-494h-127zM582 80q105 0 179.5 61t109 160t34.5 225q0 203 -85 326t-240 123q-113 0 -195 -61t-122 -161.5t-40 -228.5
q0 -202 91.5 -323t267.5 -121z" />
    <glyph glyph-name="q" unicode="q" horiz-adv-x="1089" 
d="M856 -340v498h-4q-124 -185 -346 -185q-210 0 -330.5 152t-120.5 401q0 256 128.5 405.5t322.5 149.5q229 0 346 -190h4v168h127v-1399h-127zM512 80q171 0 262.5 120.5t91.5 323.5q0 202 -91.5 326.5t-260.5 124.5q-155 0 -242.5 -124.5t-87.5 -326.5q0 -95 20 -174.5
t59.5 -140.5t103 -95t145.5 -34z" />
    <glyph glyph-name="r" unicode="r" horiz-adv-x="630" 
d="M106 0v1059h127v-197h5q51 96 133.5 150.5t189.5 54.5q19 0 35 -4v-125q-126 20 -225 -51q-64 -48 -101 -121t-37 -164v-602h-127z" />
    <glyph glyph-name="s" unicode="s" horiz-adv-x="923" 
d="M477 -29q-204 0 -316.5 99t-121.5 260h129q13 -128 95 -189t216 -61q129 0 199 55.5t70 149.5q0 86 -58 126t-225 78q-63 14 -104.5 25.5t-90.5 29.5t-80 39.5t-58.5 51.5t-40.5 70t-13 90q0 131 102 208.5t266 77.5q181 0 277.5 -83t116.5 -230h-127q-10 102 -79 155.5
t-188 53.5q-118 0 -179.5 -49t-61.5 -127q0 -36 13.5 -63t33.5 -45t63 -34.5t82.5 -27t110.5 -27.5q60 -13 101.5 -24.5t87 -29t75 -40t54.5 -53.5t36.5 -73.5t11.5 -96.5q0 -142 -107 -229t-290 -87z" />
    <glyph glyph-name="t" unicode="t" horiz-adv-x="577" 
d="M397 -8q-95 0 -148.5 46.5t-53.5 143.5v772h-160v105h160v325h127v-325h196v-105h-196v-751q0 -55 24.5 -78t77.5 -23q46 0 84 17h6v-109q-52 -18 -117 -18z" />
    <glyph glyph-name="u" unicode="u" horiz-adv-x="1013" 
d="M446 -25q-157 0 -252.5 89.5t-95.5 246.5v748h127v-740q0 -117 66 -177t184 -60q134 0 220.5 89.5t86.5 225.5v662h125v-1059h-125v156h-4q-63 -87 -139.5 -134t-192.5 -47z" />
    <glyph glyph-name="v" unicode="v" horiz-adv-x="933" 
d="M387 0l-375 1059h135l228 -672l86 -268h4q53 166 88 268l238 672h129l-383 -1059h-150z" />
    <glyph glyph-name="w" unicode="w" horiz-adv-x="1456" 
d="M336 0l-316 1059h134l184 -656q13 -46 30 -115t28 -115l10 -46h4q40 170 67 266l180 666h138l174 -666l63 -266h4q43 174 74 276l197 656h129l-334 -1059h-139l-183 676q-12 44 -26 104t-22 98l-7 37h-4q-28 -139 -55 -239l-187 -676h-143z" />
    <glyph glyph-name="x" unicode="x" horiz-adv-x="985" 
d="M16 0l398 559l-355 500h148l276 -408h4l277 408h143l-344 -490l406 -569h-150l-330 477h-4l-325 -477h-144z" />
    <glyph glyph-name="y" unicode="y" horiz-adv-x="960" 
d="M217 -350q-55 0 -108 16v113h6q45 -15 96 -15q63 0 105.5 32.5t70.5 111.5l35 94l-408 1057h136l253 -684l84 -242h5q44 144 79 242l244 684h131l-436 -1170q-52 -137 -118.5 -188t-174.5 -51z" />
    <glyph glyph-name="z" unicode="z" horiz-adv-x="915" 
d="M57 0v109l619 833v6h-578v111h748v-90l-631 -850v-6h649v-113h-807z" />
    <glyph glyph-name="braceleft" unicode="{" horiz-adv-x="589" 
d="M467 -242q-137 0 -207 68t-70 217v418q0 72 -31 106t-110 37v111q77 1 109 35.5t32 105.5v406q0 149 69.5 215.5t207.5 66.5h37v-108h-33q-81 0 -115 -39t-34 -137v-412q0 -80 -27.5 -124.5t-87.5 -61.5v-5q60 -19 87.5 -63t27.5 -123v-426q0 -98 34 -136t115 -38h33
v-113h-37z" />
    <glyph glyph-name="bar" unicode="|" horiz-adv-x="430" 
d="M158 -242v1786h114v-1786h-114z" />
    <glyph glyph-name="braceright" unicode="}" horiz-adv-x="589" 
d="M86 -242v113h33q80 0 114.5 37.5t34.5 134.5v426q0 78 27.5 122.5t87.5 61.5v6q-60 17 -87.5 62t-27.5 123v413q0 98 -35 138.5t-114 40.5h-33v108h37q137 0 206.5 -67.5t69.5 -216.5v-406q0 -72 31 -106t111 -35v-113q-79 -1 -110.5 -35t-31.5 -106v-418
q0 -150 -69 -216.5t-207 -66.5h-37z" />
    <glyph glyph-name="asciitilde" unicode="~" horiz-adv-x="788" 
d="M532 575q-59 0 -145 48q-11 6 -31 16.5t-29.5 15t-23.5 10.5t-24.5 8.5t-20.5 2.5q-31 0 -51 -25.5t-23 -72.5h-108q6 103 55 160t125 57q64 0 158 -58q32 -18 45 -25t30.5 -12.5t34.5 -5.5q33 0 55 25.5t23 71.5h109q-5 -100 -52.5 -158t-126.5 -58z" />
    <glyph glyph-name="uni00A0" unicode="&#xa0;" horiz-adv-x="307" 
 />
    <glyph glyph-name="exclamdown" unicode="&#xa1;" horiz-adv-x="434" 
d="M147 -260v469l31 641h80l29 -641v-469h-140zM139 1026v178h156v-178h-156z" />
    <glyph glyph-name="cent" unicode="&#xa2;" horiz-adv-x="1013" 
d="M483 -174v149q-202 20 -316 172.5t-114 380.5q0 227 114 379t316 172v131h95v-129q157 -11 258.5 -100.5t124.5 -241.5h-125q-44 215 -258 234v-889q114 12 185 87.5t83 193.5h123q-19 -171 -121 -275.5t-270 -114.5v-149h-95zM483 84v889q-100 -13 -169 -77
t-100.5 -157.5t-31.5 -210.5t31.5 -210t100.5 -157t169 -77z" />
    <glyph glyph-name="sterling" unicode="&#xa3;" horiz-adv-x="1095" 
d="M758 -23q-62 0 -118 16t-91 35.5t-86 35.5t-105 16q-38 0 -80 -15t-68.5 -31t-64.5 -42l-75 108q103 74 157 159.5t54 205.5q0 69 -33 166h-170v104h135q-72 179 -72 299q0 169 117 283.5t324 114.5q188 0 310.5 -117t125.5 -330h-127q-1 88 -27 154t-70.5 105t-99.5 58
t-119 19q-143 0 -222 -78t-79 -211q0 -28 4 -56.5t13.5 -63.5t15.5 -54t22.5 -64.5t20.5 -58.5h328v-104h-295q20 -94 20 -146q0 -207 -153 -335l2 -5q78 37 151 37q62 0 125 -22t123 -44t113 -22q103 0 213 99l74 -93q-68 -61 -135 -92t-158 -31z" />
    <glyph glyph-name="currency" unicode="&#xa4;" horiz-adv-x="995" 
d="M106 229l-71 72l145 154q-76 112 -76 262q0 147 76 256l-145 155l71 70l142 -149q104 84 250 84q143 0 247 -84l144 149l72 -70l-146 -153q74 -109 74 -258q0 -150 -76 -262l148 -154l-72 -72l-146 152q-101 -82 -245 -82q-147 0 -248 82zM498 401q126 0 196 89t70 227
q0 136 -70 225.5t-196 89.5t-197.5 -89.5t-71.5 -225.5q0 -137 71.5 -226.5t197.5 -89.5z" />
    <glyph glyph-name="yen" unicode="&#xa5;" horiz-adv-x="1112" 
d="M492 0v330h-371v94h371v149h-371v95h346l-444 737h149l383 -668h4l389 668h142l-445 -737h346v-95h-370v-149h370v-94h-370v-330h-129z" />
    <glyph glyph-name="brokenbar" unicode="&#xa6;" horiz-adv-x="430" 
d="M158 -242v842h114v-842h-114zM158 735v809h114v-809h-114z" />
    <glyph glyph-name="section" unicode="&#xa7;" horiz-adv-x="1150" 
d="M594 -377q-195 0 -310 112.5t-120 276.5h133q8 -128 85.5 -200t213.5 -72q107 0 163 46t56 130q0 40 -15.5 71t-52.5 62t-85 61t-125 75q-37 21 -56 32q-66 38 -104 60.5t-90 56t-80.5 57.5t-61.5 57t-49.5 64t-27.5 68.5t-11 78.5q0 206 230 279q-78 84 -78 190
q0 136 99 221t263 85q176 0 278.5 -98t113.5 -261h-134q-7 116 -75.5 179t-186.5 63q-109 0 -166 -50.5t-57 -131.5q0 -36 13.5 -66.5t35.5 -55.5t62.5 -52.5t82 -51.5t107.5 -60q11 -6 17 -9q63 -33 100.5 -54t89.5 -52.5t82 -56t64.5 -58t52.5 -66t30.5 -72.5t12.5 -84
q0 -105 -60.5 -177t-171.5 -105q88 -91 88 -197q0 -133 -95 -214t-261 -81zM782 182q95 26 138 83t43 128q0 23 -5.5 44t-12 38t-24 37t-29.5 33t-42 34t-47 32.5t-59.5 35.5t-64.5 36.5t-75 41.5q-179 99 -235 141q-88 -20 -134.5 -71t-46.5 -125q0 -29 7.5 -54.5t17.5 -46
t35 -44.5t46 -41.5t65.5 -45.5t77.5 -47.5t98 -56.5q176 -100 247 -152z" />
    <glyph glyph-name="dieresis" unicode="&#xa8;" horiz-adv-x="1048" 
d="M303 1284v176h123v-176h-123zM623 1284v176h122v-176h-122z" />
    <glyph glyph-name="copyright" unicode="&#xa9;" horiz-adv-x="1662" 
d="M836 254q-188 0 -305 132.5t-117 340.5q0 211 115 346t311 135q150 0 245 -79.5t117 -210.5h-125q-15 85 -77 134.5t-160 49.5q-144 0 -221.5 -105t-77.5 -270q0 -163 79 -266t216 -103q112 0 178.5 65t77.5 169h120q-7 -141 -98 -232q-101 -106 -278 -106zM831 37
q187 0 338 89t236.5 247t85.5 354t-85.5 354.5t-236.5 248t-338 89.5q-140 0 -262.5 -52.5t-209.5 -144t-137 -220t-50 -275.5t50 -275t137 -219t209.5 -143.5t262.5 -52.5zM831 -35q-155 0 -293.5 58t-238 158.5t-157.5 242.5t-58 303t58 303.5t157.5 243t238 159
t293.5 58.5q208 0 379 -99t270 -274.5t99 -390.5t-99 -390t-270 -273.5t-379 -98.5z" />
    <glyph glyph-name="ordfeminine" unicode="&#xaa;" horiz-adv-x="962" 
d="M391 467q-135 0 -224 70t-89 194q0 63 20.5 111t53.5 77.5t86 50t105 30.5t124 18q141 13 190.5 36t49.5 89v14q0 89 -54 134.5t-157 45.5q-230 0 -252 -202h-119q12 137 107 218t262 81q157 0 244 -71t87 -220v-484q0 -86 66 -86q11 0 43 9h6v-90q-40 -15 -82 -15
q-140 0 -149 139v9h-4q-51 -71 -123.5 -114.5t-190.5 -43.5zM412 565q141 0 219 79t78 181v156q-72 -38 -234 -57q-55 -6 -90.5 -12.5t-73 -20t-58 -33t-33.5 -51.5t-13 -76q0 -87 58 -126.5t147 -39.5z" />
    <glyph glyph-name="guillemotleft" unicode="&#xab;" horiz-adv-x="841" 
d="M379 248l-264 231v154l264 231v-141l-191 -166v-4l191 -164v-141zM727 248l-264 231v154l264 231v-141l-190 -166v-4l190 -164v-141z" />
    <glyph glyph-name="logicalnot" unicode="&#xac;" horiz-adv-x="1085" 
d="M809 285v389h-688v108h803v-497h-115z" />
    <glyph glyph-name="uni00AD" unicode="&#xad;" horiz-adv-x="667" 
d="M72 516v115h524v-115h-524z" />
    <glyph glyph-name="registered" unicode="&#xae;" horiz-adv-x="1081" 
d="M350 737v531h242q73 0 118.5 -41t45.5 -107q0 -101 -99 -127v-2q40 -11 59.5 -37.5t22.5 -76.5q2 -16 4 -42.5t3.5 -38t3.5 -26t5 -21t7 -8.5v-4h-88q-16 7 -23 121q-3 100 -104 100h-107v-221h-90zM440 1028h131q46 0 70.5 22t24.5 60t-23.5 61t-69.5 23h-133v-166z
M541 565q178 0 292.5 121t114.5 309q0 187 -114.5 308.5t-292.5 121.5t-293 -121.5t-115 -308.5q0 -188 115 -309t293 -121zM541 500q-205 0 -345.5 141t-140.5 354q0 212 141 354t345 142t344.5 -142t140.5 -354q0 -213 -140.5 -354t-344.5 -141z" />
    <glyph glyph-name="macron" unicode="&#xaf;" 
d="M258 1284v115h508v-115h-508z" />
    <glyph glyph-name="degree" unicode="&#xb0;" horiz-adv-x="651" 
d="M326 1024q67 0 107 45.5t40 116.5q0 70 -40.5 116t-106.5 46q-65 0 -106.5 -46t-41.5 -116q0 -71 41 -116.5t107 -45.5zM326 940q-103 0 -175.5 71.5t-72.5 174.5t72.5 175.5t175.5 72.5q104 0 175.5 -72.5t71.5 -175.5t-71.5 -174.5t-175.5 -71.5z" />
    <glyph glyph-name="plusminus" unicode="&#xb1;" horiz-adv-x="1085" 
d="M485 272v369h-372v111h372v364h115v-364h373v-111h-373v-369h-115zM113 0v109h860v-109h-860z" />
    <glyph glyph-name="twosuperior" unicode="&#xb2;" horiz-adv-x="694" 
d="M57 639q2 56 18.5 104.5t37.5 81.5t60 68.5t65 54t73 49.5q12 8 40 25.5t39.5 25t33 23.5t31 25.5t24 26t20 31.5t10.5 34t5 41q0 73 -42 114t-112 41q-79 0 -125 -50.5t-47 -145.5h-110q0 141 78 217t209 76q119 0 193.5 -72t74.5 -178q0 -31 -7 -59.5t-15.5 -49
t-28.5 -44t-32 -36t-41 -33.5t-41.5 -29t-46.5 -29q-5 -3 -8 -5l-7.5 -5t-8.5 -5q-40 -24 -65 -40.5t-57.5 -43t-52.5 -56t-27 -61.5h434v-96h-572z" />
    <glyph glyph-name="threesuperior" unicode="&#xb3;" horiz-adv-x="718" 
d="M362 621q-140 0 -225 76.5t-84 205.5h111q5 -90 54.5 -138t139.5 -48q85 0 133 42t48 118q0 73 -48.5 113t-136.5 40h-55v90h53q75 0 117.5 36t42.5 99t-42.5 100.5t-109.5 37.5q-81 0 -125 -49t-47 -130h-108q2 120 77 193.5t205 73.5q116 0 189.5 -60t73.5 -161
q0 -131 -129 -177v-4q161 -44 161 -211q0 -116 -83 -181.5t-212 -65.5z" />
    <glyph glyph-name="acute" unicode="&#xb4;" 
d="M428 1212l135 261h168l-192 -261h-111z" />
    <glyph glyph-name="mu" unicode="&#xb5;" horiz-adv-x="1021" 
d="M106 -340v1399h127v-740q0 -118 65.5 -177.5t184.5 -59.5q133 0 219 89.5t86 225.5v662h127v-1059h-127v156h-4q-61 -87 -136.5 -134t-190.5 -47q-148 0 -219 95h-5v-410h-127z" />
    <glyph glyph-name="paragraph" unicode="&#xb6;" horiz-adv-x="1046" 
d="M520 0v758h-67q-192 0 -293 94t-101 264q0 151 101 252q89 96 278 96h477v-1464h-124v1339h-148v-1339h-123z" />
    <glyph glyph-name="periodcentered" unicode="&#xb7;" horiz-adv-x="327" 
d="M88 549v178h156v-178h-156z" />
    <glyph glyph-name="cedilla" unicode="&#xb8;" 
d="M457 -383q-116 0 -199 51l31 56q69 -29 141 -29q54 0 85.5 19t31.5 53q0 57 -84 57q-42 0 -82 -14l-29 47l146 143h104l-117 -102v-4q70 6 122 -27t52 -100q0 -71 -55.5 -110.5t-146.5 -39.5z" />
    <glyph glyph-name="onesuperior" unicode="&#xb9;" horiz-adv-x="524" 
d="M248 639v598h-189v80q94 2 145.5 37t63.5 116h97v-831h-117z" />
    <glyph glyph-name="ordmasculine" unicode="&#xba;" horiz-adv-x="980" 
d="M492 565q145 0 224 107t79 276t-79 278t-224 109t-225.5 -109t-80.5 -278q0 -168 80 -275.5t226 -107.5zM492 463q-198 0 -315.5 137t-117.5 348t117.5 348.5t315.5 137.5q131 0 229.5 -64.5t149.5 -174t51 -247.5t-51 -247t-149.5 -173.5t-229.5 -64.5z" />
    <glyph glyph-name="guillemotright" unicode="&#xbb;" horiz-adv-x="841" 
d="M115 248v141l190 166v4l-190 164v141l264 -231v-154zM463 248v141l190 166v4l-190 164v141l264 -231v-154z" />
    <glyph glyph-name="onequarter" unicode="&#xbc;" horiz-adv-x="1503" 
d="M1206 0v199h-395v112l397 525h109v-547h127v-90h-127v-199h-111zM909 289h297v387h-4l-293 -383v-4zM256 639v598h-188v80q94 2 145 36.5t63 116.5h97v-831h-117zM158 0l1001 1464h123l-999 -1464h-125z" />
    <glyph glyph-name="onehalf" unicode="&#xbd;" horiz-adv-x="1570" 
d="M924 0q2 56 18.5 105t38 82t59.5 68.5t65 55t73 49.5q9 5 35.5 22t35 22.5t30.5 20.5t29.5 22.5t23 22t21.5 26t14 27t10.5 32t2.5 35.5q0 74 -41.5 114.5t-111.5 40.5q-80 0 -125.5 -49.5t-46.5 -144.5h-111q0 139 78 215t209 76q119 0 193.5 -72t74.5 -178
q0 -53 -16.5 -96t-51 -77t-64.5 -55.5t-80 -52.5q-5 -3 -8 -4.5t-7 -4.5t-8 -5q-43 -25 -66 -40.5t-57 -42.5t-53.5 -56t-26.5 -62h434v-96h-571zM256 639v598h-188v80q94 2 145 36.5t63 116.5h97v-831h-117zM137 0l1002 1464h123l-1000 -1464h-125z" />
    <glyph glyph-name="threequarters" unicode="&#xbe;" horiz-adv-x="1638" 
d="M371 621q-140 0 -225.5 76.5t-84.5 205.5h111q5 -90 55 -138t140 -48q85 0 132.5 42t47.5 118q0 73 -48.5 113t-136.5 40h-55v90h53q75 0 117.5 36t42.5 99q0 64 -42 101t-109 37q-81 0 -125 -49t-47 -130h-109q2 120 77.5 193.5t205.5 73.5q116 0 189 -60t73 -161
q0 -131 -129 -177v-4q162 -44 162 -211q0 -116 -83 -181.5t-212 -65.5zM1341 0v199h-395v112l397 525h109v-547h127v-90h-127v-199h-111zM1044 289h297v387h-4l-293 -383v-4zM309 0l1002 1464h123l-1000 -1464h-125z" />
    <glyph glyph-name="questiondown" unicode="&#xbf;" horiz-adv-x="1017" 
d="M498 -287q-189 0 -301.5 106.5t-112.5 268.5q0 42 7.5 80.5t16 66t29 59t32.5 48.5t42 45t41 38t45 38q81 68 118 113t55 108t19 166h123q-1 -170 -46 -262.5t-165 -192.5q-41 -35 -56 -48t-46 -47t-44 -59t-24.5 -65.5t-11.5 -85.5q0 -118 77.5 -190t207.5 -72
q154 0 239.5 95t90.5 249h129q-2 -92 -29.5 -172.5t-82 -145.5t-145.5 -103t-208 -38zM473 1026v178h156v-178h-156z" />
    <glyph glyph-name="Agrave" unicode="&#xc0;" horiz-adv-x="1298" 
d="M16 0l553 1464h156l557 -1464h-147l-170 461h-637l-172 -461h-140zM369 573h555l-201 547l-74 213h-4q-39 -125 -72 -213zM612 1542l-192 234h168l135 -234h-111z" />
    <glyph glyph-name="Aacute" unicode="&#xc1;" horiz-adv-x="1298" 
d="M16 0l553 1464h156l557 -1464h-147l-170 461h-637l-172 -461h-140zM369 573h555l-201 547l-74 213h-4q-39 -125 -72 -213zM580 1542l135 234h168l-193 -234h-110z" />
    <glyph glyph-name="Acircumflex" unicode="&#xc2;" horiz-adv-x="1298" 
d="M16 0l553 1464h156l557 -1464h-147l-170 461h-637l-172 -461h-140zM369 573h555l-201 547l-74 213h-4q-39 -125 -72 -213zM383 1544l192 211h152l188 -211h-143l-123 139h-4l-123 -139h-139z" />
    <glyph glyph-name="Atilde" unicode="&#xc3;" horiz-adv-x="1298" 
d="M16 0l553 1464h156l557 -1464h-147l-170 461h-637l-172 -461h-140zM369 573h555l-201 547l-74 213h-4q-39 -125 -72 -213zM774 1556q-49 0 -133.5 40t-108.5 40q-22 0 -38 -20t-19 -55h-100q7 87 46.5 132.5t104.5 45.5q52 0 130.5 -39t107.5 -39q56 0 63 74h99
q-5 -83 -45 -131t-107 -48z" />
    <glyph glyph-name="Adieresis" unicode="&#xc4;" horiz-adv-x="1298" 
d="M16 0l553 1464h156l557 -1464h-147l-170 461h-637l-172 -461h-140zM369 573h555l-201 547l-74 213h-4q-39 -125 -72 -213zM428 1550v176h123v-176h-123zM748 1550v176h122v-176h-122z" />
    <glyph glyph-name="Aring" unicode="&#xc5;" horiz-adv-x="1298" 
d="M16 0l553 1464h156l557 -1464h-147l-170 461h-637l-172 -461h-140zM369 573h555l-201 547l-74 213h-4q-39 -125 -72 -213zM649 1591q43 0 71 31t28 76q0 44 -28 74t-71 30t-70.5 -30t-27.5 -74q0 -45 27.5 -76t70.5 -31zM649 1524q-74 0 -126 51t-52 123t52 123t126 51
t126 -51t52 -123t-52 -123t-126 -51z" />
    <glyph glyph-name="AE" unicode="&#xc6;" horiz-adv-x="1935" 
d="M23 0l577 1464h1239v-121h-774v-526h700v-119h-700v-571h797v-127h-934v461h-586l-180 -461h-139zM385 573h543v770h-240z" />
    <glyph glyph-name="Ccedilla" unicode="&#xc7;" horiz-adv-x="1386" 
d="M672 -383q-116 0 -199 51l31 56q69 -29 141 -29q54 0 85.5 19t31.5 53q0 57 -84 57q-42 0 -82 -14l-29 47l119 118q-283 17 -447.5 223t-164.5 533q0 221 79 393.5t231 271.5t355 99q229 0 378 -119t186 -325h-136q-30 147 -142.5 236t-287.5 89q-126 0 -226 -50
t-163.5 -138t-97 -204.5t-33.5 -252.5q0 -185 58.5 -327.5t177 -226t282.5 -83.5q103 0 187 34t140.5 94.5t89.5 139t42 170.5h133q-6 -108 -45.5 -209.5t-105.5 -172.5q-138 -157 -388 -175l-88 -77v-4q70 6 122 -27t52 -100q0 -71 -55.5 -110.5t-146.5 -39.5z" />
    <glyph glyph-name="Egrave" unicode="&#xc8;" horiz-adv-x="1224" 
d="M616 1542l-192 234h168l135 -234h-111zM131 0v1464h995v-121h-858v-526h787v-119h-787v-571h881v-127h-1018z" />
    <glyph glyph-name="Eacute" unicode="&#xc9;" horiz-adv-x="1224" 
d="M582 1542l135 234h168l-193 -234h-110zM131 0v1464h995v-121h-858v-526h787v-119h-787v-571h881v-127h-1018z" />
    <glyph glyph-name="Ecircumflex" unicode="&#xca;" horiz-adv-x="1224" 
d="M131 0v1464h995v-121h-858v-526h787v-119h-787v-571h881v-127h-1018zM387 1544l193 211h151l189 -211h-144l-123 139h-4l-123 -139h-139z" />
    <glyph glyph-name="Edieresis" unicode="&#xcb;" horiz-adv-x="1224" 
d="M432 1550v176h123v-176h-123zM752 1550v176h122v-176h-122zM131 0v1464h995v-121h-858v-526h787v-119h-787v-571h881v-127h-1018z" />
    <glyph glyph-name="Igrave" unicode="&#xcc;" horiz-adv-x="413" 
d="M137 0v1464h137v-1464h-137zM162 1542l-193 234h168l135 -234h-110z" />
    <glyph glyph-name="Iacute" unicode="&#xcd;" horiz-adv-x="413" 
d="M137 0v1464h137v-1464h-137zM147 1542l136 234h168l-193 -234h-111z" />
    <glyph glyph-name="Icircumflex" unicode="&#xce;" horiz-adv-x="413" 
d="M137 0v1464h137v-1464h-137zM-59 1544l192 211h152l188 -211h-143l-123 139h-4l-123 -139h-139z" />
    <glyph glyph-name="Idieresis" unicode="&#xcf;" horiz-adv-x="413" 
d="M137 0v1464h137v-1464h-137zM-14 1550v176h123v-176h-123zM305 1550v176h123v-176h-123z" />
    <glyph glyph-name="Eth" unicode="&#xd0;" horiz-adv-x="1380" 
d="M291 121h362q255 0 379.5 159t124.5 447q0 142 -27.5 253t-85 193.5t-152.5 126t-224 43.5h-377v-550h485v-117h-485v-555zM152 0v676h-146v117h146v671h520q159 0 279.5 -53.5t196 -152.5t113 -232.5t37.5 -298.5q0 -220 -69 -381.5t-215 -253.5t-357 -92h-505z" />
    <glyph glyph-name="Ntilde" unicode="&#xd1;" horiz-adv-x="1366" 
d="M842 1556q-49 0 -133.5 40t-108.5 40q-22 0 -38 -20t-19 -55h-101q7 87 47 132.5t105 45.5q52 0 130 -39t107 -39q27 0 44 20t20 54h98q-5 -83 -44.5 -131t-106.5 -48zM131 0v1464h150l673 -1028q33 -49 69.5 -109.5t56.5 -96.5l20 -35h4v1269h131v-1464h-143l-672 1016
q-30 45 -68.5 107t-61.5 101l-24 40h-4v-1264h-131z" />
    <glyph glyph-name="Ograve" unicode="&#xd2;" horiz-adv-x="1511" 
d="M723 1542l-193 234h168l136 -234h-111zM754 94q129 0 232.5 50t170 137t102 202.5t35.5 249.5t-35.5 249.5t-102 202.5t-170 137t-232.5 50q-128 0 -231 -50t-169.5 -137t-101.5 -202.5t-35 -249.5t35 -249.5t101.5 -202.5t169.5 -137t231 -50zM754 -29q-152 0 -280 58
t-215.5 159.5t-136 242t-48.5 302.5t48.5 302.5t136 242t215.5 159.5t280 58q204 0 360.5 -99.5t240 -272.5t83.5 -390t-83.5 -390t-240 -272.5t-360.5 -99.5z" />
    <glyph glyph-name="Oacute" unicode="&#xd3;" horiz-adv-x="1511" 
d="M680 1542l135 234h168l-192 -234h-111zM754 94q129 0 232.5 50t170 137t102 202.5t35.5 249.5t-35.5 249.5t-102 202.5t-170 137t-232.5 50q-128 0 -231 -50t-169.5 -137t-101.5 -202.5t-35 -249.5t35 -249.5t101.5 -202.5t169.5 -137t231 -50zM754 -29q-152 0 -280 58
t-215.5 159.5t-136 242t-48.5 302.5t48.5 302.5t136 242t215.5 159.5t280 58q204 0 360.5 -99.5t240 -272.5t83.5 -390t-83.5 -390t-240 -272.5t-360.5 -99.5z" />
    <glyph glyph-name="Ocircumflex" unicode="&#xd4;" horiz-adv-x="1511" 
d="M754 94q129 0 232.5 50t170 137t102 202.5t35.5 249.5t-35.5 249.5t-102 202.5t-170 137t-232.5 50q-128 0 -231 -50t-169.5 -137t-101.5 -202.5t-35 -249.5t35 -249.5t101.5 -202.5t169.5 -137t231 -50zM754 -29q-152 0 -280 58t-215.5 159.5t-136 242t-48.5 302.5
t48.5 302.5t136 242t215.5 159.5t280 58q204 0 360.5 -99.5t240 -272.5t83.5 -390t-83.5 -390t-240 -272.5t-360.5 -99.5zM489 1544l193 211h152l188 -211h-143l-123 139h-4l-123 -139h-140z" />
    <glyph glyph-name="Otilde" unicode="&#xd5;" horiz-adv-x="1511" 
d="M881 1556q-49 0 -133.5 40t-108.5 40q-22 0 -38 -20t-19 -55h-101q7 87 47 132.5t105 45.5q52 0 130 -39t107 -39q27 0 44 20t20 54h98q-5 -83 -44.5 -131t-106.5 -48zM754 94q129 0 232.5 50t170 137t102 202.5t35.5 249.5t-35.5 249.5t-102 202.5t-170 137t-232.5 50
q-128 0 -231 -50t-169.5 -137t-101.5 -202.5t-35 -249.5t35 -249.5t101.5 -202.5t169.5 -137t231 -50zM754 -29q-152 0 -280 58t-215.5 159.5t-136 242t-48.5 302.5t48.5 302.5t136 242t215.5 159.5t280 58q204 0 360.5 -99.5t240 -272.5t83.5 -390t-83.5 -390t-240 -272.5
t-360.5 -99.5z" />
    <glyph glyph-name="Odieresis" unicode="&#xd6;" horiz-adv-x="1511" 
d="M535 1550v176h122v-176h-122zM854 1550v176h123v-176h-123zM754 94q129 0 232.5 50t170 137t102 202.5t35.5 249.5t-35.5 249.5t-102 202.5t-170 137t-232.5 50q-128 0 -231 -50t-169.5 -137t-101.5 -202.5t-35 -249.5t35 -249.5t101.5 -202.5t169.5 -137t231 -50z
M754 -29q-152 0 -280 58t-215.5 159.5t-136 242t-48.5 302.5t48.5 302.5t136 242t215.5 159.5t280 58q204 0 360.5 -99.5t240 -272.5t83.5 -390t-83.5 -390t-240 -272.5t-360.5 -99.5z" />
    <glyph glyph-name="multiply" unicode="&#xd7;" horiz-adv-x="1081" 
d="M231 272l-75 76l311 318l-311 317l75 74l310 -316l309 316l76 -74l-310 -317l310 -318l-76 -76l-309 316z" />
    <glyph glyph-name="Oslash" unicode="&#xd8;" horiz-adv-x="1511" 
d="M125 -33l-68 62l174 192q-157 209 -157 512q0 162 48.5 302.5t136 242t215.5 159.5t280 58q278 0 467 -186l165 184l68 -61l-172 -191q156 -212 156 -508q0 -217 -83.5 -390t-240 -272.5t-360.5 -99.5q-277 0 -461 181zM324 322l809 890q-144 160 -379 160
q-128 0 -231 -50t-169.5 -137t-101.5 -202.5t-35 -249.5q0 -246 107 -411zM754 94q129 0 232.5 50t170 137t102 202.5t35.5 249.5q0 245 -106 408l-809 -893q151 -154 375 -154z" />
    <glyph glyph-name="Ugrave" unicode="&#xd9;" horiz-adv-x="1302" 
d="M614 1542l-192 234h168l135 -234h-111zM647 -23q-248 0 -390 122t-142 366v999h137v-987q0 -198 102 -289.5t299 -91.5q191 0 295.5 92.5t104.5 288.5v987h137v-999q0 -125 -40 -219.5t-113 -152.5t-171 -87t-219 -29z" />
    <glyph glyph-name="Uacute" unicode="&#xda;" horiz-adv-x="1302" 
d="M580 1542l135 234h168l-193 -234h-110zM647 -23q-248 0 -390 122t-142 366v999h137v-987q0 -198 102 -289.5t299 -91.5q191 0 295.5 92.5t104.5 288.5v987h137v-999q0 -125 -40 -219.5t-113 -152.5t-171 -87t-219 -29z" />
    <glyph glyph-name="Ucircumflex" unicode="&#xdb;" horiz-adv-x="1302" 
d="M647 -23q-248 0 -390 122t-142 366v999h137v-987q0 -198 102 -289.5t299 -91.5q191 0 295.5 92.5t104.5 288.5v987h137v-999q0 -125 -40 -219.5t-113 -152.5t-171 -87t-219 -29zM385 1544l193 211h151l189 -211h-144l-123 139h-4l-123 -139h-139z" />
    <glyph glyph-name="Udieresis" unicode="&#xdc;" horiz-adv-x="1302" 
d="M430 1550v176h123v-176h-123zM750 1550v176h122v-176h-122zM647 -23q-248 0 -390 122t-142 366v999h137v-987q0 -198 102 -289.5t299 -91.5q191 0 295.5 92.5t104.5 288.5v987h137v-999q0 -125 -40 -219.5t-113 -152.5t-171 -87t-219 -29z" />
    <glyph glyph-name="Yacute" unicode="&#xdd;" horiz-adv-x="1228" 
d="M543 0v639l-529 825h152l446 -708h4l451 708h147l-532 -829v-635h-139zM543 1542l135 234h168l-193 -234h-110z" />
    <glyph glyph-name="Thorn" unicode="&#xde;" horiz-adv-x="1202" 
d="M131 0v1464h137v-274h439q222 0 344 -125q102 -108 102 -283q0 -205 -117.5 -311t-347.5 -106h-420v-365h-137zM268 481h410q336 0 336 297q0 140 -83 215.5t-241 75.5h-422v-588z" />
    <glyph glyph-name="germandbls" unicode="&#xdf;" horiz-adv-x="989" 
d="M502 -14q-64 0 -113 12v104h4q58 -10 105 -10q142 3 224.5 89.5t82.5 240.5q0 160 -84.5 252t-241.5 92h-76v100h82q118 0 185 74t67 190q0 111 -66.5 178.5t-181.5 67.5q-120 0 -188 -71.5t-68 -196.5v-1108h-127v1114q0 167 104.5 267t281.5 100q163 0 267.5 -98
t104.5 -248q0 -113 -53.5 -191t-155.5 -115v-4q130 -40 205.5 -140.5t75.5 -256.5q0 -210 -117.5 -326t-316.5 -116z" />
    <glyph glyph-name="agrave" unicode="&#xe0;" horiz-adv-x="1021" 
d="M393 -25q-154 0 -250 76t-96 219q0 73 23.5 128.5t60 89t96.5 57.5t117 35.5t139 21.5q62 7 94.5 12t71.5 12.5t56 16.5t34.5 23.5t23 33t5.5 45.5v21q0 106 -65 159.5t-189 53.5q-282 0 -297 -236h-125q11 159 117 248.5t305 89.5q375 0 375 -327v-576q0 -89 69 -92
q12 0 48 8h6v-92q-36 -16 -86 -16q-147 0 -156 149v23h-6q-129 -183 -371 -183zM416 78q83 0 152 27t112 71t66.5 98t23.5 109v190q-77 -42 -274 -69q-53 -8 -86 -14t-74.5 -17t-65.5 -27t-47 -39.5t-33 -58t-10 -78.5q0 -70 34 -114.5t84.5 -61t117.5 -16.5zM487 1212
l-192 261h168l135 -261h-111z" />
    <glyph glyph-name="aacute" unicode="&#xe1;" horiz-adv-x="1021" 
d="M393 -25q-154 0 -250 76t-96 219q0 73 23.5 128.5t60 89t96.5 57.5t117 35.5t139 21.5q62 7 94.5 12t71.5 12.5t56 16.5t34.5 23.5t23 33t5.5 45.5v21q0 106 -65 159.5t-189 53.5q-282 0 -297 -236h-125q11 159 117 248.5t305 89.5q375 0 375 -327v-576q0 -89 69 -92
q12 0 48 8h6v-92q-36 -16 -86 -16q-147 0 -156 149v23h-6q-129 -183 -371 -183zM416 78q83 0 152 27t112 71t66.5 98t23.5 109v190q-77 -42 -274 -69q-53 -8 -86 -14t-74.5 -17t-65.5 -27t-47 -39.5t-33 -58t-10 -78.5q0 -70 34 -114.5t84.5 -61t117.5 -16.5zM440 1212
l135 261h168l-192 -261h-111z" />
    <glyph glyph-name="acircumflex" unicode="&#xe2;" horiz-adv-x="1021" 
d="M393 -25q-154 0 -250 76t-96 219q0 73 23.5 128.5t60 89t96.5 57.5t117 35.5t139 21.5q62 7 94.5 12t71.5 12.5t56 16.5t34.5 23.5t23 33t5.5 45.5v21q0 106 -65 159.5t-189 53.5q-282 0 -297 -236h-125q11 159 117 248.5t305 89.5q375 0 375 -327v-576q0 -89 69 -92
q12 0 48 8h6v-92q-36 -16 -86 -16q-147 0 -156 149v23h-6q-129 -183 -371 -183zM416 78q83 0 152 27t112 71t66.5 98t23.5 109v190q-77 -42 -274 -69q-53 -8 -86 -14t-74.5 -17t-65.5 -27t-47 -39.5t-33 -58t-10 -78.5q0 -70 34 -114.5t84.5 -61t117.5 -16.5zM268 1221
l174 217h152l170 -217h-141l-107 145h-4l-109 -145h-135z" />
    <glyph glyph-name="atilde" unicode="&#xe3;" horiz-adv-x="1021" 
d="M393 -25q-154 0 -250 76t-96 219q0 73 23.5 128.5t60 89t96.5 57.5t117 35.5t139 21.5q62 7 94.5 12t71.5 12.5t56 16.5t34.5 23.5t23 33t5.5 45.5v21q0 106 -65 159.5t-189 53.5q-282 0 -297 -236h-125q11 159 117 248.5t305 89.5q375 0 375 -327v-576q0 -89 69 -92
q12 0 48 8h6v-92q-36 -16 -86 -16q-147 0 -156 149v23h-6q-129 -183 -371 -183zM416 78q83 0 152 27t112 71t66.5 98t23.5 109v190q-77 -42 -274 -69q-53 -8 -86 -14t-74.5 -17t-65.5 -27t-47 -39.5t-33 -58t-10 -78.5q0 -70 34 -114.5t84.5 -61t117.5 -16.5zM641 1229
q-49 0 -133.5 40t-108.5 40q-22 0 -38 -20.5t-19 -55.5h-100q7 87 46.5 133.5t104.5 46.5q41 0 86.5 -20t85 -40t66.5 -20t43.5 20.5t19.5 55.5h99q-5 -84 -45 -132t-107 -48z" />
    <glyph glyph-name="adieresis" unicode="&#xe4;" horiz-adv-x="1021" 
d="M393 -25q-154 0 -250 76t-96 219q0 73 23.5 128.5t60 89t96.5 57.5t117 35.5t139 21.5q62 7 94.5 12t71.5 12.5t56 16.5t34.5 23.5t23 33t5.5 45.5v21q0 106 -65 159.5t-189 53.5q-282 0 -297 -236h-125q11 159 117 248.5t305 89.5q375 0 375 -327v-576q0 -89 69 -92
q12 0 48 8h6v-92q-36 -16 -86 -16q-147 0 -156 149v23h-6q-129 -183 -371 -183zM416 78q83 0 152 27t112 71t66.5 98t23.5 109v190q-77 -42 -274 -69q-53 -8 -86 -14t-74.5 -17t-65.5 -27t-47 -39.5t-33 -58t-10 -78.5q0 -70 34 -114.5t84.5 -61t117.5 -16.5zM297 1284v176
h123v-176h-123zM616 1284v176h123v-176h-123z" />
    <glyph glyph-name="aring" unicode="&#xe5;" horiz-adv-x="1021" 
d="M393 -25q-154 0 -250 76t-96 219q0 73 23.5 128.5t60 89t96.5 57.5t117 35.5t139 21.5q62 7 94.5 12t71.5 12.5t56 16.5t34.5 23.5t23 33t5.5 45.5v21q0 106 -65 159.5t-189 53.5q-282 0 -297 -236h-125q11 159 117 248.5t305 89.5q375 0 375 -327v-576q0 -89 69 -92
q12 0 48 8h6v-92q-36 -16 -86 -16q-147 0 -156 149v23h-6q-129 -183 -371 -183zM416 78q83 0 152 27t112 71t66.5 98t23.5 109v190q-77 -42 -274 -69q-53 -8 -86 -14t-74.5 -17t-65.5 -27t-47 -39.5t-33 -58t-10 -78.5q0 -70 34 -114.5t84.5 -61t117.5 -16.5zM518 1235
q43 0 70.5 30t27.5 74q0 45 -27 75t-71 30t-71 -30t-27 -75q0 -44 27.5 -74t70.5 -30zM518 1165q-74 0 -126 51t-52 123t52 123t126 51t126 -51t52 -123t-52 -123t-126 -51z" />
    <glyph glyph-name="ae" unicode="&#xe6;" horiz-adv-x="1724" 
d="M412 -25q-161 0 -263 78.5t-102 222.5q0 73 23.5 127.5t60.5 87.5t97.5 56t118 34t138.5 19q171 18 227 43.5t56 101.5v17q0 107 -64 162t-186 55q-269 0 -293 -236h-125q15 157 121.5 247.5t296.5 90.5q281 0 344 -204q57 98 150.5 152t218.5 54q159 0 268 -92
q177 -147 174 -485h-782q2 -91 24 -167t64 -134t110 -90.5t156 -32.5q230 0 293 237h123q-31 -159 -140 -252.5t-276 -93.5q-281 0 -405 236h-4q-71 -124 -173 -179t-251 -55zM430 78q80 0 146.5 27t107.5 71t63.5 97.5t22.5 109.5v184q-82 -42 -276 -65q-65 -7 -104.5 -14
t-84 -22.5t-69 -38.5t-40.5 -61.5t-16 -91.5q0 -102 70 -149t180 -47zM895 606h645q-2 108 -35 190t-103.5 132.5t-170.5 50.5q-151 0 -235.5 -102.5t-100.5 -270.5z" />
    <glyph glyph-name="ccedilla" unicode="&#xe7;" horiz-adv-x="1005" 
d="M465 -383q-116 0 -199 51l31 56q69 -29 141 -29q54 0 85.5 19t31.5 53q0 57 -84 57q-42 0 -82 -14l-29 47l121 120q-202 18 -316 170t-114 381q0 159 56 283.5t167 198t261 73.5q175 0 287.5 -90.5t138.5 -253.5h-127q-47 238 -299 238q-118 0 -199 -62t-117.5 -161
t-36.5 -226t36.5 -225.5t117 -159.5t196.5 -61q133 0 216 76.5t98 206.5h121q-17 -169 -118 -273t-267 -117l-88 -77v-4q70 6 122 -27t52 -100q0 -71 -56 -110.5t-147 -39.5z" />
    <glyph glyph-name="egrave" unicode="&#xe8;" horiz-adv-x="1040" 
d="M545 -27q-155 0 -268 73t-169.5 197.5t-56.5 284.5q0 158 59 284t170 198.5t255 72.5q99 0 177.5 -32t130 -85.5t85 -128.5t48 -157t13.5 -174h-807q2 -91 25.5 -167t67 -134t113 -90.5t157.5 -32.5q241 0 309 237h123q-35 -161 -146 -253.5t-286 -92.5zM184 606h672
q-5 167 -85.5 270t-235.5 103q-154 0 -243.5 -103t-107.5 -270zM502 1212l-193 261h168l135 -261h-110z" />
    <glyph glyph-name="eacute" unicode="&#xe9;" horiz-adv-x="1040" 
d="M455 1212l135 261h168l-193 -261h-110zM545 -27q-155 0 -268 73t-169.5 197.5t-56.5 284.5q0 158 59 284t170 198.5t255 72.5q99 0 177.5 -32t130 -85.5t85 -128.5t48 -157t13.5 -174h-807q2 -91 25.5 -167t67 -134t113 -90.5t157.5 -32.5q241 0 309 237h123
q-35 -161 -146 -253.5t-286 -92.5zM184 606h672q-5 167 -85.5 270t-235.5 103q-154 0 -243.5 -103t-107.5 -270z" />
    <glyph glyph-name="ecircumflex" unicode="&#xea;" horiz-adv-x="1040" 
d="M283 1221l174 217h151l170 -217h-141l-107 145h-4l-108 -145h-135zM545 -27q-155 0 -268 73t-169.5 197.5t-56.5 284.5q0 158 59 284t170 198.5t255 72.5q99 0 177.5 -32t130 -85.5t85 -128.5t48 -157t13.5 -174h-807q2 -91 25.5 -167t67 -134t113 -90.5t157.5 -32.5
q241 0 309 237h123q-35 -161 -146 -253.5t-286 -92.5zM184 606h672q-5 167 -85.5 270t-235.5 103q-154 0 -243.5 -103t-107.5 -270z" />
    <glyph glyph-name="edieresis" unicode="&#xeb;" horiz-adv-x="1040" 
d="M309 1284v176h123v-176h-123zM629 1284v176h123v-176h-123zM545 -27q-155 0 -268 73t-169.5 197.5t-56.5 284.5q0 158 59 284t170 198.5t255 72.5q99 0 177.5 -32t130 -85.5t85 -128.5t48 -157t13.5 -174h-807q2 -91 25.5 -167t67 -134t113 -90.5t157.5 -32.5
q241 0 309 237h123q-35 -161 -146 -253.5t-286 -92.5zM184 606h672q-5 167 -85.5 270t-235.5 103q-154 0 -243.5 -103t-107.5 -270z" />
    <glyph glyph-name="igrave" unicode="&#xec;" horiz-adv-x="346" 
d="M111 0v1059h127v-1059h-127zM127 1212l-193 261h168l136 -261h-111z" />
    <glyph glyph-name="iacute" unicode="&#xed;" horiz-adv-x="346" 
d="M111 0v1059h127v-1059h-127zM121 1212l110 261h160l-162 -261h-108z" />
    <glyph glyph-name="icircumflex" unicode="&#xee;" horiz-adv-x="346" 
d="M-45 1221l143 217h152l139 -217h-131l-84 141h-4l-88 -141h-127zM111 0v1059h127v-1059h-127z" />
    <glyph glyph-name="idieresis" unicode="&#xef;" horiz-adv-x="346" 
d="M-8 1284v176h125v-176h-125zM111 0v1059h127v-1059h-127zM229 1284v176h125v-176h-125z" />
    <glyph glyph-name="eth" unicode="&#xf0;" horiz-adv-x="1083" 
d="M348 1151l-29 74l252 92q-63 58 -178 147h162q84 -60 133 -104l205 74l29 -74l-170 -62q278 -299 278 -745q0 -260 -130.5 -420t-356.5 -160q-149 0 -262 73t-171.5 198.5t-58.5 283.5q0 240 131.5 395.5t347.5 155.5q194 0 318 -153h2q-71 176 -217 329zM543 80
q170 0 264 127.5t94 322.5q0 198 -94.5 321.5t-267.5 123.5q-170 0 -263.5 -126t-93.5 -321q0 -126 39.5 -226t123 -161t198.5 -61z" />
    <glyph glyph-name="ntilde" unicode="&#xf1;" horiz-adv-x="1028" 
d="M106 0v1059h127v-162h5q125 184 354 184q152 0 245 -86.5t93 -242.5v-752h-127v739q0 117 -63.5 175.5t-178.5 58.5q-137 0 -232.5 -86t-95.5 -215v-672h-127zM645 1229q-49 0 -133.5 40t-108.5 40q-22 0 -38 -20.5t-19 -55.5h-100q7 87 46.5 133.5t104.5 46.5
q41 0 86.5 -20t85 -40t66.5 -20t43.5 20.5t19.5 55.5h99q-5 -84 -45 -132t-107 -48z" />
    <glyph glyph-name="ograve" unicode="&#xf2;" horiz-adv-x="1083" 
d="M543 80q170 0 264 126.5t94 321.5t-94 322t-264 127q-115 0 -198.5 -61t-123 -161.5t-39.5 -226.5t39.5 -226t123 -161t198.5 -61zM543 -27q-149 0 -262 73t-171.5 198.5t-58.5 283.5t58.5 283.5t171.5 198.5t262 73t260.5 -73.5t169 -198.5t57.5 -283t-57.5 -283
t-169 -198.5t-260.5 -73.5zM510 1212l-193 261h168l136 -261h-111z" />
    <glyph glyph-name="oacute" unicode="&#xf3;" horiz-adv-x="1083" 
d="M465 1212l135 261h168l-193 -261h-110zM543 80q170 0 264 126.5t94 321.5t-94 322t-264 127q-115 0 -198.5 -61t-123 -161.5t-39.5 -226.5t39.5 -226t123 -161t198.5 -61zM543 -27q-149 0 -262 73t-171.5 198.5t-58.5 283.5t58.5 283.5t171.5 198.5t262 73t260.5 -73.5
t169 -198.5t57.5 -283t-57.5 -283t-169 -198.5t-260.5 -73.5z" />
    <glyph glyph-name="ocircumflex" unicode="&#xf4;" horiz-adv-x="1083" 
d="M293 1221l174 217h151l170 -217h-141l-106 145h-4l-109 -145h-135zM543 80q170 0 264 126.5t94 321.5t-94 322t-264 127q-115 0 -198.5 -61t-123 -161.5t-39.5 -226.5t39.5 -226t123 -161t198.5 -61zM543 -27q-149 0 -262 73t-171.5 198.5t-58.5 283.5t58.5 283.5
t171.5 198.5t262 73t260.5 -73.5t169 -198.5t57.5 -283t-57.5 -283t-169 -198.5t-260.5 -73.5z" />
    <glyph glyph-name="otilde" unicode="&#xf5;" horiz-adv-x="1083" 
d="M543 80q170 0 264 126.5t94 321.5t-94 322t-264 127q-115 0 -198.5 -61t-123 -161.5t-39.5 -226.5t39.5 -226t123 -161t198.5 -61zM543 -27q-149 0 -262 73t-171.5 198.5t-58.5 283.5t58.5 283.5t171.5 198.5t262 73t260.5 -73.5t169 -198.5t57.5 -283t-57.5 -283
t-169 -198.5t-260.5 -73.5zM666 1229q-49 0 -133.5 40t-108.5 40q-22 0 -38 -20.5t-19 -55.5h-101q7 87 47 133.5t105 46.5q41 0 86 -20t84.5 -40t66.5 -20t44 20.5t20 55.5h98q-5 -84 -44.5 -132t-106.5 -48z" />
    <glyph glyph-name="odieresis" unicode="&#xf6;" horiz-adv-x="1083" 
d="M319 1284v176h123v-176h-123zM639 1284v176h123v-176h-123zM543 80q170 0 264 126.5t94 321.5t-94 322t-264 127q-115 0 -198.5 -61t-123 -161.5t-39.5 -226.5t39.5 -226t123 -161t198.5 -61zM543 -27q-149 0 -262 73t-171.5 198.5t-58.5 283.5t58.5 283.5t171.5 198.5
t262 73t260.5 -73.5t169 -198.5t57.5 -283t-57.5 -283t-169 -198.5t-260.5 -73.5z" />
    <glyph glyph-name="divide" unicode="&#xf7;" horiz-adv-x="1085" 
d="M465 238v172h156v-172h-156zM113 612v111h860v-111h-860zM465 926v172h156v-172h-156z" />
    <glyph glyph-name="oslash" unicode="&#xf8;" horiz-adv-x="1083" 
d="M92 -31l-55 51l123 140q-109 149 -109 368q0 158 58.5 283.5t171.5 198.5t262 73q197 0 329 -129l117 131l58 -51l-125 -139q108 -144 108 -367q0 -158 -57.5 -283t-169 -198.5t-260.5 -73.5q-203 0 -332 129zM246 254l547 612q-94 111 -250 111q-115 0 -198.5 -61
t-123 -161.5t-39.5 -226.5q0 -161 64 -274zM543 80q170 0 264 126.5t94 321.5q0 164 -63 275l-549 -613q96 -110 254 -110z" />
    <glyph glyph-name="ugrave" unicode="&#xf9;" horiz-adv-x="1013" 
d="M446 -25q-157 0 -252.5 89.5t-95.5 246.5v748h127v-740q0 -117 66 -177t184 -60q134 0 220.5 89.5t86.5 225.5v662h125v-1059h-125v156h-4q-63 -87 -139.5 -134t-192.5 -47zM481 1212l-192 261h168l135 -261h-111z" />
    <glyph glyph-name="uacute" unicode="&#xfa;" horiz-adv-x="1013" 
d="M432 1212l135 261h168l-192 -261h-111zM446 -25q-157 0 -252.5 89.5t-95.5 246.5v748h127v-740q0 -117 66 -177t184 -60q134 0 220.5 89.5t86.5 225.5v662h125v-1059h-125v156h-4q-63 -87 -139.5 -134t-192.5 -47z" />
    <glyph glyph-name="ucircumflex" unicode="&#xfb;" horiz-adv-x="1013" 
d="M262 1221l174 217h152l170 -217h-142l-106 145h-4l-109 -145h-135zM446 -25q-157 0 -252.5 89.5t-95.5 246.5v748h127v-740q0 -117 66 -177t184 -60q134 0 220.5 89.5t86.5 225.5v662h125v-1059h-125v156h-4q-63 -87 -139.5 -134t-192.5 -47z" />
    <glyph glyph-name="udieresis" unicode="&#xfc;" horiz-adv-x="1013" 
d="M289 1284v176h123v-176h-123zM608 1284v176h123v-176h-123zM446 -25q-157 0 -252.5 89.5t-95.5 246.5v748h127v-740q0 -117 66 -177t184 -60q134 0 220.5 89.5t86.5 225.5v662h125v-1059h-125v156h-4q-63 -87 -139.5 -134t-192.5 -47z" />
    <glyph glyph-name="yacute" unicode="&#xfd;" horiz-adv-x="960" 
d="M217 -350q-55 0 -108 16v113h6q45 -15 96 -15q63 0 105.5 32.5t70.5 111.5l35 94l-408 1057h136l253 -684l84 -242h5q44 144 79 242l244 684h131l-436 -1170q-52 -137 -118.5 -188t-174.5 -51zM412 1212l135 261h168l-193 -261h-110z" />
    <glyph glyph-name="thorn" unicode="&#xfe;" horiz-adv-x="1085" 
d="M106 -340v1804h127v-587h5q121 204 358 204q195 0 316.5 -147.5t121.5 -405.5q0 -248 -120 -401.5t-326 -153.5q-226 0 -350 181h-5v-494h-127zM582 80q105 0 179.5 61t109 160t34.5 225q0 203 -85 326t-240 123q-113 0 -195 -61t-122 -161.5t-40 -228.5
q0 -202 91.5 -323t267.5 -121z" />
    <glyph glyph-name="ydieresis" unicode="&#xff;" horiz-adv-x="960" 
d="M217 -350q-55 0 -108 16v113h6q45 -15 96 -15q63 0 105.5 32.5t70.5 111.5l35 94l-408 1057h136l253 -684l84 -242h5q44 144 79 242l244 684h131l-436 -1170q-52 -137 -118.5 -188t-174.5 -51zM268 1284v176h123v-176h-123zM588 1284v176h123v-176h-123z" />
    <glyph glyph-name="Amacron" unicode="&#x100;" horiz-adv-x="1298" 
d="M16 0l553 1464h156l557 -1464h-147l-170 461h-637l-172 -461h-140zM369 573h555l-201 547l-74 213h-4q-39 -125 -72 -213zM395 1559v114h508v-114h-508z" />
    <glyph glyph-name="amacron" unicode="&#x101;" horiz-adv-x="1021" 
d="M393 -25q-154 0 -250 76t-96 219q0 73 23.5 128.5t60 89t96.5 57.5t117 35.5t139 21.5q62 7 94.5 12t71.5 12.5t56 16.5t34.5 23.5t23 33t5.5 45.5v21q0 106 -65 159.5t-189 53.5q-282 0 -297 -236h-125q11 159 117 248.5t305 89.5q375 0 375 -327v-576q0 -89 69 -92
q12 0 48 8h6v-92q-36 -16 -86 -16q-147 0 -156 149v23h-6q-129 -183 -371 -183zM416 78q83 0 152 27t112 71t66.5 98t23.5 109v190q-77 -42 -274 -69q-53 -8 -86 -14t-74.5 -17t-65.5 -27t-47 -39.5t-33 -58t-10 -78.5q0 -70 34 -114.5t84.5 -61t117.5 -16.5zM262 1284v115
h508v-115h-508z" />
    <glyph glyph-name="Abreve" unicode="&#x102;" horiz-adv-x="1298" 
d="M16 0l553 1464h156l557 -1464h-147l-170 461h-637l-172 -461h-140zM369 573h555l-201 547l-74 213h-4q-39 -125 -72 -213zM649 1546q-104 0 -173 60t-75 157h105q20 -108 143 -108q62 0 99.5 28.5t46.5 79.5h104q-6 -94 -74.5 -155.5t-175.5 -61.5z" />
    <glyph glyph-name="abreve" unicode="&#x103;" horiz-adv-x="1021" 
d="M393 -25q-154 0 -250 76t-96 219q0 73 23.5 128.5t60 89t96.5 57.5t117 35.5t139 21.5q62 7 94.5 12t71.5 12.5t56 16.5t34.5 23.5t23 33t5.5 45.5v21q0 106 -65 159.5t-189 53.5q-282 0 -297 -236h-125q11 159 117 248.5t305 89.5q375 0 375 -327v-576q0 -89 69 -92
q12 0 48 8h6v-92q-36 -16 -86 -16q-147 0 -156 149v23h-6q-129 -183 -371 -183zM416 78q83 0 152 27t112 71t66.5 98t23.5 109v190q-77 -42 -274 -69q-53 -8 -86 -14t-74.5 -17t-65.5 -27t-47 -39.5t-33 -58t-10 -78.5q0 -70 34 -114.5t84.5 -61t117.5 -16.5zM516 1219
q-104 0 -173 62t-75 159h105q9 -52 45.5 -82.5t97.5 -30.5t99 31t47 82h104q-6 -95 -75 -158t-175 -63z" />
    <glyph glyph-name="Aogonek" unicode="&#x104;" horiz-adv-x="1298" 
d="M1174 -356q-92 0 -140.5 41t-48.5 110q0 60 43 113.5t107 93.5l-170 459h-637l-172 -461h-140l553 1464h156l553 -1450q-86 -62 -127 -109t-41 -95q0 -70 82 -70q48 0 92 18h6v-88q-50 -26 -116 -26zM369 573h555l-201 547l-74 213h-4q-39 -125 -72 -213z" />
    <glyph glyph-name="aogonek" unicode="&#x105;" horiz-adv-x="1021" 
d="M899 -356q-90 0 -138 41t-48 110q0 61 43.5 113.5t105.5 87.5q-86 26 -92 139v23h-6q-129 -183 -371 -183q-154 0 -250 76t-96 219q0 73 23.5 128.5t60 89t96.5 57.5t117 35.5t139 21.5q62 7 94.5 12t71.5 12.5t56 16.5t34.5 23.5t23 33t5.5 45.5v21q0 106 -65 159.5
t-189 53.5q-282 0 -297 -236h-125q11 159 117 248.5t305 89.5q375 0 375 -327v-576q0 -89 69 -92q12 0 48 8h6v-92q-76 -33 -126 -86.5t-50 -105.5q0 -72 84 -72q44 0 92 20h6v-90q-54 -24 -119 -24zM416 78q83 0 152 27t112 71t66.5 98t23.5 109v190q-77 -42 -274 -69
q-53 -8 -86 -14t-74.5 -17t-65.5 -27t-47 -39.5t-33 -58t-10 -78.5q0 -70 34 -114.5t84.5 -61t117.5 -16.5z" />
    <glyph glyph-name="Cacute" unicode="&#x106;" horiz-adv-x="1386" 
d="M733 -27q-201 0 -351 96t-229 267t-79 395q0 221 79 393.5t231 271.5t355 99q229 0 378 -119t186 -325h-136q-30 147 -142.5 236t-287.5 89q-126 0 -226 -50t-163.5 -138t-97 -204.5t-33.5 -252.5q0 -185 58.5 -327.5t177 -226t282.5 -83.5q103 0 187 34t140.5 94.5
t89.5 139t42 170.5h133q-6 -108 -45.5 -209.5t-105.5 -172.5q-157 -177 -443 -177zM662 1542l135 234h168l-193 -234h-110z" />
    <glyph glyph-name="cacute" unicode="&#x107;" horiz-adv-x="1005" 
d="M451 1212l135 261h168l-193 -261h-110zM532 -27q-225 0 -353 155.5t-128 399.5q0 159 56 283.5t167 198t261 73.5q175 0 287.5 -90.5t138.5 -253.5h-127q-47 238 -299 238q-118 0 -199 -62t-117.5 -161t-36.5 -226t36.5 -225.5t117 -159.5t196.5 -61q133 0 216 76.5
t98 206.5h121q-19 -182 -133.5 -287t-301.5 -105z" />
    <glyph glyph-name="Ccircumflex" unicode="&#x108;" horiz-adv-x="1386" 
d="M733 -27q-201 0 -351 96t-229 267t-79 395q0 221 79 393.5t231 271.5t355 99q229 0 378 -119t186 -325h-136q-30 147 -142.5 236t-287.5 89q-126 0 -226 -50t-163.5 -138t-97 -204.5t-33.5 -252.5q0 -185 58.5 -327.5t177 -226t282.5 -83.5q103 0 187 34t140.5 94.5
t89.5 139t42 170.5h133q-6 -108 -45.5 -209.5t-105.5 -172.5q-157 -177 -443 -177zM467 1544l192 211h152l188 -211h-143l-123 139h-4l-123 -139h-139z" />
    <glyph glyph-name="ccircumflex" unicode="&#x109;" horiz-adv-x="1005" 
d="M279 1221l174 217h151l170 -217h-141l-107 145h-4l-108 -145h-135zM532 -27q-225 0 -353 155.5t-128 399.5q0 159 56 283.5t167 198t261 73.5q175 0 287.5 -90.5t138.5 -253.5h-127q-47 238 -299 238q-118 0 -199 -62t-117.5 -161t-36.5 -226t36.5 -225.5t117 -159.5
t196.5 -61q133 0 216 76.5t98 206.5h121q-19 -182 -133.5 -287t-301.5 -105z" />
    <glyph glyph-name="Cdotaccent" unicode="&#x10a;" horiz-adv-x="1386" 
d="M670 1550v176h125v-176h-125zM733 -27q-201 0 -351 96t-229 267t-79 395q0 221 79 393.5t231 271.5t355 99q229 0 378 -119t186 -325h-136q-30 147 -142.5 236t-287.5 89q-126 0 -226 -50t-163.5 -138t-97 -204.5t-33.5 -252.5q0 -185 58.5 -327.5t177 -226t282.5 -83.5
q103 0 187 34t140.5 94.5t89.5 139t42 170.5h133q-6 -108 -45.5 -209.5t-105.5 -172.5q-157 -177 -443 -177z" />
    <glyph glyph-name="cdotaccent" unicode="&#x10b;" horiz-adv-x="1005" 
d="M532 -27q-225 0 -353 155.5t-128 399.5q0 159 56 283.5t167 198t261 73.5q175 0 287.5 -90.5t138.5 -253.5h-127q-47 238 -299 238q-118 0 -199 -62t-117.5 -161t-36.5 -226t36.5 -225.5t117 -159.5t196.5 -61q133 0 216 76.5t98 206.5h121q-19 -182 -133.5 -287
t-301.5 -105zM465 1284v180h125v-180h-125z" />
    <glyph glyph-name="Ccaron" unicode="&#x10c;" horiz-adv-x="1386" 
d="M733 -27q-201 0 -351 96t-229 267t-79 395q0 221 79 393.5t231 271.5t355 99q229 0 378 -119t186 -325h-136q-30 147 -142.5 236t-287.5 89q-126 0 -226 -50t-163.5 -138t-97 -204.5t-33.5 -252.5q0 -185 58.5 -327.5t177 -226t282.5 -83.5q103 0 187 34t140.5 94.5
t89.5 139t42 170.5h133q-6 -108 -45.5 -209.5t-105.5 -172.5q-157 -177 -443 -177zM655 1544l-188 211h143l123 -137h4l123 137h139l-192 -211h-152z" />
    <glyph glyph-name="ccaron" unicode="&#x10d;" horiz-adv-x="1005" 
d="M449 1221l-170 217h141l106 -146h4l109 146h135l-174 -217h-151zM532 -27q-225 0 -353 155.5t-128 399.5q0 159 56 283.5t167 198t261 73.5q175 0 287.5 -90.5t138.5 -253.5h-127q-47 238 -299 238q-118 0 -199 -62t-117.5 -161t-36.5 -226t36.5 -225.5t117 -159.5
t196.5 -61q133 0 216 76.5t98 206.5h121q-19 -182 -133.5 -287t-301.5 -105z" />
    <glyph glyph-name="Dcaron" unicode="&#x10e;" horiz-adv-x="1351" 
d="M537 1544l-189 211h144l122 -137h4l123 137h140l-193 -211h-151zM268 121h365q255 0 378.5 159t123.5 447q0 292 -118 454t-370 162h-379v-1222zM131 0v1464h520q127 0 230.5 -35t177 -99.5t123 -156t73 -203t23.5 -243.5q0 -220 -69 -381.5t-215 -253.5t-357 -92h-506z
" />
    <glyph glyph-name="dcaron" unicode="&#x10f;" horiz-adv-x="1089" 
d="M1065 1130v68q35 13 51.5 36.5t16.5 70.5v4h-66v155h143v-155q0 -156 -145 -179zM508 -29q-211 0 -334 153.5t-123 401.5q0 257 129 406t324 149q119 0 207.5 -52t140.5 -146h4v581h127v-1464h-127v158h-4q-60 -93 -143.5 -140t-200.5 -47zM512 78q169 0 261.5 121.5
t92.5 324.5q0 201 -93.5 326t-260.5 125q-154 0 -242 -124.5t-88 -326.5q0 -196 85 -321t245 -125z" />
    <glyph glyph-name="Dcroat" unicode="&#x110;" horiz-adv-x="1380" 
d="M291 121h362q255 0 379.5 159t124.5 447q0 142 -27.5 253t-85 193.5t-152.5 126t-224 43.5h-377v-550h485v-117h-485v-555zM152 0v676h-146v117h146v671h520q159 0 279.5 -53.5t196 -152.5t113 -232.5t37.5 -298.5q0 -220 -69 -381.5t-215 -253.5t-357 -92h-505z" />
    <glyph glyph-name="dcroat" unicode="&#x111;" horiz-adv-x="1089" 
d="M508 -29q-211 0 -334 153.5t-123 401.5q0 257 129 406t324 149q119 0 207.5 -52t140.5 -146h4v313h-266v102h266v166h127v-166h121v-102h-121v-1196h-127v158h-4q-60 -93 -143.5 -140t-200.5 -47zM512 78q169 0 261.5 121.5t92.5 324.5q0 201 -93.5 326t-260.5 125
q-154 0 -242 -124.5t-88 -326.5q0 -196 85 -321t245 -125z" />
    <glyph glyph-name="Emacron" unicode="&#x112;" horiz-adv-x="1224" 
d="M399 1559v114h508v-114h-508zM131 0v1464h995v-121h-858v-526h787v-119h-787v-571h881v-127h-1018z" />
    <glyph glyph-name="emacron" unicode="&#x113;" horiz-adv-x="1040" 
d="M545 -27q-155 0 -268 73t-169.5 197.5t-56.5 284.5q0 158 59 284t170 198.5t255 72.5q99 0 177.5 -32t130 -85.5t85 -128.5t48 -157t13.5 -174h-807q2 -91 25.5 -167t67 -134t113 -90.5t157.5 -32.5q241 0 309 237h123q-35 -161 -146 -253.5t-286 -92.5zM184 606h672
q-5 167 -85.5 270t-235.5 103q-154 0 -243.5 -103t-107.5 -270zM276 1284v115h508v-115h-508z" />
    <glyph glyph-name="Ebreve" unicode="&#x114;" horiz-adv-x="1224" 
d="M651 1546q-104 0 -173 60t-75 157h105q20 -108 143 -108q62 0 99.5 28.5t46.5 79.5h104q-6 -94 -74.5 -155.5t-175.5 -61.5zM131 0v1464h995v-121h-858v-526h787v-119h-787v-571h881v-127h-1018z" />
    <glyph glyph-name="ebreve" unicode="&#x115;" horiz-adv-x="1040" 
d="M545 -27q-155 0 -268 73t-169.5 197.5t-56.5 284.5q0 158 59 284t170 198.5t255 72.5q99 0 177.5 -32t130 -85.5t85 -128.5t48 -157t13.5 -174h-807q2 -91 25.5 -167t67 -134t113 -90.5t157.5 -32.5q241 0 309 237h123q-35 -161 -146 -253.5t-286 -92.5zM184 606h672
q-5 167 -85.5 270t-235.5 103q-154 0 -243.5 -103t-107.5 -270zM530 1219q-104 0 -172.5 62t-74.5 159h104q9 -52 45.5 -82.5t97.5 -30.5t99 31t47 82h104q-6 -95 -75 -158t-175 -63z" />
    <glyph glyph-name="Edotaccent" unicode="&#x116;" horiz-adv-x="1224" 
d="M590 1550v176h125v-176h-125zM131 0v1464h995v-121h-858v-526h787v-119h-787v-571h881v-127h-1018z" />
    <glyph glyph-name="edotaccent" unicode="&#x117;" horiz-adv-x="1040" 
d="M545 -27q-155 0 -268 73t-169.5 197.5t-56.5 284.5q0 158 59 284t170 198.5t255 72.5q99 0 177.5 -32t130 -85.5t85 -128.5t48 -157t13.5 -174h-807q2 -91 25.5 -167t67 -134t113 -90.5t157.5 -32.5q241 0 309 237h123q-35 -161 -146 -253.5t-286 -92.5zM184 606h672
q-5 167 -85.5 270t-235.5 103q-154 0 -243.5 -103t-107.5 -270zM469 1284v180h125v-180h-125z" />
    <glyph glyph-name="Eogonek" unicode="&#x118;" horiz-adv-x="1224" 
d="M965 -356q-92 0 -140.5 41t-48.5 110q0 61 41 114.5t103 90.5h-789v1464h995v-121h-858v-526h787v-119h-787v-571h881v-127h-98q-74 -53 -112 -97.5t-38 -92.5q0 -70 82 -70q49 0 92 18h6v-88q-50 -26 -116 -26z" />
    <glyph glyph-name="eogonek" unicode="&#x119;" horiz-adv-x="1040" 
d="M686 -356q-91 0 -139.5 41t-48.5 110q0 101 123 185q-40 -7 -76 -7q-155 0 -268 73t-169.5 197.5t-56.5 284.5q0 158 59 284t170 198.5t255 72.5q177 0 292 -106q165 -150 162 -471h-807q2 -91 25.5 -167t67 -134t113 -90.5t157.5 -32.5q241 0 309 237h123
q-21 -96 -67 -163t-117 -127q-87 -74 -128.5 -124t-41.5 -98q0 -69 82 -69q44 0 92 20h6v-90q-54 -24 -117 -24zM184 606h672q-5 167 -85.5 270t-235.5 103q-154 0 -243.5 -103t-107.5 -270z" />
    <glyph glyph-name="Ecaron" unicode="&#x11a;" horiz-adv-x="1224" 
d="M575 1544l-188 211h143l123 -137h4l123 137h140l-193 -211h-152zM131 0v1464h995v-121h-858v-526h787v-119h-787v-571h881v-127h-1018z" />
    <glyph glyph-name="ecaron" unicode="&#x11b;" horiz-adv-x="1040" 
d="M453 1221l-170 217h141l106 -146h5l108 146h135l-174 -217h-151zM545 -27q-155 0 -268 73t-169.5 197.5t-56.5 284.5q0 158 59 284t170 198.5t255 72.5q99 0 177.5 -32t130 -85.5t85 -128.5t48 -157t13.5 -174h-807q2 -91 25.5 -167t67 -134t113 -90.5t157.5 -32.5
q241 0 309 237h123q-35 -161 -146 -253.5t-286 -92.5zM184 606h672q-5 167 -85.5 270t-235.5 103q-154 0 -243.5 -103t-107.5 -270z" />
    <glyph glyph-name="Gcircumflex" unicode="&#x11c;" horiz-adv-x="1478" 
d="M745 -29q-209 0 -362.5 99t-231 270t-77.5 391q0 163 46.5 301.5t132.5 241.5t218 161t295 58q230 0 384 -117t193 -336h-141q-33 161 -149 247.5t-287 86.5q-110 0 -201.5 -33t-155 -91.5t-107.5 -139.5t-64.5 -176t-20.5 -203q0 -183 59 -325.5t181 -228t291 -85.5
q122 0 217 40t152 109t85.5 155t28.5 184v51h-471v121h606v-752h-96l-29 233h-6q-167 -262 -490 -262zM481 1544l193 211h151l189 -211h-144l-122 139h-5l-122 -139h-140z" />
    <glyph glyph-name="gcircumflex" unicode="&#x11d;" horiz-adv-x="1079" 
d="M285 1221l174 217h151l170 -217h-141l-107 145h-4l-108 -145h-135zM520 -371q-189 0 -299.5 77t-124.5 200h123q16 -88 95.5 -130t201.5 -42q165 0 248.5 80t83.5 223v168h-6q-61 -93 -140.5 -139t-195.5 -46q-207 0 -331 146.5t-124 382.5q0 125 36.5 227.5t99 168
t144.5 101t175 35.5q223 0 336 -186h6v164h125v-1018q0 -175 -99 -285q-121 -127 -354 -127zM512 127q172 0 258 113t86 311q0 194 -87 309t-255 115q-155 0 -243.5 -116t-88.5 -312q0 -189 84.5 -304.5t245.5 -115.5z" />
    <glyph glyph-name="Gbreve" unicode="&#x11e;" horiz-adv-x="1478" 
d="M748 1546q-104 0 -173 60t-75 157h104q9 -51 45.5 -79.5t98.5 -28.5t99 28.5t46 79.5h104q-6 -94 -74 -155.5t-175 -61.5zM745 -29q-209 0 -362.5 99t-231 270t-77.5 391q0 163 46.5 301.5t132.5 241.5t218 161t295 58q230 0 384 -117t193 -336h-141q-33 161 -149 247.5
t-287 86.5q-110 0 -201.5 -33t-155 -91.5t-107.5 -139.5t-64.5 -176t-20.5 -203q0 -183 59 -325.5t181 -228t291 -85.5q122 0 217 40t152 109t85.5 155t28.5 184v51h-471v121h606v-752h-96l-29 233h-6q-167 -262 -490 -262z" />
    <glyph glyph-name="gbreve" unicode="&#x11f;" horiz-adv-x="1079" 
d="M520 -371q-189 0 -299.5 77t-124.5 200h123q16 -88 95.5 -130t201.5 -42q165 0 248.5 80t83.5 223v168h-6q-61 -93 -140.5 -139t-195.5 -46q-207 0 -331 146.5t-124 382.5q0 125 36.5 227.5t99 168t144.5 101t175 35.5q223 0 336 -186h6v164h125v-1018q0 -175 -99 -285
q-121 -127 -354 -127zM512 127q172 0 258 113t86 311q0 194 -87 309t-255 115q-155 0 -243.5 -116t-88.5 -312q0 -189 84.5 -304.5t245.5 -115.5zM532 1219q-104 0 -172.5 62t-74.5 159h104q9 -52 45.5 -82.5t97.5 -30.5t99 31t47 82h104q-6 -95 -75 -158t-175 -63z" />
    <glyph glyph-name="Gdotaccent" unicode="&#x120;" horiz-adv-x="1478" 
d="M686 1550v176h125v-176h-125zM745 -29q-209 0 -362.5 99t-231 270t-77.5 391q0 163 46.5 301.5t132.5 241.5t218 161t295 58q230 0 384 -117t193 -336h-141q-33 161 -149 247.5t-287 86.5q-110 0 -201.5 -33t-155 -91.5t-107.5 -139.5t-64.5 -176t-20.5 -203
q0 -183 59 -325.5t181 -228t291 -85.5q122 0 217 40t152 109t85.5 155t28.5 184v51h-471v121h606v-752h-96l-29 233h-6q-167 -262 -490 -262z" />
    <glyph glyph-name="gdotaccent" unicode="&#x121;" horiz-adv-x="1079" 
d="M520 -371q-189 0 -299.5 77t-124.5 200h123q16 -88 95.5 -130t201.5 -42q165 0 248.5 80t83.5 223v168h-6q-61 -93 -140.5 -139t-195.5 -46q-207 0 -331 146.5t-124 382.5q0 125 36.5 227.5t99 168t144.5 101t175 35.5q223 0 336 -186h6v164h125v-1018q0 -175 -99 -285
q-121 -127 -354 -127zM512 127q172 0 258 113t86 311q0 194 -87 309t-255 115q-155 0 -243.5 -116t-88.5 -312q0 -189 84.5 -304.5t245.5 -115.5zM469 1284v180h125v-180h-125z" />
    <glyph glyph-name="Gcommaaccent" unicode="&#x122;" horiz-adv-x="1478" 
d="M676 -438v67q34 13 50.5 37t16.5 76v2h-63v162h141v-160q0 -161 -145 -184zM745 -29q-209 0 -362.5 99t-231 270t-77.5 391q0 163 46.5 301.5t132.5 241.5t218 161t295 58q230 0 384 -117t193 -336h-141q-33 161 -149 247.5t-287 86.5q-110 0 -201.5 -33t-155 -91.5
t-107.5 -139.5t-64.5 -176t-20.5 -203q0 -183 59 -325.5t181 -228t291 -85.5q122 0 217 40t152 109t85.5 155t28.5 184v51h-471v121h606v-752h-96l-29 233h-6q-167 -262 -490 -262z" />
    <glyph glyph-name="gcommaaccent" unicode="&#x123;" horiz-adv-x="1079" 
d="M453 1229v160q0 161 145 184v-68q-35 -14 -51.5 -37.5t-16.5 -74.5v-2h64v-162h-141zM520 -371q-189 0 -299.5 77t-124.5 200h123q16 -88 95.5 -130t201.5 -42q165 0 248.5 80t83.5 223v168h-6q-61 -93 -140.5 -139t-195.5 -46q-207 0 -331 146.5t-124 382.5
q0 125 36.5 227.5t99 168t144.5 101t175 35.5q223 0 336 -186h6v164h125v-1018q0 -175 -99 -285q-121 -127 -354 -127zM512 127q172 0 258 113t86 311q0 194 -87 309t-255 115q-155 0 -243.5 -116t-88.5 -312q0 -189 84.5 -304.5t245.5 -115.5z" />
    <glyph glyph-name="Hcircumflex" unicode="&#x124;" horiz-adv-x="1366" 
d="M131 0v1464h137v-633h830v633h137v-1464h-137v717h-830v-717h-137zM416 1544l192 211h152l188 -211h-143l-123 139h-4l-123 -139h-139z" />
    <glyph glyph-name="hcircumflex" unicode="&#x125;" horiz-adv-x="1034" 
d="M113 0v1464h127v-567h4q125 184 354 184q152 0 245 -86.5t93 -242.5v-752h-127v739q0 117 -63.5 175.5t-178.5 58.5q-137 0 -232 -86t-95 -215v-672h-127zM256 1544l193 211h151l188 -211h-143l-123 139h-4l-123 -139h-139z" />
    <glyph glyph-name="Hbar" unicode="&#x126;" horiz-adv-x="1366" 
d="M131 0v1057h-143v110h143v297h137v-297h830v297h137v-297h143v-110h-143v-1057h-137v717h-830v-717h-137zM268 831h830v226h-830v-226z" />
    <glyph glyph-name="hbar" unicode="&#x127;" horiz-adv-x="1034" 
d="M113 0v1196h-121v102h121v166h127v-166h266v-102h-266v-299h4q125 184 354 184q152 0 245 -86.5t93 -242.5v-752h-127v739q0 117 -63.5 175.5t-178.5 58.5q-137 0 -232 -86t-95 -215v-672h-127z" />
    <glyph glyph-name="Itilde" unicode="&#x128;" horiz-adv-x="413" 
d="M137 0v1464h137v-1464h-137zM332 1556q-49 0 -133.5 40t-108.5 40q-22 0 -38 -20t-19 -55h-101q7 87 47 132.5t105 45.5q52 0 130.5 -39t107.5 -39q56 0 63 74h98q-5 -83 -44.5 -131t-106.5 -48z" />
    <glyph glyph-name="itilde" unicode="&#x129;" horiz-adv-x="346" 
d="M111 0v1059h127v-1059h-127zM297 1229q-49 0 -133.5 40t-108.5 40q-22 0 -38 -20.5t-19 -55.5h-100q7 87 46.5 133.5t104.5 46.5q41 0 86.5 -20t85 -40t66.5 -20t43.5 20.5t19.5 55.5h99q-5 -84 -45 -132t-107 -48z" />
    <glyph glyph-name="Imacron" unicode="&#x12a;" horiz-adv-x="413" 
d="M137 0v1464h137v-1464h-137zM18 1561v110h377v-110h-377z" />
    <glyph glyph-name="imacron" unicode="&#x12b;" horiz-adv-x="346" 
d="M111 0v1059h127v-1059h-127zM-8 1284v115h360v-115h-360z" />
    <glyph glyph-name="Ibreve" unicode="&#x12c;" horiz-adv-x="413" 
d="M137 0v1464h137v-1464h-137zM207 1546q-104 0 -173 60t-75 157h104q9 -51 45.5 -79.5t98.5 -28.5t99 28.5t46 79.5h105q-6 -94 -74.5 -155.5t-175.5 -61.5z" />
    <glyph glyph-name="ibreve" unicode="&#x12d;" horiz-adv-x="346" 
d="M111 0v1059h127v-1059h-127zM172 1219q-104 0 -173 62t-75 159h105q9 -52 45.5 -82.5t97.5 -30.5t98.5 31t46.5 82h105q-6 -95 -75 -158t-175 -63z" />
    <glyph glyph-name="Iogonek" unicode="&#x12e;" horiz-adv-x="413" 
d="M195 -356q-91 0 -139 40.5t-48 110.5q0 61 40 115t99 92h-10v1462h137v-1460q-71 -54 -107 -100t-36 -94q0 -70 82 -70q47 0 90 18h6v-88q-50 -26 -114 -26z" />
    <glyph glyph-name="iogonek" unicode="&#x12f;" horiz-adv-x="346" 
d="M156 -356q-87 0 -135 41t-48 110q0 60 40 114.5t98 90.5v1059h127v-1059q-71 -54 -105.5 -98t-34.5 -92q0 -72 76 -72q40 0 88 20h6v-88q-50 -26 -112 -26zM111 1284v180h127v-180h-127z" />
    <glyph glyph-name="Idotaccent" unicode="&#x130;" horiz-adv-x="413" 
d="M137 0v1464h137v-1464h-137zM145 1550v176h125v-176h-125z" />
    <glyph glyph-name="dotlessi" unicode="&#x131;" horiz-adv-x="346" 
d="M111 0v1059h127v-1059h-127z" />
    <glyph glyph-name="IJ" unicode="&#x132;" horiz-adv-x="1355" 
d="M137 0v1464h137v-1464h-137zM842 -27q-199 0 -306.5 107.5t-107.5 327.5v55h135v-49q0 -175 69.5 -249.5t213.5 -74.5q252 0 252 270v1104h137v-1114q0 -169 -100.5 -273t-292.5 -104z" />
    <glyph glyph-name="ij" unicode="&#x133;" horiz-adv-x="694" 
d="M111 0v1059h127v-1059h-127zM111 1284v180h127v-180h-127zM305 -322v107h2q8 -2 35 -2q59 0 87 28.5t28 92.5v1155h127v-1161q0 -122 -57.5 -172t-168.5 -50q-43 0 -53 2zM457 1284v180h127v-180h-127z" />
    <glyph glyph-name="Jcircumflex" unicode="&#x134;" horiz-adv-x="972" 
d="M459 -27q-199 0 -306.5 107.5t-107.5 327.5v55h135v-49q0 -175 69.5 -249.5t213.5 -74.5q252 0 252 270v1104h137v-1114q0 -169 -100.5 -273t-292.5 -104zM516 1544l193 211h151l189 -211h-144l-123 139h-4l-123 -139h-139z" />
    <glyph glyph-name="jcircumflex" unicode="&#x135;" horiz-adv-x="346" 
d="M-41 -322v107h2q8 -2 35 -2q59 0 87 28.5t28 92.5v1155h127v-1161q0 -122 -57.5 -172t-168.5 -50q-43 0 -53 2zM-45 1221l143 217h152l139 -217h-131l-84 141h-4l-88 -141h-127z" />
    <glyph glyph-name="Kcommaaccent" unicode="&#x136;" horiz-adv-x="1280" 
d="M555 -438v67q35 13 51.5 37t16.5 76v2h-64v162h141v-160q0 -161 -145 -184zM131 0v1464h137v-780l791 780h178l-612 -596l649 -868h-164l-580 774l-262 -258v-516h-137z" />
    <glyph glyph-name="kcommaaccent" unicode="&#x137;" horiz-adv-x="974" 
d="M416 -438v67q34 13 50.5 37t16.5 76v2h-63v162h141v-160q0 -161 -145 -184zM106 0v1464h127v-915l527 510h162l-406 -383l455 -676h-148l-395 594l-195 -186v-408h-127z" />
    <glyph glyph-name="kgreenlandic" unicode="&#x138;" horiz-adv-x="974" 
d="M106 0v1059h127v-510l527 510h162l-406 -383l455 -676h-148l-395 594l-195 -186v-408h-127z" />
    <glyph glyph-name="Lacute" unicode="&#x139;" horiz-adv-x="1097" 
d="M145 1542l136 234h168l-193 -234h-111zM131 0v1464h137v-1337h781v-127h-918z" />
    <glyph glyph-name="lacute" unicode="&#x13a;" horiz-adv-x="352" 
d="M121 1542l135 234h168l-193 -234h-110zM113 0v1464h127v-1464h-127z" />
    <glyph glyph-name="Lcommaaccent" unicode="&#x13b;" horiz-adv-x="1097" 
d="M508 -438v67q34 13 50.5 37t16.5 76v2h-63v162h141v-160q0 -161 -145 -184zM131 0v1464h137v-1337h781v-127h-918z" />
    <glyph glyph-name="lcommaaccent" unicode="&#x13c;" horiz-adv-x="352" 
d="M102 -438v67q35 13 51.5 37t16.5 76v2h-64v162h142v-160q0 -161 -146 -184zM113 0v1464h127v-1464h-127z" />
    <glyph glyph-name="Lcaron" unicode="&#x13d;" horiz-adv-x="1097" 
d="M582 1130v68q35 13 51 36.5t16 70.5v4h-65v155h143v-155q0 -156 -145 -179zM131 0v1464h137v-1337h781v-127h-918z" />
    <glyph glyph-name="lcaron" unicode="&#x13e;" horiz-adv-x="352" 
d="M324 1130v68q35 13 51 36.5t16 70.5v4h-65v155h143v-155q0 -156 -145 -179zM113 0v1464h127v-1464h-127z" />
    <glyph glyph-name="Ldot" unicode="&#x13f;" horiz-adv-x="1097" 
d="M131 0v1464h137v-1337h781v-127h-918zM715 571v179h155v-179h-155z" />
    <glyph glyph-name="ldot" unicode="&#x140;" horiz-adv-x="532" 
d="M113 0v1464h127v-1464h-127zM360 571v179h156v-179h-156z" />
    <glyph glyph-name="Lslash" unicode="&#x141;" horiz-adv-x="1122" 
d="M156 0v502l-166 -88v123l166 88v839h137v-766l536 287v-123l-536 -287v-448h780v-127h-917z" />
    <glyph glyph-name="lslash" unicode="&#x142;" horiz-adv-x="425" 
d="M150 0v672l-140 -117v129l140 115v665h126v-559l156 131v-129l-156 -131v-776h-126z" />
    <glyph glyph-name="Nacute" unicode="&#x143;" horiz-adv-x="1366" 
d="M647 1542l135 234h168l-192 -234h-111zM131 0v1464h150l673 -1028q33 -49 69.5 -109.5t56.5 -96.5l20 -35h4v1269h131v-1464h-143l-672 1016q-30 45 -68.5 107t-61.5 101l-24 40h-4v-1264h-131z" />
    <glyph glyph-name="nacute" unicode="&#x144;" horiz-adv-x="1028" 
d="M444 1212l136 261h168l-193 -261h-111zM106 0v1059h127v-162h5q125 184 354 184q152 0 245 -86.5t93 -242.5v-752h-127v739q0 117 -63.5 175.5t-178.5 58.5q-137 0 -232.5 -86t-95.5 -215v-672h-127z" />
    <glyph glyph-name="Ncommaaccent" unicode="&#x145;" horiz-adv-x="1366" 
d="M580 -438v67q34 13 50.5 37t16.5 76v2h-63v162h141v-160q0 -161 -145 -184zM131 0v1464h150l673 -1028q33 -49 69.5 -109.5t56.5 -96.5l20 -35h4v1269h131v-1464h-143l-672 1016q-30 45 -68.5 107t-61.5 101l-24 40h-4v-1264h-131z" />
    <glyph glyph-name="ncommaaccent" unicode="&#x146;" horiz-adv-x="1028" 
d="M449 -438v67q34 13 50.5 37t16.5 76v2h-63v162h141v-160q0 -161 -145 -184zM106 0v1059h127v-162h5q125 184 354 184q152 0 245 -86.5t93 -242.5v-752h-127v739q0 117 -63.5 175.5t-178.5 58.5q-137 0 -232.5 -86t-95.5 -215v-672h-127z" />
    <glyph glyph-name="Ncaron" unicode="&#x147;" horiz-adv-x="1366" 
d="M639 1544l-188 211h143l123 -137h4l123 137h139l-192 -211h-152zM131 0v1464h150l673 -1028q33 -49 69.5 -109.5t56.5 -96.5l20 -35h4v1269h131v-1464h-143l-672 1016q-30 45 -68.5 107t-61.5 101l-24 40h-4v-1264h-131z" />
    <glyph glyph-name="ncaron" unicode="&#x148;" horiz-adv-x="1028" 
d="M442 1221l-170 217h142l106 -146h4l109 146h135l-174 -217h-152zM106 0v1059h127v-162h5q125 184 354 184q152 0 245 -86.5t93 -242.5v-752h-127v739q0 117 -63.5 175.5t-178.5 58.5q-137 0 -232.5 -86t-95.5 -215v-672h-127z" />
    <glyph glyph-name="napostrophe" unicode="&#x149;" horiz-adv-x="1028" 
d="M106 0v1059h127v-162h5q125 184 354 184q152 0 245 -86.5t93 -242.5v-752h-127v739q0 117 -63.5 175.5t-178.5 58.5q-137 0 -232.5 -86t-95.5 -215v-672h-127zM-14 1130v68q35 13 51 36.5t16 70.5v4h-63v155h141v-155q0 -156 -145 -179z" />
    <glyph glyph-name="Eng" unicode="&#x14a;" horiz-adv-x="1366" 
d="M1098 -10l-678 1026q-30 45 -68.5 107t-61.5 101l-24 40h-4v-1264h-131v1464h150l673 -1028q33 -49 69.5 -109.5t56.5 -96.5l20 -35h4v1269h131v-1470q0 -76 -23 -140.5t-69.5 -115.5t-123.5 -80t-177 -29q-62 0 -107 11v116q45 -10 94 -10q126 0 197 62t72 182z" />
    <glyph glyph-name="eng" unicode="&#x14b;" horiz-adv-x="1028" 
d="M803 -96v835q0 117 -63.5 175.5t-178.5 58.5q-137 0 -232.5 -86t-95.5 -215v-672h-127v1059h127v-162h5q125 184 354 184q152 0 245 -86.5t93 -242.5v-854q0 -122 -57.5 -172t-167.5 -50q-44 0 -54 2v107h2q8 -2 35 -2q59 0 87 28.5t28 92.5z" />
    <glyph glyph-name="Omacron" unicode="&#x14c;" horiz-adv-x="1511" 
d="M502 1559v114h508v-114h-508zM754 94q129 0 232.5 50t170 137t102 202.5t35.5 249.5t-35.5 249.5t-102 202.5t-170 137t-232.5 50q-128 0 -231 -50t-169.5 -137t-101.5 -202.5t-35 -249.5t35 -249.5t101.5 -202.5t169.5 -137t231 -50zM754 -29q-152 0 -280 58
t-215.5 159.5t-136 242t-48.5 302.5t48.5 302.5t136 242t215.5 159.5t280 58q204 0 360.5 -99.5t240 -272.5t83.5 -390t-83.5 -390t-240 -272.5t-360.5 -99.5z" />
    <glyph glyph-name="omacron" unicode="&#x14d;" horiz-adv-x="1083" 
d="M287 1284v115h508v-115h-508zM543 80q170 0 264 126.5t94 321.5t-94 322t-264 127q-115 0 -198.5 -61t-123 -161.5t-39.5 -226.5t39.5 -226t123 -161t198.5 -61zM543 -27q-149 0 -262 73t-171.5 198.5t-58.5 283.5t58.5 283.5t171.5 198.5t262 73t260.5 -73.5t169 -198.5
t57.5 -283t-57.5 -283t-169 -198.5t-260.5 -73.5z" />
    <glyph glyph-name="Obreve" unicode="&#x14e;" horiz-adv-x="1511" 
d="M754 1546q-104 0 -173 60t-75 157h104q9 -51 45.5 -79.5t98.5 -28.5t99 28.5t46 79.5h105q-6 -94 -74.5 -155.5t-175.5 -61.5zM754 94q129 0 232.5 50t170 137t102 202.5t35.5 249.5t-35.5 249.5t-102 202.5t-170 137t-232.5 50q-128 0 -231 -50t-169.5 -137
t-101.5 -202.5t-35 -249.5t35 -249.5t101.5 -202.5t169.5 -137t231 -50zM754 -29q-152 0 -280 58t-215.5 159.5t-136 242t-48.5 302.5t48.5 302.5t136 242t215.5 159.5t280 58q204 0 360.5 -99.5t240 -272.5t83.5 -390t-83.5 -390t-240 -272.5t-360.5 -99.5z" />
    <glyph glyph-name="obreve" unicode="&#x14f;" horiz-adv-x="1083" 
d="M543 80q170 0 264 126.5t94 321.5t-94 322t-264 127q-115 0 -198.5 -61t-123 -161.5t-39.5 -226.5t39.5 -226t123 -161t198.5 -61zM543 -27q-149 0 -262 73t-171.5 198.5t-58.5 283.5t58.5 283.5t171.5 198.5t262 73t260.5 -73.5t169 -198.5t57.5 -283t-57.5 -283
t-169 -198.5t-260.5 -73.5zM539 1219q-104 0 -173 62t-75 159h104q9 -52 46 -82.5t98 -30.5t98.5 31t46.5 82h104q-6 -95 -74.5 -158t-174.5 -63z" />
    <glyph glyph-name="Ohungarumlaut" unicode="&#x150;" horiz-adv-x="1511" 
d="M754 94q129 0 232.5 50t170 137t102 202.5t35.5 249.5t-35.5 249.5t-102 202.5t-170 137t-232.5 50q-128 0 -231 -50t-169.5 -137t-101.5 -202.5t-35 -249.5t35 -249.5t101.5 -202.5t169.5 -137t231 -50zM754 -29q-152 0 -280 58t-215.5 159.5t-136 242t-48.5 302.5
t48.5 302.5t136 242t215.5 159.5t280 58q204 0 360.5 -99.5t240 -272.5t83.5 -390t-83.5 -390t-240 -272.5t-360.5 -99.5zM573 1542l76 240h139l-112 -240h-103zM840 1542l73 240h142l-113 -240h-102z" />
    <glyph glyph-name="ohungarumlaut" unicode="&#x151;" horiz-adv-x="1083" 
d="M358 1212l76 261h139l-112 -261h-103zM625 1212l73 261h142l-113 -261h-102zM543 80q170 0 264 126.5t94 321.5t-94 322t-264 127q-115 0 -198.5 -61t-123 -161.5t-39.5 -226.5t39.5 -226t123 -161t198.5 -61zM543 -27q-149 0 -262 73t-171.5 198.5t-58.5 283.5
t58.5 283.5t171.5 198.5t262 73t260.5 -73.5t169 -198.5t57.5 -283t-57.5 -283t-169 -198.5t-260.5 -73.5z" />
    <glyph glyph-name="OE" unicode="&#x152;" horiz-adv-x="2224" 
d="M737 -29q-195 0 -347 99.5t-234 272.5t-82 390q0 216 83 389.5t235 273t345 99.5q147 0 260 -62.5t185 -175.5v207h946v-121h-809v-526h747v-119h-747v-571h831v-127h-968v197q-152 -226 -445 -226zM737 94q184 0 314.5 114t130.5 290v487q-7 167 -136 277t-309 110
q-163 0 -282.5 -86.5t-178.5 -229.5t-59 -323t58.5 -323t178 -229.5t283.5 -86.5z" />
    <glyph glyph-name="oe" unicode="&#x153;" horiz-adv-x="1814" 
d="M522 -27q-145 0 -253 73.5t-163 198.5t-55 283t55 283t163 198.5t253 73.5q142 0 244 -72.5t156 -199.5q52 128 154 200t245 72q161 0 270 -92q174 -148 174 -485h-782q2 -91 23.5 -167t63.5 -134t109.5 -90.5t155.5 -32.5q229 0 295 237h121q-32 -159 -140 -252.5
t-276 -93.5q-153 0 -256.5 71.5t-156.5 201.5q-54 -129 -155.5 -201t-244.5 -72zM522 80q108 0 186 61t115 161t37 226q0 127 -37 227t-115 161t-186 61q-162 0 -251 -127t-89 -322t89 -321.5t251 -126.5zM981 606h651q-5 167 -81.5 270t-227.5 103t-237.5 -102.5
t-104.5 -270.5z" />
    <glyph glyph-name="Racute" unicode="&#x154;" horiz-adv-x="1292" 
d="M131 0v1464h653q197 0 306.5 -105.5t109.5 -289.5q0 -274 -246 -352v-6q111 -37 157 -125.5t54 -263.5q12 -279 64 -314v-8h-148q-25 17 -34.5 78t-18.5 250q-9 186 -79 255.5t-234 69.5h-447v-653h-137zM268 770h469q158 0 240 74.5t82 212.5q0 142 -71 214t-232 72
h-488v-573zM563 1542l135 234h168l-192 -234h-111z" />
    <glyph glyph-name="racute" unicode="&#x155;" horiz-adv-x="630" 
d="M291 1212l135 261h168l-193 -261h-110zM106 0v1059h127v-197h5q51 96 133.5 150.5t189.5 54.5q19 0 35 -4v-125q-126 20 -225 -51q-64 -48 -101 -121t-37 -164v-602h-127z" />
    <glyph glyph-name="Rcommaaccent" unicode="&#x156;" horiz-adv-x="1292" 
d="M578 -438v67q34 13 50.5 37t16.5 76v2h-63v162h141v-160q0 -161 -145 -184zM131 0v1464h653q197 0 306.5 -105.5t109.5 -289.5q0 -274 -246 -352v-6q111 -37 157 -125.5t54 -263.5q12 -279 64 -314v-8h-148q-25 17 -34.5 78t-18.5 250q-9 186 -79 255.5t-234 69.5h-447
v-653h-137zM268 770h469q158 0 240 74.5t82 212.5q0 142 -71 214t-232 72h-488v-573z" />
    <glyph glyph-name="rcommaaccent" unicode="&#x157;" horiz-adv-x="630" 
d="M94 -438v67q35 13 51.5 37t16.5 76v2h-64v162h142v-160q0 -161 -146 -184zM106 0v1059h127v-197h5q51 96 133.5 150.5t189.5 54.5q19 0 35 -4v-125q-126 20 -225 -51q-64 -48 -101 -121t-37 -164v-602h-127z" />
    <glyph glyph-name="Rcaron" unicode="&#x158;" horiz-adv-x="1292" 
d="M557 1544l-188 211h143l123 -137h4l123 137h139l-192 -211h-152zM131 0v1464h653q197 0 306.5 -105.5t109.5 -289.5q0 -274 -246 -352v-6q111 -37 157 -125.5t54 -263.5q12 -279 64 -314v-8h-148q-25 17 -34.5 78t-18.5 250q-9 186 -79 255.5t-234 69.5h-447v-653h-137z
M268 770h469q158 0 240 74.5t82 212.5q0 142 -71 214t-232 72h-488v-573z" />
    <glyph glyph-name="rcaron" unicode="&#x159;" horiz-adv-x="630" 
d="M289 1221l-170 217h141l107 -146h4l108 146h135l-174 -217h-151zM106 0v1059h127v-197h5q51 96 133.5 150.5t189.5 54.5q19 0 35 -4v-125q-126 20 -225 -51q-64 -48 -101 -121t-37 -164v-602h-127z" />
    <glyph glyph-name="Sacute" unicode="&#x15a;" horiz-adv-x="1226" 
d="M639 -27q-141 0 -252 38t-183 106.5t-111.5 158.5t-45.5 199h137q10 -185 130.5 -286t326.5 -101q166 0 270.5 81t104.5 226q0 44 -9 79.5t-25 63.5t-45.5 50.5t-62 39.5t-83.5 32.5t-102 27.5t-124 27q-88 17 -152.5 36.5t-125.5 50.5t-99 71t-61 99t-23 134
q0 174 135 280.5t355 106.5q236 0 365.5 -115t150.5 -313h-133q-18 152 -119.5 232.5t-261.5 80.5q-166 0 -262 -73t-96 -195q0 -52 17 -91t46.5 -67t81.5 -50t109.5 -37t142.5 -31q69 -13 119 -25t108 -31t98 -41t79.5 -54t63 -71.5t38 -93t14.5 -117.5q0 -194 -142.5 -311
t-373.5 -117zM528 1542l136 234h167l-192 -234h-111z" />
    <glyph glyph-name="sacute" unicode="&#x15b;" horiz-adv-x="923" 
d="M387 1212l135 261h168l-192 -261h-111zM477 -29q-204 0 -316.5 99t-121.5 260h129q13 -128 95 -189t216 -61q129 0 199 55.5t70 149.5q0 86 -58 126t-225 78q-63 14 -104.5 25.5t-90.5 29.5t-80 39.5t-58.5 51.5t-40.5 70t-13 90q0 131 102 208.5t266 77.5
q181 0 277.5 -83t116.5 -230h-127q-10 102 -79 155.5t-188 53.5q-118 0 -179.5 -49t-61.5 -127q0 -36 13.5 -63t33.5 -45t63 -34.5t82.5 -27t110.5 -27.5q60 -13 101.5 -24.5t87 -29t75 -40t54.5 -53.5t36.5 -73.5t11.5 -96.5q0 -142 -107 -229t-290 -87z" />
    <glyph glyph-name="Scircumflex" unicode="&#x15c;" horiz-adv-x="1226" 
d="M639 -27q-141 0 -252 38t-183 106.5t-111.5 158.5t-45.5 199h137q10 -185 130.5 -286t326.5 -101q166 0 270.5 81t104.5 226q0 44 -9 79.5t-25 63.5t-45.5 50.5t-62 39.5t-83.5 32.5t-102 27.5t-124 27q-88 17 -152.5 36.5t-125.5 50.5t-99 71t-61 99t-23 134
q0 174 135 280.5t355 106.5q236 0 365.5 -115t150.5 -313h-133q-18 152 -119.5 232.5t-261.5 80.5q-166 0 -262 -73t-96 -195q0 -52 17 -91t46.5 -67t81.5 -50t109.5 -37t142.5 -31q69 -13 119 -25t108 -31t98 -41t79.5 -54t63 -71.5t38 -93t14.5 -117.5q0 -194 -142.5 -311
t-373.5 -117zM332 1544l192 211h152l188 -211h-143l-123 139h-4l-123 -139h-139z" />
    <glyph glyph-name="scircumflex" unicode="&#x15d;" horiz-adv-x="923" 
d="M215 1221l174 217h152l170 -217h-142l-106 145h-4l-109 -145h-135zM477 -29q-204 0 -316.5 99t-121.5 260h129q13 -128 95 -189t216 -61q129 0 199 55.5t70 149.5q0 86 -58 126t-225 78q-63 14 -104.5 25.5t-90.5 29.5t-80 39.5t-58.5 51.5t-40.5 70t-13 90
q0 131 102 208.5t266 77.5q181 0 277.5 -83t116.5 -230h-127q-10 102 -79 155.5t-188 53.5q-118 0 -179.5 -49t-61.5 -127q0 -36 13.5 -63t33.5 -45t63 -34.5t82.5 -27t110.5 -27.5q60 -13 101.5 -24.5t87 -29t75 -40t54.5 -53.5t36.5 -73.5t11.5 -96.5q0 -142 -107 -229
t-290 -87z" />
    <glyph glyph-name="Scedilla" unicode="&#x15e;" horiz-adv-x="1226" 
d="M553 -383q-116 0 -199 51l31 56q69 -29 141 -29q54 0 85.5 19t31.5 53q0 57 -84 57q-42 0 -82 -14l-28 47l120 120q-245 17 -378 152.5t-144 345.5h137q10 -185 130.5 -286t326.5 -101q166 0 270.5 81t104.5 226q0 44 -9 79.5t-25 63.5t-45.5 50.5t-62 39.5t-83.5 32.5
t-102 27.5t-124 27q-88 17 -152.5 36.5t-125.5 50.5t-99 71t-61 99t-23 134q0 174 135 280.5t355 106.5q236 0 365.5 -115t150.5 -313h-133q-18 152 -119.5 232.5t-261.5 80.5q-166 0 -262 -73t-96 -195q0 -52 17 -91t46.5 -67t81.5 -50t109.5 -37t142.5 -31q69 -13 119 -25
t108 -31t98 -41t79.5 -54t63 -71.5t38 -93t14.5 -117.5q0 -188 -133.5 -304t-353.5 -124l-86 -75v-4q70 6 122 -27t52 -100q0 -71 -56 -110.5t-147 -39.5z" />
    <glyph glyph-name="scedilla" unicode="&#x15f;" horiz-adv-x="923" 
d="M414 -383q-116 0 -199 51l31 56q69 -29 141 -29q54 0 85.5 19t31.5 53q0 57 -84 57q-42 0 -82 -14l-29 47l117 116q-180 12 -279.5 109.5t-107.5 247.5h129q13 -128 95 -189t216 -61q129 0 199 55.5t70 149.5q0 86 -58 126t-225 78q-63 14 -104.5 25.5t-90.5 29.5
t-80 39.5t-58.5 51.5t-40.5 70t-13 90q0 131 102 208.5t266 77.5q181 0 277.5 -83t116.5 -230h-127q-10 102 -79 155.5t-188 53.5q-118 0 -179.5 -49t-61.5 -127q0 -36 13.5 -63t33.5 -45t63 -34.5t82.5 -27t110.5 -27.5q60 -13 101.5 -24.5t87 -29t75 -40t54.5 -53.5
t36.5 -73.5t11.5 -96.5q0 -133 -92.5 -217.5t-253.5 -96.5l-86 -75v-4q70 6 122 -27t52 -100q0 -71 -55.5 -110.5t-146.5 -39.5z" />
    <glyph glyph-name="Scaron" unicode="&#x160;" horiz-adv-x="1226" 
d="M639 -27q-141 0 -252 38t-183 106.5t-111.5 158.5t-45.5 199h137q10 -185 130.5 -286t326.5 -101q166 0 270.5 81t104.5 226q0 44 -9 79.5t-25 63.5t-45.5 50.5t-62 39.5t-83.5 32.5t-102 27.5t-124 27q-88 17 -152.5 36.5t-125.5 50.5t-99 71t-61 99t-23 134
q0 174 135 280.5t355 106.5q236 0 365.5 -115t150.5 -313h-133q-18 152 -119.5 232.5t-261.5 80.5q-166 0 -262 -73t-96 -195q0 -52 17 -91t46.5 -67t81.5 -50t109.5 -37t142.5 -31q69 -13 119 -25t108 -31t98 -41t79.5 -54t63 -71.5t38 -93t14.5 -117.5q0 -194 -142.5 -311
t-373.5 -117zM520 1544l-188 211h143l123 -137h4l123 137h139l-192 -211h-152z" />
    <glyph glyph-name="scaron" unicode="&#x161;" horiz-adv-x="923" 
d="M385 1221l-170 217h141l107 -146h4l108 146h136l-174 -217h-152zM477 -29q-204 0 -316.5 99t-121.5 260h129q13 -128 95 -189t216 -61q129 0 199 55.5t70 149.5q0 86 -58 126t-225 78q-63 14 -104.5 25.5t-90.5 29.5t-80 39.5t-58.5 51.5t-40.5 70t-13 90
q0 131 102 208.5t266 77.5q181 0 277.5 -83t116.5 -230h-127q-10 102 -79 155.5t-188 53.5q-118 0 -179.5 -49t-61.5 -127q0 -36 13.5 -63t33.5 -45t63 -34.5t82.5 -27t110.5 -27.5q60 -13 101.5 -24.5t87 -29t75 -40t54.5 -53.5t36.5 -73.5t11.5 -96.5q0 -142 -107 -229
t-290 -87z" />
    <glyph glyph-name="uni0162" unicode="&#x162;" horiz-adv-x="1204" 
d="M528 -438v67q35 13 51.5 37t16.5 76v2h-64v162h142v-160q0 -161 -146 -184zM535 0v1341h-496v123h1126v-123h-493v-1341h-137z" />
    <glyph glyph-name="uni0163" unicode="&#x163;" horiz-adv-x="577" 
d="M397 -8q-95 0 -148.5 46.5t-53.5 143.5v772h-160v105h160v325h127v-325h196v-105h-196v-751q0 -55 24.5 -78t77.5 -23q46 0 84 17h6v-109q-52 -18 -117 -18zM254 -438v67q35 13 51.5 37t16.5 76v2h-64v162h141v-160q0 -161 -145 -184z" />
    <glyph glyph-name="Tcaron" unicode="&#x164;" horiz-adv-x="1204" 
d="M524 1544l-188 211h143l123 -137h4l123 137h139l-192 -211h-152zM535 0v1341h-496v123h1126v-123h-493v-1341h-137z" />
    <glyph glyph-name="tcaron" unicode="&#x165;" horiz-adv-x="577" 
d="M397 -8q-95 0 -148.5 46.5t-53.5 143.5v772h-160v105h160v325h127v-325h196v-105h-196v-751q0 -55 24.5 -78t77.5 -23q46 0 84 17h6v-109q-52 -18 -117 -18zM440 1145v67q68 22 68 103h-66v149h142v-149q0 -74 -37.5 -117.5t-106.5 -52.5z" />
    <glyph glyph-name="Tbar" unicode="&#x166;" horiz-adv-x="1204" 
d="M535 0v729h-289v109h289v503h-496v123h1126v-123h-493v-503h286v-109h-286v-729h-137z" />
    <glyph glyph-name="tbar" unicode="&#x167;" horiz-adv-x="577" 
d="M397 -8q-95 0 -148.5 46.5t-53.5 143.5v443h-160v104h160v225h-160v105h160v325h127v-325h196v-105h-196v-225h196v-104h-196v-422q0 -55 24.5 -78t77.5 -23q46 0 84 17h6v-109q-52 -18 -117 -18z" />
    <glyph glyph-name="Utilde" unicode="&#x168;" horiz-adv-x="1302" 
d="M776 1556q-49 0 -133 40t-108 40q-22 0 -38.5 -20.5t-19.5 -54.5h-100q7 87 46.5 132.5t104.5 45.5q52 0 130.5 -39t107.5 -39q56 0 63 74h99q-5 -83 -45 -131t-107 -48zM647 -23q-248 0 -390 122t-142 366v999h137v-987q0 -198 102 -289.5t299 -91.5q191 0 295.5 92.5
t104.5 288.5v987h137v-999q0 -125 -40 -219.5t-113 -152.5t-171 -87t-219 -29z" />
    <glyph glyph-name="utilde" unicode="&#x169;" horiz-adv-x="1013" 
d="M446 -25q-157 0 -252.5 89.5t-95.5 246.5v748h127v-740q0 -117 66 -177t184 -60q134 0 220.5 89.5t86.5 225.5v662h125v-1059h-125v156h-4q-63 -87 -139.5 -134t-192.5 -47zM635 1229q-49 0 -133.5 40t-108.5 40q-22 0 -38 -20.5t-19 -55.5h-100q7 87 46.5 133.5
t104.5 46.5q41 0 86.5 -20t85 -40t66.5 -20t43.5 20.5t19.5 55.5h98q-5 -84 -44.5 -132t-106.5 -48z" />
    <glyph glyph-name="Umacron" unicode="&#x16a;" horiz-adv-x="1302" 
d="M397 1559v114h508v-114h-508zM647 -23q-248 0 -390 122t-142 366v999h137v-987q0 -198 102 -289.5t299 -91.5q191 0 295.5 92.5t104.5 288.5v987h137v-999q0 -125 -40 -219.5t-113 -152.5t-171 -87t-219 -29z" />
    <glyph glyph-name="umacron" unicode="&#x16b;" horiz-adv-x="1013" 
d="M446 -25q-157 0 -252.5 89.5t-95.5 246.5v748h127v-740q0 -117 66 -177t184 -60q134 0 220.5 89.5t86.5 225.5v662h125v-1059h-125v156h-4q-63 -87 -139.5 -134t-192.5 -47zM256 1284v115h508v-115h-508z" />
    <glyph glyph-name="Ubreve" unicode="&#x16c;" horiz-adv-x="1302" 
d="M649 1546q-104 0 -173 60t-75 157h105q20 -108 143 -108q62 0 99.5 28.5t46.5 79.5h104q-6 -94 -74.5 -155.5t-175.5 -61.5zM647 -23q-248 0 -390 122t-142 366v999h137v-987q0 -198 102 -289.5t299 -91.5q191 0 295.5 92.5t104.5 288.5v987h137v-999q0 -125 -40 -219.5
t-113 -152.5t-171 -87t-219 -29z" />
    <glyph glyph-name="ubreve" unicode="&#x16d;" horiz-adv-x="1013" 
d="M446 -25q-157 0 -252.5 89.5t-95.5 246.5v748h127v-740q0 -117 66 -177t184 -60q134 0 220.5 89.5t86.5 225.5v662h125v-1059h-125v156h-4q-63 -87 -139.5 -134t-192.5 -47zM510 1219q-104 0 -173 62t-75 159h105q9 -52 45.5 -82.5t97.5 -30.5t98.5 31t46.5 82h105
q-6 -95 -75 -158t-175 -63z" />
    <glyph glyph-name="Uring" unicode="&#x16e;" horiz-adv-x="1302" 
d="M647 -23q-248 0 -390 122t-142 366v999h137v-987q0 -198 102 -289.5t299 -91.5q191 0 295.5 92.5t104.5 288.5v987h137v-999q0 -125 -40 -219.5t-113 -152.5t-171 -87t-219 -29zM651 1567q44 0 71.5 30.5t27.5 75.5q0 44 -28 74.5t-71 30.5t-70.5 -30.5t-27.5 -74.5
q0 -45 27.5 -75.5t70.5 -30.5zM651 1499q-74 0 -126 51t-52 123t52 123t126 51t126 -51t52 -123t-52 -123t-126 -51z" />
    <glyph glyph-name="uring" unicode="&#x16f;" horiz-adv-x="1013" 
d="M510 1235q43 0 70.5 30t27.5 74q0 45 -27 75t-71 30t-71 -30t-27 -75q0 -44 27.5 -74t70.5 -30zM510 1165q-74 0 -126 51t-52 123t52 123t126 51t126 -51t52 -123t-52 -123t-126 -51zM446 -25q-157 0 -252.5 89.5t-95.5 246.5v748h127v-740q0 -117 66 -177t184 -60
q134 0 220.5 89.5t86.5 225.5v662h125v-1059h-125v156h-4q-63 -87 -139.5 -134t-192.5 -47z" />
    <glyph glyph-name="Uhungarumlaut" unicode="&#x170;" horiz-adv-x="1302" 
d="M647 -23q-248 0 -390 122t-142 366v999h137v-987q0 -198 102 -289.5t299 -91.5q191 0 295.5 92.5t104.5 288.5v987h137v-999q0 -125 -40 -219.5t-113 -152.5t-171 -87t-219 -29zM469 1542l76 240h139l-113 -240h-102zM735 1542l74 240h141l-112 -240h-103z" />
    <glyph glyph-name="uhungarumlaut" unicode="&#x171;" horiz-adv-x="1013" 
d="M446 -25q-157 0 -252.5 89.5t-95.5 246.5v748h127v-740q0 -117 66 -177t184 -60q134 0 220.5 89.5t86.5 225.5v662h125v-1059h-125v156h-4q-63 -87 -139.5 -134t-192.5 -47zM326 1212l75 261h140l-113 -261h-102zM592 1212l74 261h141l-113 -261h-102z" />
    <glyph glyph-name="Uogonek" unicode="&#x172;" horiz-adv-x="1302" 
d="M743 -356q-91 0 -138.5 40.5t-47.5 110.5q0 52 32 99t81 83h-23q-248 0 -390 122t-142 366v999h137v-987q0 -198 102 -289.5t299 -91.5q191 0 295.5 92.5t104.5 288.5v987h137v-999q0 -315 -264 -436q-15 -8 -56 -26.5t-65.5 -31.5t-44.5 -30q-80 -64 -80 -131
q0 -70 84 -70q50 0 90 18h6v-88q-50 -26 -117 -26z" />
    <glyph glyph-name="uogonek" unicode="&#x173;" horiz-adv-x="1013" 
d="M815 -356q-91 0 -138.5 40.5t-47.5 110.5q0 62 44 116.5t109 92.5v152h-4q-63 -87 -139.5 -134t-192.5 -47q-157 0 -252.5 89.5t-95.5 246.5v748h127v-740q0 -117 66 -177t184 -60q134 0 220.5 89.5t86.5 225.5v662h125v-1055q-76 -53 -114.5 -99.5t-38.5 -94.5
q0 -72 82 -72q42 0 90 20h6v-88q-50 -26 -117 -26z" />
    <glyph glyph-name="Wcircumflex" unicode="&#x174;" horiz-adv-x="1802" 
d="M414 0l-389 1464h141l254 -987q13 -48 29.5 -120.5t26.5 -120.5l11 -48h5q40 177 69 281l268 995h148l268 -993l68 -283h4q40 180 67 289l256 987h138l-398 -1464h-139l-278 1067q-12 41 -26.5 100.5t-22.5 98.5l-9 39h-4q-30 -144 -55 -238l-287 -1067h-145zM633 1544
l192 211h152l188 -211h-143l-123 139h-4l-123 -139h-139z" />
    <glyph glyph-name="wcircumflex" unicode="&#x175;" horiz-adv-x="1456" 
d="M477 1221l174 217h152l170 -217h-142l-106 145h-4l-109 -145h-135zM336 0l-316 1059h134l184 -656q13 -46 30 -115t28 -115l10 -46h4q40 170 67 266l180 666h138l174 -666l63 -266h4q43 174 74 276l197 656h129l-334 -1059h-139l-183 676q-12 44 -26 104t-22 98l-7 37h-4
q-28 -139 -55 -239l-187 -676h-143z" />
    <glyph glyph-name="Ycircumflex" unicode="&#x176;" horiz-adv-x="1228" 
d="M543 0v639l-529 825h152l446 -708h4l451 708h147l-532 -829v-635h-139zM346 1544l193 211h151l189 -211h-144l-123 139h-4l-123 -139h-139z" />
    <glyph glyph-name="ycircumflex" unicode="&#x177;" horiz-adv-x="960" 
d="M217 -350q-55 0 -108 16v113h6q45 -15 96 -15q63 0 105.5 32.5t70.5 111.5l35 94l-408 1057h136l253 -684l84 -242h5q44 144 79 242l244 684h131l-436 -1170q-52 -137 -118.5 -188t-174.5 -51zM242 1221l174 217h151l170 -217h-141l-107 145h-4l-108 -145h-135z" />
    <glyph glyph-name="Ydieresis" unicode="&#x178;" horiz-adv-x="1228" 
d="M543 0v639l-529 825h152l446 -708h4l451 708h147l-532 -829v-635h-139zM391 1550v176h123v-176h-123zM711 1550v176h123v-176h-123z" />
    <glyph glyph-name="Zacute" unicode="&#x179;" horiz-adv-x="1214" 
d="M53 0v133l895 1208v7h-839v116h1005v-116l-901 -1219v-6h934v-123h-1094zM543 1542l135 234h168l-193 -234h-110z" />
    <glyph glyph-name="zacute" unicode="&#x17a;" horiz-adv-x="915" 
d="M403 1212l136 261h168l-193 -261h-111zM57 0v109l619 833v6h-578v111h748v-90l-631 -850v-6h649v-113h-807z" />
    <glyph glyph-name="Zdotaccent" unicode="&#x17b;" horiz-adv-x="1214" 
d="M551 1550v176h125v-176h-125zM53 0v133l895 1208v7h-839v116h1005v-116l-901 -1219v-6h934v-123h-1094z" />
    <glyph glyph-name="zdotaccent" unicode="&#x17c;" horiz-adv-x="915" 
d="M57 0v109l619 833v6h-578v111h748v-90l-631 -850v-6h649v-113h-807zM418 1284v180h125v-180h-125z" />
    <glyph glyph-name="Zcaron" unicode="&#x17d;" horiz-adv-x="1214" 
d="M535 1544l-189 211h143l123 -137h4l123 137h140l-193 -211h-151zM53 0v133l895 1208v7h-839v116h1005v-116l-901 -1219v-6h934v-123h-1094z" />
    <glyph glyph-name="zcaron" unicode="&#x17e;" horiz-adv-x="915" 
d="M401 1221l-170 217h142l106 -146h4l109 146h135l-174 -217h-152zM57 0v109l619 833v6h-578v111h748v-90l-631 -850v-6h649v-113h-807z" />
    <glyph glyph-name="florin" unicode="&#x192;" horiz-adv-x="686" 
d="M-41 -303v106h37q62 0 97 28t44 91l111 795h-168v102h182l53 363q17 119 79.5 176t178.5 57q70 0 82 -2v-110q-8 2 -69 2q-70 0 -102.5 -32.5t-43.5 -105.5l-49 -348h209v-102h-223l-113 -803q-17 -117 -78.5 -169t-173.5 -52q-29 0 -53 4z" />
    <glyph glyph-name="AEacute" unicode="&#x1fc;" horiz-adv-x="1935" 
d="M1114 1542l135 234h168l-192 -234h-111zM23 0l577 1464h1239v-121h-774v-526h700v-119h-700v-571h797v-127h-934v461h-586l-180 -461h-139zM385 573h543v770h-240z" />
    <glyph glyph-name="aeacute" unicode="&#x1fd;" horiz-adv-x="1724" 
d="M803 1212l135 261h168l-193 -261h-110zM412 -25q-161 0 -263 78.5t-102 222.5q0 73 23.5 127.5t60.5 87.5t97.5 56t118 34t138.5 19q171 18 227 43.5t56 101.5v17q0 107 -64 162t-186 55q-269 0 -293 -236h-125q15 157 121.5 247.5t296.5 90.5q281 0 344 -204
q57 98 150.5 152t218.5 54q159 0 268 -92q177 -147 174 -485h-782q2 -91 24 -167t64 -134t110 -90.5t156 -32.5q230 0 293 237h123q-31 -159 -140 -252.5t-276 -93.5q-281 0 -405 236h-4q-71 -124 -173 -179t-251 -55zM430 78q80 0 146.5 27t107.5 71t63.5 97.5t22.5 109.5
v184q-82 -42 -276 -65q-65 -7 -104.5 -14t-84 -22.5t-69 -38.5t-40.5 -61.5t-16 -91.5q0 -102 70 -149t180 -47zM895 606h645q-2 108 -35 190t-103.5 132.5t-170.5 50.5q-151 0 -235.5 -102.5t-100.5 -270.5z" />
    <glyph glyph-name="Oslashacute" unicode="&#x1fe;" horiz-adv-x="1511" 
d="M125 -33l-68 62l174 192q-157 209 -157 512q0 162 48.5 302.5t136 242t215.5 159.5t280 58q278 0 467 -186l165 184l68 -61l-172 -191q156 -212 156 -508q0 -217 -83.5 -390t-240 -272.5t-360.5 -99.5q-277 0 -461 181zM324 322l809 890q-144 160 -379 160
q-128 0 -231 -50t-169.5 -137t-101.5 -202.5t-35 -249.5q0 -246 107 -411zM754 94q129 0 232.5 50t170 137t102 202.5t35.5 249.5q0 245 -106 408l-809 -893q151 -154 375 -154zM684 1542l135 234h168l-192 -234h-111z" />
    <glyph glyph-name="oslashacute" unicode="&#x1ff;" horiz-adv-x="1083" 
d="M92 -31l-55 51l123 140q-109 149 -109 368q0 158 58.5 283.5t171.5 198.5t262 73q197 0 329 -129l117 131l58 -51l-125 -139q108 -144 108 -367q0 -158 -57.5 -283t-169 -198.5t-260.5 -73.5q-203 0 -332 129zM246 254l547 612q-94 111 -250 111q-115 0 -198.5 -61
t-123 -161.5t-39.5 -226.5q0 -161 64 -274zM543 80q170 0 264 126.5t94 321.5q0 164 -63 275l-549 -613q96 -110 254 -110zM465 1212l135 261h168l-193 -261h-110z" />
    <glyph glyph-name="Scommaaccent" unicode="&#x218;" horiz-adv-x="1226" 
d="M526 -438v67q35 13 51.5 37t16.5 76v2h-64v162h142v-160q0 -161 -146 -184zM639 -27q-141 0 -252 38t-183 106.5t-111.5 158.5t-45.5 199h137q10 -185 130.5 -286t326.5 -101q166 0 270.5 81t104.5 226q0 44 -9 79.5t-25 63.5t-45.5 50.5t-62 39.5t-83.5 32.5t-102 27.5
t-124 27q-88 17 -152.5 36.5t-125.5 50.5t-99 71t-61 99t-23 134q0 174 135 280.5t355 106.5q236 0 365.5 -115t150.5 -313h-133q-18 152 -119.5 232.5t-261.5 80.5q-166 0 -262 -73t-96 -195q0 -52 17 -91t46.5 -67t81.5 -50t109.5 -37t142.5 -31q69 -13 119 -25t108 -31
t98 -41t79.5 -54t63 -71.5t38 -93t14.5 -117.5q0 -194 -142.5 -311t-373.5 -117z" />
    <glyph glyph-name="scommaaccent" unicode="&#x219;" horiz-adv-x="923" 
d="M391 -438v67q35 13 51.5 37t16.5 76v2h-64v162h142v-160q0 -161 -146 -184zM477 -29q-204 0 -316.5 99t-121.5 260h129q13 -128 95 -189t216 -61q129 0 199 55.5t70 149.5q0 86 -58 126t-225 78q-63 14 -104.5 25.5t-90.5 29.5t-80 39.5t-58.5 51.5t-40.5 70t-13 90
q0 131 102 208.5t266 77.5q181 0 277.5 -83t116.5 -230h-127q-10 102 -79 155.5t-188 53.5q-118 0 -179.5 -49t-61.5 -127q0 -36 13.5 -63t33.5 -45t63 -34.5t82.5 -27t110.5 -27.5q60 -13 101.5 -24.5t87 -29t75 -40t54.5 -53.5t36.5 -73.5t11.5 -96.5q0 -142 -107 -229
t-290 -87z" />
    <glyph glyph-name="uni021A" unicode="&#x21a;" horiz-adv-x="1204" 
d="M528 -438v67q35 13 51.5 37t16.5 76v2h-64v162h142v-160q0 -161 -146 -184zM535 0v1341h-496v123h1126v-123h-493v-1341h-137z" />
    <glyph glyph-name="uni021B" unicode="&#x21b;" horiz-adv-x="577" 
d="M397 -8q-95 0 -148.5 46.5t-53.5 143.5v772h-160v105h160v325h127v-325h196v-105h-196v-751q0 -55 24.5 -78t77.5 -23q46 0 84 17h6v-109q-52 -18 -117 -18zM254 -438v67q35 13 51.5 37t16.5 76v2h-64v162h141v-160q0 -161 -145 -184z" />
    <glyph glyph-name="uni0237" unicode="&#x237;" horiz-adv-x="346" 
d="M-41 -322v107h2q8 -2 35 -2q59 0 87 28.5t28 92.5v1155h127v-1161q0 -122 -57.5 -172t-168.5 -50q-43 0 -53 2z" />
    <glyph glyph-name="circumflex" unicode="&#x2c6;" 
d="M264 1221l174 217h152l170 -217h-142l-106 145h-4l-109 -145h-135z" />
    <glyph glyph-name="caron" unicode="&#x2c7;" 
d="M434 1221l-170 217h142l106 -146h4l109 146h135l-174 -217h-152z" />
    <glyph glyph-name="uni02C9" unicode="&#x2c9;" 
d="M258 1284v115h508v-115h-508z" />
    <glyph glyph-name="breve" unicode="&#x2d8;" 
d="M535 1219q-104 0 -173 62t-75 159h104q9 -52 46 -82.5t98 -30.5t98.5 31t46.5 82h104q-6 -95 -74.5 -158t-174.5 -63z" />
    <glyph glyph-name="dotaccent" unicode="&#x2d9;" horiz-adv-x="1048" 
d="M461 1284v180h125v-180h-125z" />
    <glyph glyph-name="ring" unicode="&#x2da;" horiz-adv-x="1042" 
d="M520 1235q43 0 70.5 30t27.5 74q0 45 -27 75t-71 30t-71 -30t-27 -75q0 -44 27.5 -74t70.5 -30zM520 1165q-74 0 -126 51t-52 123t52 123t126 51t126 -51t52 -123t-52 -123t-126 -51z" />
    <glyph glyph-name="ogonek" unicode="&#x2db;" 
d="M469 -356q-91 0 -138.5 40.5t-47.5 110.5q0 64 47 117.5t112 87.5h113q-73 -52 -111 -97t-38 -93q0 -70 83 -70q51 0 91 18h6v-88q-50 -26 -117 -26z" />
    <glyph glyph-name="tilde" unicode="&#x2dc;" 
d="M635 1229q-49 0 -133.5 40t-108.5 40q-22 0 -38 -20.5t-19 -55.5h-100q7 87 46.5 133.5t104.5 46.5q41 0 86.5 -20t85 -40t66.5 -20t43.5 20.5t19.5 55.5h98q-5 -84 -44.5 -132t-106.5 -48z" />
    <glyph glyph-name="hungarumlaut" unicode="&#x2dd;" 
d="M301 1212l76 261h139l-113 -261h-102zM567 1212l74 261h141l-112 -261h-103z" />
    <glyph glyph-name="uni0394" unicode="&#x394;" horiz-adv-x="1298" 
d="M180 115h932l-389 1007l-74 213h-4q-39 -125 -74 -213zM43 0v117l526 1347h156l530 -1349v-115h-1212z" />
    <glyph glyph-name="uni03A9" unicode="&#x3a9;" horiz-adv-x="1454" 
d="M84 0v119h319v4q-155 85 -242 252t-87 385q0 216 81.5 383t230 259.5t339.5 92.5q192 0 341.5 -92.5t231.5 -259.5t82 -383q0 -218 -87 -385t-242 -252v-4h319v-119h-541v121q102 27 181 88.5t128 147.5t74 188.5t25 218.5q0 178 -58.5 314.5t-175.5 215t-278 78.5
q-241 0 -374.5 -167.5t-133.5 -440.5q0 -236 106 -412.5t302 -230.5v-121h-541z" />
    <glyph glyph-name="uni03BC" unicode="&#x3bc;" horiz-adv-x="1021" 
d="M106 -340v1399h127v-740q0 -118 65.5 -177.5t184.5 -59.5q133 0 219 89.5t86 225.5v662h127v-1059h-127v156h-4q-61 -87 -136.5 -134t-190.5 -47q-148 0 -219 95h-5v-410h-127z" />
    <glyph glyph-name="pi" unicode="&#x3c0;" horiz-adv-x="1187" 
d="M1022 -8q-93 0 -147 46.5t-54 143.5v772h-487v-954h-127v954h-166v105h1081v-105h-176v-751q0 -55 25.5 -78t79.5 -23q37 0 75 17h7v-109q-49 -18 -111 -18z" />
    <glyph glyph-name="Wgrave" unicode="&#x1e80;" horiz-adv-x="1802" 
d="M862 1542l-192 234h168l135 -234h-111zM414 0l-389 1464h141l254 -987q13 -48 29.5 -120.5t26.5 -120.5l11 -48h5q40 177 69 281l268 995h148l268 -993l68 -283h4q40 180 67 289l256 987h138l-398 -1464h-139l-278 1067q-12 41 -26.5 100.5t-22.5 98.5l-9 39h-4
q-30 -144 -55 -238l-287 -1067h-145z" />
    <glyph glyph-name="wgrave" unicode="&#x1e81;" horiz-adv-x="1456" 
d="M336 0l-316 1059h134l184 -656q13 -46 30 -115t28 -115l10 -46h4q40 170 67 266l180 666h138l174 -666l63 -266h4q43 174 74 276l197 656h129l-334 -1059h-139l-183 676q-12 44 -26 104t-22 98l-7 37h-4q-28 -139 -55 -239l-187 -676h-143zM696 1212l-192 261h168
l135 -261h-111z" />
    <glyph glyph-name="Wacute" unicode="&#x1e82;" horiz-adv-x="1802" 
d="M829 1542l136 234h168l-193 -234h-111zM414 0l-389 1464h141l254 -987q13 -48 29.5 -120.5t26.5 -120.5l11 -48h5q40 177 69 281l268 995h148l268 -993l68 -283h4q40 180 67 289l256 987h138l-398 -1464h-139l-278 1067q-12 41 -26.5 100.5t-22.5 98.5l-9 39h-4
q-30 -144 -55 -238l-287 -1067h-145z" />
    <glyph glyph-name="wacute" unicode="&#x1e83;" horiz-adv-x="1456" 
d="M649 1212l135 261h168l-192 -261h-111zM336 0l-316 1059h134l184 -656q13 -46 30 -115t28 -115l10 -46h4q40 170 67 266l180 666h138l174 -666l63 -266h4q43 174 74 276l197 656h129l-334 -1059h-139l-183 676q-12 44 -26 104t-22 98l-7 37h-4q-28 -139 -55 -239
l-187 -676h-143z" />
    <glyph glyph-name="Wdieresis" unicode="&#x1e84;" horiz-adv-x="1802" 
d="M678 1550v176h123v-176h-123zM997 1550v176h123v-176h-123zM414 0l-389 1464h141l254 -987q13 -48 29.5 -120.5t26.5 -120.5l11 -48h5q40 177 69 281l268 995h148l268 -993l68 -283h4q40 180 67 289l256 987h138l-398 -1464h-139l-278 1067q-12 41 -26.5 100.5
t-22.5 98.5l-9 39h-4q-30 -144 -55 -238l-287 -1067h-145z" />
    <glyph glyph-name="wdieresis" unicode="&#x1e85;" horiz-adv-x="1456" 
d="M504 1284v176h123v-176h-123zM823 1284v176h123v-176h-123zM336 0l-316 1059h134l184 -656q13 -46 30 -115t28 -115l10 -46h4q40 170 67 266l180 666h138l174 -666l63 -266h4q43 174 74 276l197 656h129l-334 -1059h-139l-183 676q-12 44 -26 104t-22 98l-7 37h-4
q-28 -139 -55 -239l-187 -676h-143z" />
    <glyph glyph-name="Ygrave" unicode="&#x1ef2;" horiz-adv-x="1228" 
d="M543 0v639l-529 825h152l446 -708h4l451 708h147l-532 -829v-635h-139zM575 1542l-192 234h168l135 -234h-111z" />
    <glyph glyph-name="ygrave" unicode="&#x1ef3;" horiz-adv-x="960" 
d="M217 -350q-55 0 -108 16v113h6q45 -15 96 -15q63 0 105.5 32.5t70.5 111.5l35 94l-408 1057h136l253 -684l84 -242h5q44 144 79 242l244 684h131l-436 -1170q-52 -137 -118.5 -188t-174.5 -51zM459 1212l-193 261h168l135 -261h-110z" />
    <glyph glyph-name="uni2009" unicode="&#x2009;" horiz-adv-x="112" 
 />
    <glyph glyph-name="endash" unicode="&#x2013;" 
d="M0 467v108h1024v-108h-1024z" />
    <glyph glyph-name="emdash" unicode="&#x2014;" horiz-adv-x="2048" 
d="M205 467v108h1638v-108h-1638z" />
    <glyph glyph-name="quoteleft" unicode="&#x2018;" horiz-adv-x="313" 
d="M86 1085v187q0 173 143 196v-67q-65 -27 -65 -123v-16h63v-177h-141z" />
    <glyph glyph-name="quoteright" unicode="&#x2019;" horiz-adv-x="313" 
d="M84 1081v68q66 26 66 125v14h-64v176h141v-186q0 -175 -143 -197z" />
    <glyph glyph-name="quotesinglbase" unicode="&#x201a;" horiz-adv-x="313" 
d="M84 -207v68q33 13 49.5 41t16.5 82v16h-64v176h141v-186q0 -175 -143 -197z" />
    <glyph glyph-name="quotedblleft" unicode="&#x201c;" horiz-adv-x="577" 
d="M86 1085v187q0 173 143 196v-67q-65 -27 -65 -123v-16h63v-177h-141zM348 1085v187q0 173 144 196v-67q-66 -27 -66 -123v-16h66v-177h-144z" />
    <glyph glyph-name="quotedblright" unicode="&#x201d;" horiz-adv-x="577" 
d="M84 1081v68q66 26 66 125v14h-64v176h141v-186q0 -175 -143 -197zM346 1081v68q66 26 66 125v14h-64v176h144v-186q0 -174 -146 -197z" />
    <glyph glyph-name="quotedblbase" unicode="&#x201e;" horiz-adv-x="577" 
d="M84 -207v68q33 13 49.5 41t16.5 82v16h-64v176h141v-186q0 -175 -143 -197zM346 -207v68q33 13 49.5 41t16.5 82v16h-64v176h144v-186q0 -174 -146 -197z" />
    <glyph glyph-name="dagger" unicode="&#x2020;" horiz-adv-x="1056" 
d="M465 -213v1165h-389v113h389v399h127v-399h389v-113h-389v-1165h-127z" />
    <glyph glyph-name="daggerdbl" unicode="&#x2021;" horiz-adv-x="1056" 
d="M465 -213v399h-389v113h389v653h-389v113h389v399h127v-399h389v-113h-389v-653h389v-113h-389v-399h-127z" />
    <glyph glyph-name="bullet" unicode="&#x2022;" horiz-adv-x="589" 
d="M297 446q-92 0 -157.5 64.5t-65.5 155.5t65.5 156t157.5 65q91 0 155 -65t64 -156t-64 -155.5t-155 -64.5z" />
    <glyph glyph-name="ellipsis" unicode="&#x2026;" horiz-adv-x="1128" 
d="M86 0v178h156v-178h-156zM487 0v178h154v-178h-154zM889 0v178h153v-178h-153z" />
    <glyph glyph-name="perthousand" unicode="&#x2030;" horiz-adv-x="2326" 
d="M377 731q87 0 140.5 79t53.5 224q0 142 -54.5 221.5t-139.5 79.5q-88 0 -141.5 -78t-53.5 -223q0 -143 54 -223t141 -80zM377 635q-140 0 -228 107t-88 292t90.5 292.5t225.5 107.5q134 0 222.5 -106.5t88.5 -293.5q0 -185 -86.5 -292t-224.5 -107zM338 0l809 1403h110
l-806 -1403h-113zM1221 70q89 0 141.5 77.5t52.5 223.5q0 142 -54 222.5t-140 80.5t-140.5 -79t-54.5 -224q0 -142 54.5 -221.5t140.5 -79.5zM1221 -29q-138 0 -226 108t-88 292q0 186 90 292.5t224 106.5q136 0 224.5 -105.5t88.5 -293.5q0 -184 -87 -292t-226 -108z
M1952 70q89 0 141.5 77.5t52.5 223.5q0 142 -54 222.5t-140 80.5q-88 0 -141.5 -79t-53.5 -224q0 -143 54 -222t141 -79zM1952 -29q-138 0 -227 108t-89 292q0 186 90 292.5t226 106.5t224.5 -105.5t88.5 -293.5q0 -184 -87.5 -292t-225.5 -108z" />
    <glyph glyph-name="uni2032" unicode="&#x2032;" horiz-adv-x="339" 
d="M68 1026l84 438h120l-84 -438h-120z" />
    <glyph glyph-name="uni2033" unicode="&#x2033;" horiz-adv-x="606" 
d="M68 1026l84 438h120l-84 -438h-120zM336 1026l82 438h121l-82 -438h-121z" />
    <glyph glyph-name="guilsinglleft" unicode="&#x2039;" horiz-adv-x="514" 
d="M399 248l-284 231v154l284 231v-141l-213 -166v-4l213 -164v-141z" />
    <glyph glyph-name="guilsinglright" unicode="&#x203a;" horiz-adv-x="514" 
d="M115 248v141l211 166v4l-211 164v141l284 -231v-154z" />
    <glyph glyph-name="fraction" unicode="&#x2044;" horiz-adv-x="374" 
d="M-375 0l1002 1464h123l-1000 -1464h-125z" />
    <glyph glyph-name="zero.superior" unicode="&#x2070;" horiz-adv-x="786" 
d="M395 719q102 0 153.5 86t51.5 246q0 158 -52.5 246.5t-152.5 88.5q-103 0 -156 -87.5t-53 -247.5q0 -157 53.5 -244.5t155.5 -87.5zM393 621q-154 0 -240.5 116t-86.5 314q0 200 89 315t240 115q150 0 238 -115t88 -315q0 -198 -87 -314t-241 -116z" />
    <glyph glyph-name="four.superior" unicode="&#x2074;" horiz-adv-x="733" 
d="M444 639v199h-395v112l397 523h109v-545h127v-90h-127v-199h-111zM147 928h297v387h-4l-293 -383v-4z" />
    <glyph glyph-name="five.superior" unicode="&#x2075;" horiz-adv-x="706" 
d="M352 621q-127 0 -209.5 67.5t-89.5 179.5h115q9 -72 56 -110.5t126 -38.5q81 0 128.5 51.5t47.5 138.5q0 85 -48.5 134t-125.5 49q-115 0 -166 -72h-106l76 444h446v-98h-366l-41 -240h2q72 62 180 62q111 0 189.5 -76.5t78.5 -204.5q0 -127 -82.5 -206.5t-210.5 -79.5z
" />
    <glyph glyph-name="six.superior" unicode="&#x2076;" horiz-adv-x="741" 
d="M393 621q-133 0 -213 77q-61 58 -87.5 144t-26.5 209q0 127 34 222t108 151.5t181 56.5q118 0 187.5 -64.5t80.5 -161.5h-114q-6 56 -46 93.5t-102 37.5q-212 0 -215 -307h6q76 107 217 107q117 0 197 -81.5t80 -201.5q0 -119 -83 -200.5t-204 -81.5zM391 715
q77 0 127.5 52t50.5 134q0 81 -51.5 135t-128.5 54q-86 0 -139 -52.5t-53 -134.5q0 -83 55 -135.5t139 -52.5z" />
    <glyph glyph-name="seven.superior" unicode="&#x2077;" horiz-adv-x="671" 
d="M303 639h-121q10 208 101.5 404t216.5 319v2h-451v100h572v-96q-129 -125 -216.5 -315t-101.5 -414z" />
    <glyph glyph-name="eight.superior" unicode="&#x2078;" horiz-adv-x="751" 
d="M377 625q-132 0 -224 65.5t-92 183.5q0 80 43.5 135t116.5 83v4q-119 52 -119 172q0 98 77.5 157.5t195.5 59.5q120 0 196 -59t76 -154q0 -122 -119 -174v-4q72 -24 116 -80.5t44 -134.5q0 -122 -89.5 -188t-221.5 -66zM377 715q89 0 141.5 45t52.5 117q0 76 -52 121.5
t-144 45.5q-91 0 -143 -45.5t-52 -121.5q0 -73 52.5 -117.5t144.5 -44.5zM375 1128q75 0 117.5 37.5t42.5 96.5q0 60 -42 96.5t-118 36.5q-75 0 -116.5 -36.5t-41.5 -96.5q0 -59 41.5 -96.5t116.5 -37.5z" />
    <glyph glyph-name="nine.superior" unicode="&#x2079;" horiz-adv-x="745" 
d="M365 621q-123 0 -199.5 63.5t-87.5 169.5h115q8 -60 51.5 -99.5t115.5 -39.5q90 0 136 55q63 68 69 248h-4q-78 -100 -211 -100q-125 0 -206 80t-83 200q0 120 83.5 201.5t211.5 81.5q116 0 191 -56q72 -53 102.5 -141.5t30.5 -224.5q0 -275 -121 -373q-74 -65 -194 -65z
M360 1014q85 0 138.5 51.5t54.5 134.5q0 82 -56.5 135.5t-136.5 53.5q-82 0 -134 -52.5t-52 -134.5q0 -83 51.5 -135.5t134.5 -52.5z" />
    <glyph glyph-name="zero.inferior" unicode="&#x2080;" horiz-adv-x="786" 
d="M395 -227q103 0 154 85.5t51 245.5q0 158 -52.5 247t-152.5 89q-103 0 -156 -87.5t-53 -248.5q0 -157 53 -244t156 -87zM393 -326q-154 0 -240.5 116t-86.5 314q0 200 89 316.5t240 116.5q150 0 238 -116t88 -317q0 -198 -87 -314t-241 -116z" />
    <glyph glyph-name="one.inferior" unicode="&#x2081;" horiz-adv-x="524" 
d="M248 -307v600h-189v78q94 2 145.5 37t63.5 116h97v-831h-117z" />
    <glyph glyph-name="two.inferior" unicode="&#x2082;" horiz-adv-x="694" 
d="M57 -307q2 56 18.5 105t38 82t59.5 68.5t65 55t73 49.5q7 4 39.5 24.5t40 25.5t32.5 22.5t32 26t23 26t21 31.5t10 33.5t5 40.5q0 74 -42 114.5t-112 40.5q-80 0 -125.5 -49.5t-46.5 -144.5h-110q0 139 78 215t209 76q119 0 193.5 -72t74.5 -178q0 -31 -7 -59.5
t-15.5 -49t-28.5 -44t-32 -36t-41 -33.5t-41.5 -29t-46.5 -29l-24 -15q-42 -25 -65.5 -40.5t-57 -42.5t-53 -56t-26.5 -62h434v-96h-572z" />
    <glyph glyph-name="three.inferior" unicode="&#x2083;" horiz-adv-x="718" 
d="M362 -324q-139 0 -224.5 77t-84.5 206h111q5 -91 54.5 -139.5t139.5 -48.5q85 0 133 42t48 119q0 72 -48.5 112t-136.5 40h-55v90h53q75 0 117.5 36t42.5 99q0 64 -42 100.5t-110 36.5q-81 0 -125 -48t-47 -128h-108q2 119 77 193t205 74q116 0 189.5 -61.5t73.5 -162.5
q0 -130 -129 -176v-4q161 -44 161 -211q0 -115 -83 -180.5t-212 -65.5z" />
    <glyph glyph-name="four.inferior" unicode="&#x2084;" horiz-adv-x="733" 
d="M444 -307v198h-395v113l397 524h109v-546h127v-91h-127v-198h-111zM147 -18h297v387h-4l-293 -383v-4z" />
    <glyph glyph-name="five.inferior" unicode="&#x2085;" horiz-adv-x="706" 
d="M352 -324q-127 0 -209.5 67t-89.5 179h115q9 -71 56 -110t126 -39q81 0 128.5 52t47.5 138q0 85 -48.5 134.5t-125.5 49.5q-114 0 -166 -73h-106l76 444h446v-98h-366l-41 -240h2q72 62 180 62q111 0 189.5 -76.5t78.5 -204.5q0 -127 -82.5 -206t-210.5 -79z" />
    <glyph glyph-name="six.inferior" unicode="&#x2086;" horiz-adv-x="741" 
d="M393 -326q-132 0 -213 78q-61 58 -87.5 143.5t-26.5 208.5q0 127 34 222t108 152t181 57q118 0 187.5 -64t80.5 -160h-114q-6 55 -46 93t-102 38q-109 0 -161 -82t-54 -227h6q76 107 217 107q117 0 197 -81.5t80 -201.5q0 -119 -83 -201t-204 -82zM391 -231
q77 0 127.5 52t50.5 134q0 81 -51.5 134.5t-128.5 53.5q-86 0 -139 -52t-53 -134q0 -83 55 -135.5t139 -52.5z" />
    <glyph glyph-name="seven.inferior" unicode="&#x2087;" horiz-adv-x="671" 
d="M303 -307h-121q10 208 101.5 404t216.5 319v2h-451v100h572v-96q-129 -125 -216.5 -315t-101.5 -414z" />
    <glyph glyph-name="eight.inferior" unicode="&#x2088;" horiz-adv-x="751" 
d="M377 -322q-85 0 -155 27t-115.5 85.5t-45.5 139.5q0 78 43.5 132.5t116.5 82.5v5q-119 52 -119 172q0 98 77.5 157.5t195.5 59.5q120 0 196 -59t76 -154q0 -122 -119 -174v-5q72 -24 116 -80.5t44 -134.5q0 -122 -89.5 -188t-221.5 -66zM377 -231q89 0 141.5 45t52.5 116
q0 76 -52 122t-144 46q-91 0 -143 -46t-52 -122q0 -73 52.5 -117t144.5 -44zM375 182q75 0 117.5 37.5t42.5 97.5q0 59 -42 96.5t-118 37.5q-74 0 -116 -37.5t-42 -96.5q0 -61 41 -98t117 -37z" />
    <glyph glyph-name="nine.inferior" unicode="&#x2089;" horiz-adv-x="745" 
d="M365 -324q-123 0 -199.5 63.5t-87.5 170.5h115q8 -62 51.5 -101.5t115.5 -39.5q90 0 136 55q63 68 69 250h-4q-80 -103 -211 -103q-125 0 -206 80.5t-83 200.5q0 121 83.5 203t211.5 82q113 0 191 -58q72 -53 102.5 -141.5t30.5 -224.5q0 -272 -121 -373
q-73 -64 -194 -64zM360 68q85 0 138.5 51.5t54.5 134.5q0 82 -56.5 136t-136.5 54q-82 0 -134 -53t-52 -135q0 -83 51.5 -135.5t134.5 -52.5z" />
    <glyph glyph-name="Euro" unicode="&#x20ac;" horiz-adv-x="1236" 
d="M700 -29q-205 0 -343 149t-175 406h-137v95h127q-2 25 -2 79q0 51 2 78h-127v94h137q36 257 175 409.5t348 152.5q181 0 300 -110.5t148 -303.5h-129q-55 301 -322 301q-164 0 -260 -119.5t-125 -329.5h431v-94h-437q-2 -27 -2 -78q0 -54 2 -79h437v-95h-429
q29 -207 126.5 -323.5t259.5 -116.5q155 0 241.5 109.5t106.5 296.5h123q-12 -234 -140 -377.5t-336 -143.5z" />
    <glyph glyph-name="afii61289" unicode="&#x2113;" horiz-adv-x="649" 
d="M387 -8q-242 0 -242 254v145q-64 -26 -110 -35v99q58 17 110 39v731q0 120 59 188t167 68q211 0 211 -291q0 -529 -310 -733v-201q0 -81 29 -118.5t98 -37.5q76 0 136 39h6v-106q-62 -41 -154 -41zM272 573q44 40 70 84q127 174 127 535q0 103 -24.5 145.5t-71.5 42.5
q-101 0 -101 -155v-652z" />
    <glyph glyph-name="trademark" unicode="&#x2122;" horiz-adv-x="1302" 
d="M637 879v585h137l148 -469h2l147 469h139v-585h-88v471h-4q-30 -105 -57 -187l-92 -284h-92l-93 284l-55 187h-4v-471h-88zM256 879v503h-188v82h471v-82h-189v-503h-94z" />
    <glyph glyph-name="Omega" unicode="&#x2126;" horiz-adv-x="1454" 
d="M84 0v119h319v4q-155 85 -242 252t-87 385q0 216 81.5 383t230 259.5t339.5 92.5q192 0 341.5 -92.5t231.5 -259.5t82 -383q0 -218 -87 -385t-242 -252v-4h319v-119h-541v121q102 27 181 88.5t128 147.5t74 188.5t25 218.5q0 178 -58.5 314.5t-175.5 215t-278 78.5
q-241 0 -374.5 -167.5t-133.5 -440.5q0 -236 106 -412.5t302 -230.5v-121h-541z" />
    <glyph glyph-name="estimated" unicode="&#x212e;" horiz-adv-x="1271" 
d="M670 -23q-286 0 -448.5 180.5t-162.5 475.5q0 287 168 469t432 182q212 0 355 -121q108 -91 153 -225.5t43 -321.5h-882v-430q123 -123 342 -123q176 0 282.5 81t155.5 237h94q-42 -183 -178.5 -293.5t-353.5 -110.5zM328 694h620v412q-101 98 -289 98
q-105 0 -190.5 -33.5t-140.5 -91.5v-385z" />
    <glyph glyph-name="onethird" unicode="&#x2153;" horiz-adv-x="1646" 
d="M256 639v598h-188v80q94 2 145 36.5t63 116.5h97v-831h-117zM158 0l1001 1464h123l-999 -1464h-125zM1282 -16q-140 0 -225 76.5t-84 205.5h110q5 -91 55 -139.5t140 -48.5q85 0 132.5 42t47.5 120q0 72 -48 111.5t-136 39.5h-55v90h53q75 0 117.5 36t42.5 99
q0 65 -42 101.5t-110 36.5q-81 0 -125 -48t-47 -128h-109q2 119 77.5 192.5t205.5 73.5q116 0 189 -61t73 -162q0 -131 -129 -177v-4q162 -44 162 -211q0 -115 -83 -180t-212 -65z" />
    <glyph glyph-name="twothirds" unicode="&#x2154;" horiz-adv-x="1744" 
d="M66 639q2 56 18.5 104.5t37.5 81.5t59.5 68.5t65 54.5t72.5 49q12 8 40 25.5t39.5 25t33 23.5t31 25.5t24 26t20 31.5t10.5 34t5 41q0 73 -41.5 114t-111.5 41q-79 0 -125 -50.5t-47 -145.5h-111q0 141 78 217t209 76q119 0 193.5 -72t74.5 -178q0 -53 -16.5 -96t-51 -77
t-64.5 -55.5t-80 -52.5q-15 -9 -23 -14q-41 -24 -65.5 -40.5t-57.5 -43.5t-53 -56t-27 -61h434v-96h-571zM324 0l1001 1464h123l-999 -1464h-125zM1378 -16q-140 0 -225 76.5t-84 205.5h111q5 -91 54.5 -139.5t139.5 -48.5q85 0 132.5 42t47.5 120q0 72 -48 111.5t-136 39.5
h-55v90h53q75 0 117.5 36t42.5 99q0 65 -42 101.5t-110 36.5q-81 0 -125 -48t-47 -128h-108q2 119 77 192.5t205 73.5q116 0 189 -61t73 -162q0 -131 -129 -177v-4q162 -44 162 -211q0 -115 -83 -180t-212 -65z" />
    <glyph glyph-name="oneeighth" unicode="&#x215b;" horiz-adv-x="1615" 
d="M256 639v598h-188v80q94 2 145 36.5t63 116.5h97v-831h-117zM141 0l1002 1464h123l-1000 -1464h-125zM1233 -14q-85 0 -155 27t-115 85.5t-45 139.5q0 78 43 132.5t116 82.5v4q-119 52 -119 172q0 98 77.5 157.5t195.5 59.5q120 0 196 -59t76 -154q0 -122 -119 -174v-4
q72 -24 116 -80.5t44 -134.5q0 -122 -89.5 -188t-221.5 -66zM1233 76q89 0 141.5 45.5t52.5 116.5q0 76 -52 122t-144 46q-91 0 -143 -46t-52 -122q0 -73 52.5 -117.5t144.5 -44.5zM1231 489q75 0 117.5 38t42.5 98q0 59 -42 96t-118 37q-74 0 -116 -37t-42 -96
q0 -61 41 -98.5t117 -37.5z" />
    <glyph glyph-name="threeeighths" unicode="&#x215c;" horiz-adv-x="1753" 
d="M371 621q-140 0 -225.5 76.5t-84.5 205.5h111q5 -90 55 -138t140 -48q85 0 132.5 42t47.5 118q0 73 -48.5 113t-136.5 40h-55v90h53q75 0 117.5 36t42.5 99q0 64 -42 101t-109 37q-81 0 -125 -49t-47 -130h-109q2 120 77.5 193.5t205.5 73.5q116 0 189 -60t73 -161
q0 -131 -129 -177v-4q162 -44 162 -211q0 -116 -83 -181.5t-212 -65.5zM297 0l1001 1464h123l-999 -1464h-125zM1370 -14q-85 0 -155 27t-115 85.5t-45 139.5q0 78 43 132.5t116 82.5v4q-118 51 -118 172q0 98 77 157.5t195 59.5q120 0 196 -59t76 -154q0 -123 -118 -174v-4
q72 -24 115.5 -80.5t43.5 -134.5q0 -122 -89.5 -188t-221.5 -66zM1370 76q89 0 142 45.5t53 116.5q0 76 -52.5 122t-144.5 46q-91 0 -142.5 -46t-51.5 -122q0 -73 52 -117.5t144 -44.5zM1368 489q75 0 117.5 38t42.5 98q0 59 -42 96t-118 37q-74 0 -116 -37t-42 -96
q0 -61 41 -98.5t117 -37.5z" />
    <glyph glyph-name="fiveeighths" unicode="&#x215d;" horiz-adv-x="1728" 
d="M360 621q-127 0 -209.5 67.5t-89.5 179.5h115q9 -72 56 -110.5t126 -38.5q81 0 129 51.5t48 138.5q0 84 -49 133.5t-126 49.5q-114 0 -165 -72h-107l76 444h446v-98h-366l-41 -240h2q72 62 180 62q111 0 189.5 -76.5t78.5 -204.5q0 -127 -82.5 -206.5t-210.5 -79.5z
M291 0l1001 1464h123l-999 -1464h-125zM1346 -14q-85 0 -155 27t-115.5 85.5t-45.5 139.5q0 78 43.5 132.5t116.5 82.5v4q-119 52 -119 172q0 98 77 157.5t195 59.5q120 0 196.5 -59t76.5 -154q0 -122 -119 -174v-4q72 -24 116 -80.5t44 -134.5q0 -122 -89.5 -188
t-221.5 -66zM1346 76q89 0 141.5 45.5t52.5 116.5q0 76 -52.5 122t-144.5 46q-91 0 -142.5 -46t-51.5 -122q0 -73 52.5 -117.5t144.5 -44.5zM1343 489q75 0 117.5 38t42.5 98q0 59 -42 96t-118 37q-74 0 -115.5 -37t-41.5 -96q0 -61 40.5 -98.5t116.5 -37.5z" />
    <glyph glyph-name="seveneighths" unicode="&#x215e;" horiz-adv-x="1619" 
d="M135 0l1002 1464h123l-1000 -1464h-125zM1237 -14q-85 0 -155 27t-115 85.5t-45 139.5q0 78 43 132.5t116 82.5v4q-118 51 -118 172q0 98 77 157.5t195 59.5q120 0 196 -59t76 -154q0 -123 -118 -174v-4q72 -24 115.5 -80.5t43.5 -134.5q0 -122 -89.5 -188t-221.5 -66z
M1237 76q89 0 142 45.5t53 116.5q0 76 -52.5 122t-144.5 46q-91 0 -143 -46t-52 -122q0 -73 52.5 -117.5t144.5 -44.5zM1235 489q75 0 117.5 38t42.5 98q0 59 -42 96t-118 37q-74 0 -116 -37t-42 -96q0 -61 41 -98.5t117 -37.5zM311 639h-121q10 208 101.5 404t216.5 319v2
h-451v100h572v-96q-129 -125 -216.5 -315t-101.5 -414z" />
    <glyph glyph-name="partialdiff" unicode="&#x2202;" horiz-adv-x="1058" 
d="M498 -27q-196 0 -310 127t-114 326q0 155 58.5 279t166 194t244.5 70q95 0 174 -40t127 -118q-17 107 -55.5 195.5t-104 164t-168 125.5t-235.5 68v113q160 -17 284 -73.5t202 -138t128 -191t70 -221.5t20 -241q0 -135 -31 -250t-90 -202.5t-153 -137t-213 -49.5zM500 80
q104 0 184.5 64.5t122 166t41.5 219.5q0 145 -81 237.5t-220 92.5q-154 0 -247 -120.5t-93 -313.5q0 -68 17 -128.5t51.5 -110t92 -78.5t132.5 -29z" />
    <glyph glyph-name="Delta" unicode="&#x2206;" horiz-adv-x="1298" 
d="M180 115h932l-389 1007l-74 213h-4q-39 -125 -74 -213zM43 0v117l526 1347h156l530 -1349v-115h-1212z" />
    <glyph glyph-name="product" unicode="&#x220f;" horiz-adv-x="1357" 
d="M141 -205v1669h1076v-1669h-138v1546h-800v-1546h-138z" />
    <glyph glyph-name="summation" unicode="&#x2211;" horiz-adv-x="1210" 
d="M84 -205v123l618 741v5l-618 665v135h1042v-121h-878v-4l596 -637v-71l-602 -709v-4h893v-123h-1051z" />
    <glyph glyph-name="minus" unicode="&#x2212;" horiz-adv-x="1085" 
d="M113 612v111h860v-111h-860z" />
    <glyph glyph-name="uni2215" unicode="&#x2215;" horiz-adv-x="374" 
d="M-375 0l1002 1464h123l-1000 -1464h-125z" />
    <glyph glyph-name="uni2219" unicode="&#x2219;" horiz-adv-x="327" 
d="M88 549v178h156v-178h-156z" />
    <glyph glyph-name="radical" unicode="&#x221a;" horiz-adv-x="1155" 
d="M467 -205l-289 721h-151v115h247l168 -436q18 -47 40.5 -112.5t35.5 -106.5l14 -42h5q40 156 75 267l392 1263h129l-525 -1669h-141z" />
    <glyph glyph-name="infinity" unicode="&#x221e;" horiz-adv-x="1464" 
d="M383 272q-148 0 -227.5 101.5t-79.5 251.5q0 96 32.5 173.5t103.5 127t171 49.5q114 0 197.5 -67t156.5 -185q35 57 67.5 97.5t74 78t92 57t108.5 19.5q142 0 226 -96t84 -254q0 -159 -84 -256t-226 -97q-58 0 -108.5 19.5t-92 57t-74 78t-67.5 97.5
q-73 -118 -156.5 -185t-197.5 -67zM389 383q45 0 85 18.5t75.5 55.5t62 74.5t58.5 91.5q-32 55 -58.5 93t-62 75t-75.5 56t-85 19q-93 0 -140.5 -68t-47.5 -173q0 -107 47.5 -174.5t140.5 -67.5zM1073 383q94 0 142.5 68t48.5 174q0 105 -48.5 173t-142.5 68
q-42 0 -79 -18.5t-71 -57t-58 -74t-58 -93.5q34 -57 58 -92t58 -73.5t71 -56.5t79 -18z" />
    <glyph glyph-name="integral" unicode="&#x222b;" horiz-adv-x="729" 
d="M172 -360q-77 0 -131 22v111h6q48 -21 107 -21q66 0 102.5 37.5t36.5 112.5v1355q0 126 68.5 193.5t177.5 67.5q73 0 131 -21v-113h-6q-48 21 -107 21q-65 0 -101 -37.5t-36 -112.5v-1355q0 -126 -69 -193t-179 -67z" />
    <glyph glyph-name="approxequal" unicode="&#x2248;" horiz-adv-x="1085" 
d="M92 365q6 106 62.5 162.5t150.5 56.5q75 0 232.5 -49.5t216.5 -49.5q110 0 116 111h109q-6 -107 -61.5 -164t-157.5 -57q-81 0 -242.5 49t-210.5 49q-47 0 -74 -28.5t-30 -79.5h-111zM92 672q6 107 62.5 164t150.5 57q75 0 232.5 -49t216.5 -49q110 0 116 108h109
q-6 -105 -61.5 -162t-157.5 -57q-81 0 -242.5 49t-210.5 49q-47 0 -74 -28.5t-30 -81.5h-111z" />
    <glyph glyph-name="notequal" unicode="&#x2260;" horiz-adv-x="1085" 
d="M274 176l113 242h-274v108h323l105 219h-428v109h477l106 225h115l-106 -225h268v-109h-318l-104 -219h422v-108h-471l-113 -242h-115z" />
    <glyph glyph-name="lessequal" unicode="&#x2264;" horiz-adv-x="1021" 
d="M911 231l-809 342v138l809 342v-121l-702 -287v-4l702 -289v-121zM102 0v109h809v-109h-809z" />
    <glyph glyph-name="greaterequal" unicode="&#x2265;" horiz-adv-x="1021" 
d="M111 231v121l702 289v4l-702 287v121l809 -342v-138zM111 0v109h809v-109h-809z" />
    <glyph glyph-name="uni24C5" unicode="&#x24c5;" horiz-adv-x="1662" 
d="M555 291v864h354q141 0 213 -78q66 -66 66 -178q0 -121 -73 -188.5t-208 -67.5h-233v-352h-119zM674 739h217q90 0 134 41.5t44 116.5q0 76 -44.5 117t-127.5 41h-223v-316zM831 37q187 0 338 89t236.5 247t85.5 354t-85.5 354.5t-236.5 248t-338 89.5
q-140 0 -262.5 -52.5t-209.5 -144t-137 -220t-50 -275.5t50 -275t137 -219t209.5 -143.5t262.5 -52.5zM831 -35q-155 0 -293.5 58t-238 158.5t-157.5 242.5t-58 303t58 303.5t157.5 243t238 159t293.5 58.5q208 0 379 -99t270 -274.5t99 -390.5t-99 -390t-270 -273.5
t-379 -98.5z" />
    <glyph glyph-name="lozenge" unicode="&#x25ca;" horiz-adv-x="1085" 
d="M543 129h4l330 598l-334 608h-4l-330 -600zM477 0l-414 731l412 733h135l412 -735l-410 -729h-135z" />
    <glyph glyph-name="f_i" unicode="&#xf001;" horiz-adv-x="882" 
d="M186 0v954h-153v105h153v188q0 228 248 228q8 0 38.5 -1t33.5 -1v-109h-55q-77 0 -108.5 -29.5t-31.5 -91.5v-184h197v-105h-197v-954h-125zM645 0v1059h127v-1059h-127zM645 1284v180h127v-180h-127z" />
    <glyph glyph-name="f_l" unicode="&#xf002;" horiz-adv-x="886" 
d="M186 0v954h-153v105h153v188q0 228 248 228q8 0 38.5 -1t33.5 -1v-109h-55q-77 0 -108.5 -29.5t-31.5 -91.5v-184h197v-105h-197v-954h-125zM647 0v1464h127v-1464h-127z" />
    <glyph glyph-name="uniF8FF" unicode="&#xf8ff;" horiz-adv-x="1732" 
d="M719 242h295v346h344v295h-344v334h-295v-334h-344v-295h344v-346zM133 0v1466h1466v-1466h-1466z" />
    <glyph glyph-name="R.alt" horiz-adv-x="1265" 
d="M131 0v1464h596q221 0 342 -127q102 -105 102 -282q0 -154 -76 -255.5t-216 -140.5l348 -659h-152l-332 641h-475v-641h-137zM268 758h434q332 0 332 293q0 142 -82.5 217t-242.5 75h-441v-585z" />
    <glyph glyph-name="Racute.alt" horiz-adv-x="1265" 
d="M131 0v1464h596q221 0 342 -127q102 -105 102 -282q0 -154 -76 -255.5t-216 -140.5l348 -659h-152l-332 641h-475v-641h-137zM268 758h434q332 0 332 293q0 142 -82.5 217t-242.5 75h-441v-585zM547 1542l135 234h168l-193 -234h-110z" />
    <glyph glyph-name="Rcaron.alt" horiz-adv-x="1265" 
d="M131 0v1464h596q221 0 342 -127q102 -105 102 -282q0 -154 -76 -255.5t-216 -140.5l348 -659h-152l-332 641h-475v-641h-137zM268 758h434q332 0 332 293q0 142 -82.5 217t-242.5 75h-441v-585zM539 1544l-189 211h144l122 -137h5l122 137h140l-193 -211h-151z" />
    <glyph glyph-name="Rcommaaccent.alt" horiz-adv-x="1265" 
d="M131 0v1464h596q221 0 342 -127q102 -105 102 -282q0 -154 -76 -255.5t-216 -140.5l348 -659h-152l-332 641h-475v-641h-137zM268 758h434q332 0 332 293q0 142 -82.5 217t-242.5 75h-441v-585zM545 -438v67q34 13 50.5 37t16.5 76v2h-63v162h141v-160q0 -161 -145 -184z
" />
    <glyph glyph-name="Tcommaaccent" horiz-adv-x="1204" 
d="M528 -438v67q35 13 51.5 37t16.5 76v2h-64v162h142v-160q0 -161 -146 -184zM535 0v1341h-496v123h1126v-123h-493v-1341h-137z" />
    <glyph glyph-name="idotaccent" horiz-adv-x="346" 
d="M111 0v1059h127v-1059h-127zM111 1284v180h127v-180h-127z" />
    <glyph glyph-name="tcommaaccent" horiz-adv-x="577" 
d="M254 -438v67q35 13 51.5 37t16.5 76v2h-64v162h141v-160q0 -161 -145 -184zM397 -8q-95 0 -148.5 46.5t-53.5 143.5v772h-160v105h160v325h127v-325h196v-105h-196v-751q0 -55 24.5 -78t77.5 -23q46 0 84 17h6v-109q-52 -18 -117 -18z" />
    <glyph glyph-name="grave.cap" 
d="M485 1542l-192 234h168l135 -234h-111z" />
    <glyph glyph-name="acute.cap" 
d="M428 1542l135 234h168l-192 -234h-111z" />
    <glyph glyph-name="circumflex.cap" 
d="M246 1544l192 211h152l188 -211h-143l-123 139h-4l-123 -139h-139z" />
    <glyph glyph-name="caron.cap" 
d="M434 1544l-188 211h143l123 -137h4l123 137h139l-192 -211h-152z" />
    <glyph glyph-name="caron.alt" 
d="M438 1130v68q35 13 51.5 36.5t16.5 70.5v4h-66v155h144v-155q0 -156 -146 -179z" />
    <glyph glyph-name="tilde.cap" 
d="M635 1556q-49 0 -133.5 40t-108.5 40q-22 0 -38 -20t-19 -55h-100q7 87 46.5 132.5t104.5 45.5q52 0 130.5 -39t107.5 -39q56 0 63 74h98q-5 -83 -44.5 -131t-106.5 -48z" />
    <glyph glyph-name="dieresis.cap" horiz-adv-x="1048" 
d="M303 1550v176h123v-176h-123zM623 1550v176h122v-176h-122z" />
    <glyph glyph-name="macron.cap" 
d="M258 1559v114h508v-114h-508z" />
    <glyph glyph-name="breve.cap" 
d="M535 1546q-104 0 -173 60t-75 157h104q9 -51 45.5 -79.5t98.5 -28.5t99 28.5t46 79.5h104q-6 -94 -74 -155.5t-175 -61.5z" />
    <glyph glyph-name="ring.cap" horiz-adv-x="1042" 
d="M520 1591q43 0 70.5 31t27.5 76q0 44 -27.5 74t-70.5 30t-70.5 -30t-27.5 -74q0 -45 27.5 -76t70.5 -31zM520 1524q-74 0 -126 51t-52 123t52 123t126 51t126 -51t52 -123t-52 -123t-126 -51z" />
    <glyph glyph-name="hungarumlaut.cap" 
d="M301 1542l76 240h139l-113 -240h-102zM567 1542l74 240h141l-112 -240h-103z" />
    <glyph glyph-name="dotaccent.cap" horiz-adv-x="1048" 
d="M461 1550v176h125v-176h-125z" />
    <glyph glyph-name="space_uni0326" 
d="M438 -438v67q35 13 51.5 37t16.5 76v2h-64v162h142v-160q0 -161 -146 -184z" />
    <glyph glyph-name="space_uni0326.alt" 
d="M440 1229v160q0 161 146 184v-68q-35 -14 -51.5 -37.5t-16.5 -74.5v-2h64v-162h-142z" />
    <glyph glyph-name="a.alt" horiz-adv-x="993" 
d="M401 -25q-155 0 -254.5 78.5t-99.5 222.5q0 73 23.5 127.5t60.5 87.5t97.5 56t118 34t138.5 19q171 18 227 43.5t56 101.5v17q0 107 -64 162t-186 55q-269 0 -293 -236h-125q15 157 121.5 247.5t296.5 90.5q177 0 274 -82t97 -251v-596q0 -60 11 -98t26 -48v-6h-129
q-26 34 -29 141v15h-4q-21 -28 -42 -50.5t-54 -48t-69.5 -42.5t-88 -28.5t-109.5 -11.5zM420 78q84 0 152.5 27t110.5 71.5t64.5 97.5t22.5 109v184q-82 -42 -276 -65q-65 -7 -104.5 -14t-84 -22.5t-69 -38.5t-40.5 -61.5t-16 -91.5q0 -101 68.5 -148.5t171.5 -47.5z" />
    <glyph glyph-name="agrave.alt" horiz-adv-x="993" 
d="M401 -25q-155 0 -254.5 78.5t-99.5 222.5q0 73 23.5 127.5t60.5 87.5t97.5 56t118 34t138.5 19q171 18 227 43.5t56 101.5v17q0 107 -64 162t-186 55q-269 0 -293 -236h-125q15 157 121.5 247.5t296.5 90.5q177 0 274 -82t97 -251v-596q0 -60 11 -98t26 -48v-6h-129
q-26 34 -29 141v15h-4q-21 -28 -42 -50.5t-54 -48t-69.5 -42.5t-88 -28.5t-109.5 -11.5zM420 78q84 0 152.5 27t110.5 71.5t64.5 97.5t22.5 109v184q-82 -42 -276 -65q-65 -7 -104.5 -14t-84 -22.5t-69 -38.5t-40.5 -61.5t-16 -91.5q0 -101 68.5 -148.5t171.5 -47.5z
M485 1212l-192 261h168l135 -261h-111z" />
    <glyph glyph-name="aacute.alt" horiz-adv-x="993" 
d="M436 1212l135 261h168l-192 -261h-111zM401 -25q-155 0 -254.5 78.5t-99.5 222.5q0 73 23.5 127.5t60.5 87.5t97.5 56t118 34t138.5 19q171 18 227 43.5t56 101.5v17q0 107 -64 162t-186 55q-269 0 -293 -236h-125q15 157 121.5 247.5t296.5 90.5q177 0 274 -82t97 -251
v-596q0 -60 11 -98t26 -48v-6h-129q-26 34 -29 141v15h-4q-21 -28 -42 -50.5t-54 -48t-69.5 -42.5t-88 -28.5t-109.5 -11.5zM420 78q84 0 152.5 27t110.5 71.5t64.5 97.5t22.5 109v184q-82 -42 -276 -65q-65 -7 -104.5 -14t-84 -22.5t-69 -38.5t-40.5 -61.5t-16 -91.5
q0 -101 68.5 -148.5t171.5 -47.5z" />
    <glyph glyph-name="acircumflex.alt" horiz-adv-x="993" 
d="M264 1221l174 217h152l170 -217h-142l-106 145h-4l-109 -145h-135zM401 -25q-155 0 -254.5 78.5t-99.5 222.5q0 73 23.5 127.5t60.5 87.5t97.5 56t118 34t138.5 19q171 18 227 43.5t56 101.5v17q0 107 -64 162t-186 55q-269 0 -293 -236h-125q15 157 121.5 247.5
t296.5 90.5q177 0 274 -82t97 -251v-596q0 -60 11 -98t26 -48v-6h-129q-26 34 -29 141v15h-4q-21 -28 -42 -50.5t-54 -48t-69.5 -42.5t-88 -28.5t-109.5 -11.5zM420 78q84 0 152.5 27t110.5 71.5t64.5 97.5t22.5 109v184q-82 -42 -276 -65q-65 -7 -104.5 -14t-84 -22.5
t-69 -38.5t-40.5 -61.5t-16 -91.5q0 -101 68.5 -148.5t171.5 -47.5z" />
    <glyph glyph-name="atilde.alt" horiz-adv-x="993" 
d="M401 -25q-155 0 -254.5 78.5t-99.5 222.5q0 73 23.5 127.5t60.5 87.5t97.5 56t118 34t138.5 19q171 18 227 43.5t56 101.5v17q0 107 -64 162t-186 55q-269 0 -293 -236h-125q15 157 121.5 247.5t296.5 90.5q177 0 274 -82t97 -251v-596q0 -60 11 -98t26 -48v-6h-129
q-26 34 -29 141v15h-4q-21 -28 -42 -50.5t-54 -48t-69.5 -42.5t-88 -28.5t-109.5 -11.5zM420 78q84 0 152.5 27t110.5 71.5t64.5 97.5t22.5 109v184q-82 -42 -276 -65q-65 -7 -104.5 -14t-84 -22.5t-69 -38.5t-40.5 -61.5t-16 -91.5q0 -101 68.5 -148.5t171.5 -47.5z
M637 1229q-49 0 -133.5 40t-108.5 40q-22 0 -38 -20.5t-19 -55.5h-100q7 87 46.5 133.5t104.5 46.5q41 0 86.5 -20t85 -40t66.5 -20t43.5 20.5t19.5 55.5h98q-5 -84 -44.5 -132t-106.5 -48z" />
    <glyph glyph-name="adieresis.alt" horiz-adv-x="993" 
d="M293 1284v176h123v-176h-123zM612 1284v176h123v-176h-123zM401 -25q-155 0 -254.5 78.5t-99.5 222.5q0 73 23.5 127.5t60.5 87.5t97.5 56t118 34t138.5 19q171 18 227 43.5t56 101.5v17q0 107 -64 162t-186 55q-269 0 -293 -236h-125q15 157 121.5 247.5t296.5 90.5
q177 0 274 -82t97 -251v-596q0 -60 11 -98t26 -48v-6h-129q-26 34 -29 141v15h-4q-21 -28 -42 -50.5t-54 -48t-69.5 -42.5t-88 -28.5t-109.5 -11.5zM420 78q84 0 152.5 27t110.5 71.5t64.5 97.5t22.5 109v184q-82 -42 -276 -65q-65 -7 -104.5 -14t-84 -22.5t-69 -38.5
t-40.5 -61.5t-16 -91.5q0 -101 68.5 -148.5t171.5 -47.5z" />
    <glyph glyph-name="amacron.alt" horiz-adv-x="993" 
d="M401 -25q-155 0 -254.5 78.5t-99.5 222.5q0 73 23.5 127.5t60.5 87.5t97.5 56t118 34t138.5 19q171 18 227 43.5t56 101.5v17q0 107 -64 162t-186 55q-269 0 -293 -236h-125q15 157 121.5 247.5t296.5 90.5q177 0 274 -82t97 -251v-596q0 -60 11 -98t26 -48v-6h-129
q-26 34 -29 141v15h-4q-21 -28 -42 -50.5t-54 -48t-69.5 -42.5t-88 -28.5t-109.5 -11.5zM420 78q84 0 152.5 27t110.5 71.5t64.5 97.5t22.5 109v184q-82 -42 -276 -65q-65 -7 -104.5 -14t-84 -22.5t-69 -38.5t-40.5 -61.5t-16 -91.5q0 -101 68.5 -148.5t171.5 -47.5z
M258 1284v115h508v-115h-508z" />
    <glyph glyph-name="abreve.alt" horiz-adv-x="993" 
d="M401 -25q-155 0 -254.5 78.5t-99.5 222.5q0 73 23.5 127.5t60.5 87.5t97.5 56t118 34t138.5 19q171 18 227 43.5t56 101.5v17q0 107 -64 162t-186 55q-269 0 -293 -236h-125q15 157 121.5 247.5t296.5 90.5q177 0 274 -82t97 -251v-596q0 -60 11 -98t26 -48v-6h-129
q-26 34 -29 141v15h-4q-21 -28 -42 -50.5t-54 -48t-69.5 -42.5t-88 -28.5t-109.5 -11.5zM420 78q84 0 152.5 27t110.5 71.5t64.5 97.5t22.5 109v184q-82 -42 -276 -65q-65 -7 -104.5 -14t-84 -22.5t-69 -38.5t-40.5 -61.5t-16 -91.5q0 -101 68.5 -148.5t171.5 -47.5z
M514 1219q-104 0 -173 62t-75 159h105q9 -52 45.5 -82.5t97.5 -30.5t98.5 31t46.5 82h105q-6 -95 -75 -158t-175 -63z" />
    <glyph glyph-name="aring.alt" horiz-adv-x="993" 
d="M514 1235q43 0 70.5 30t27.5 74q0 45 -27 75t-71 30t-71 -30t-27 -75q0 -44 27.5 -74t70.5 -30zM514 1165q-74 0 -126 51t-52 123t52 123t126 51t126 -51t52 -123t-52 -123t-126 -51zM401 -25q-155 0 -254.5 78.5t-99.5 222.5q0 73 23.5 127.5t60.5 87.5t97.5 56t118 34
t138.5 19q171 18 227 43.5t56 101.5v17q0 107 -64 162t-186 55q-269 0 -293 -236h-125q15 157 121.5 247.5t296.5 90.5q177 0 274 -82t97 -251v-596q0 -60 11 -98t26 -48v-6h-129q-26 34 -29 141v15h-4q-21 -28 -42 -50.5t-54 -48t-69.5 -42.5t-88 -28.5t-109.5 -11.5z
M420 78q84 0 152.5 27t110.5 71.5t64.5 97.5t22.5 109v184q-82 -42 -276 -65q-65 -7 -104.5 -14t-84 -22.5t-69 -38.5t-40.5 -61.5t-16 -91.5q0 -101 68.5 -148.5t171.5 -47.5z" />
    <glyph glyph-name="aogonek.alt" horiz-adv-x="993" 
d="M823 -356q-90 0 -138 41t-48 110q0 61 44 115.5t116 95.5q-26 37 -29 135v15h-4q-21 -28 -42 -50.5t-54 -48t-69.5 -42.5t-88 -28.5t-109.5 -11.5q-155 0 -254.5 78.5t-99.5 222.5q0 73 23.5 127.5t60.5 87.5t97.5 56t118 34t138.5 19q171 18 227 43.5t56 101.5v17
q0 107 -64 162t-186 55q-269 0 -293 -236h-125q15 157 121.5 247.5t296.5 90.5q177 0 274 -82t97 -251v-596q0 -102 31 -146v-6q-70 -42 -115 -92t-45 -98q0 -72 84 -72q44 0 92 20h6v-90q-54 -24 -119 -24zM420 78q84 0 152.5 27t110.5 71.5t64.5 97.5t22.5 109v184
q-82 -42 -276 -65q-65 -7 -104.5 -14t-84 -22.5t-69 -38.5t-40.5 -61.5t-16 -91.5q0 -101 68.5 -148.5t171.5 -47.5z" />
    <glyph glyph-name="Ccedilla.alt" horiz-adv-x="1386" 
d="M733 -27q-201 0 -351 96t-229 267t-79 395q0 221 79 393.5t231 271.5t355 99q229 0 378 -119t186 -325h-136q-30 147 -142.5 236t-287.5 89q-126 0 -226 -50t-163.5 -138t-97 -204.5t-33.5 -252.5q0 -185 58.5 -327.5t177 -226t282.5 -83.5q103 0 187 34t140.5 94.5
t89.5 139t42 170.5h133q-6 -108 -45.5 -209.5t-105.5 -172.5q-157 -177 -443 -177zM649 -344v61q35 5 54 24t20 62h-70v138h144v-119q0 -160 -148 -166z" />
    <glyph glyph-name="Scedilla.alt" horiz-adv-x="1226" 
d="M639 -27q-141 0 -252 38t-183 106.5t-111.5 158.5t-45.5 199h137q10 -185 130.5 -286t326.5 -101q166 0 270.5 81t104.5 226q0 44 -9 79.5t-25 63.5t-45.5 50.5t-62 39.5t-83.5 32.5t-102 27.5t-124 27q-88 17 -152.5 36.5t-125.5 50.5t-99 71t-61 99t-23 134
q0 174 135 280.5t355 106.5q236 0 365.5 -115t150.5 -313h-133q-18 152 -119.5 232.5t-261.5 80.5q-166 0 -262 -73t-96 -195q0 -52 17 -91t46.5 -67t81.5 -50t109.5 -37t142.5 -31q69 -13 119 -25t108 -31t98 -41t79.5 -54t63 -71.5t38 -93t14.5 -117.5q0 -194 -142.5 -311
t-373.5 -117zM526 -344v61q35 5 54 24t20 62h-70v138h144v-119q0 -160 -148 -166z" />
    <glyph glyph-name="ccedilla.alt" horiz-adv-x="1005" 
d="M532 -27q-225 0 -353 155.5t-128 399.5q0 159 56 283.5t167 198t261 73.5q175 0 287.5 -90.5t138.5 -253.5h-127q-47 238 -299 238q-118 0 -199 -62t-117.5 -161t-36.5 -226t36.5 -225.5t117 -159.5t196.5 -61q133 0 216 76.5t98 206.5h121q-19 -182 -133.5 -287
t-301.5 -105zM440 -344v61q35 5 53.5 24t18.5 62h-70v138h146v-119q0 -160 -148 -166z" />
    <glyph glyph-name="scedilla.alt" horiz-adv-x="923" 
d="M477 -29q-204 0 -316.5 99t-121.5 260h129q13 -128 95 -189t216 -61q129 0 199 55.5t70 149.5q0 86 -58 126t-225 78q-63 14 -104.5 25.5t-90.5 29.5t-80 39.5t-58.5 51.5t-40.5 70t-13 90q0 131 102 208.5t266 77.5q181 0 277.5 -83t116.5 -230h-127q-10 102 -79 155.5
t-188 53.5q-118 0 -179.5 -49t-61.5 -127q0 -36 13.5 -63t33.5 -45t63 -34.5t82.5 -27t110.5 -27.5q60 -13 101.5 -24.5t87 -29t75 -40t54.5 -53.5t36.5 -73.5t11.5 -96.5q0 -142 -107 -229t-290 -87zM389 -344v61q35 5 54 24t20 62h-70v138h144v-119q0 -160 -148 -166z" />
    <glyph glyph-name="hyphen.cap" horiz-adv-x="700" 
d="M72 608v125h557v-125h-557z" />
    <glyph glyph-name="endash.cap" 
d="M0 616v109h1024v-109h-1024z" />
    <glyph glyph-name="emdash.cap" horiz-adv-x="2048" 
d="M205 616v109h1638v-109h-1638z" />
    <glyph glyph-name="questiondown.cap" horiz-adv-x="1017" 
d="M498 -27q-189 0 -301.5 106.5t-112.5 268.5q0 42 7.5 80.5t16 66t29 59t32.5 48.5t42 45t41 38t45 38q81 68 118 113t55 108t19 166h123q-1 -170 -46 -262.5t-165 -192.5q-41 -35 -56 -48t-46 -47t-44 -59t-24.5 -65.5t-11.5 -85.5q0 -118 77.5 -190t207.5 -72
q154 0 239.5 95t90.5 249h129q-2 -92 -29.5 -172.5t-82 -145.5t-145.5 -103t-208 -38zM473 1286v178h156v-178h-156z" />
    <glyph glyph-name="exclamdown.cap" horiz-adv-x="434" 
d="M147 0v469l31 641h80l29 -641v-469h-140zM139 1286v178h156v-178h-156z" />
    <glyph glyph-name="parenleft.cap" horiz-adv-x="581" 
d="M430 -180q-133 205 -206.5 431t-73.5 497q0 460 280 858h111q-246 -404 -246 -858q0 -265 61.5 -491t184.5 -437h-111z" />
    <glyph glyph-name="parenright.cap" horiz-adv-x="581" 
d="M41 -180q246 417 246 887q0 493 -246 899h111q282 -416 282 -899q0 -477 -282 -887h-111z" />
    <glyph glyph-name="bracketleft.cap" horiz-adv-x="589" 
d="M164 -180v1786h358v-109h-227v-1565h227v-112h-358z" />
    <glyph glyph-name="bracketright.cap" horiz-adv-x="589" 
d="M68 -180v112h227v1565h-227v109h358v-1786h-358z" />
    <glyph glyph-name="braceleft.cap" horiz-adv-x="589" 
d="M467 -180q-137 0 -207 68t-70 216v418q0 72 -31 106.5t-110 37.5v110q77 1 109 35.5t32 106.5v405q0 149 69.5 216t207.5 67h37v-109h-33q-81 0 -115 -39t-34 -137v-412q0 -80 -27.5 -124.5t-87.5 -61.5v-4q60 -19 87.5 -63.5t27.5 -123.5v-426q0 -98 34 -136t115 -38h33
v-112h-37z" />
    <glyph glyph-name="braceright.cap" horiz-adv-x="589" 
d="M86 -180v112h33q80 0 114.5 37.5t34.5 134.5v426q0 78 27.5 123t87.5 62v6q-60 17 -87.5 61.5t-27.5 122.5v414q0 98 -35 138t-114 40h-33v109h37q137 0 206.5 -68t69.5 -217v-406q0 -72 31 -106t111 -35v-112q-79 -1 -110.5 -35.5t-31.5 -106.5v-418q0 -149 -69 -215.5
t-207 -66.5h-37z" />
    <glyph glyph-name="guillemotleft.cap" horiz-adv-x="841" 
d="M379 340l-264 231v154l264 231v-141l-191 -166v-4l191 -164v-141zM727 340l-264 231v154l264 231v-141l-190 -166v-4l190 -164v-141z" />
    <glyph glyph-name="guillemotright.cap" horiz-adv-x="841" 
d="M115 340v141l190 166v4l-190 164v141l264 -231v-154zM463 340v141l190 166v4l-190 164v141l264 -231v-154z" />
    <glyph glyph-name="guilsinglleft.cap" horiz-adv-x="514" 
d="M399 340l-284 231v154l284 231v-141l-213 -166v-4l213 -164v-141z" />
    <glyph glyph-name="guilsinglright.cap" horiz-adv-x="514" 
d="M115 340v141l211 166v4l-211 164v141l284 -231v-154z" />
    <glyph glyph-name="registered.alt" horiz-adv-x="1662" 
d="M530 301v856h385q118 0 188.5 -64.5t70.5 -170.5q0 -161 -154 -207v-4q65 -20 93 -66t36 -139q7 -106 14 -149t23 -50v-6h-117q-14 7 -21 50.5t-12 142.5q-4 93 -45.5 132.5t-130.5 39.5h-213v-365h-117zM647 760h238q83 0 126.5 39t43.5 108q0 150 -162 150h-246v-297z
M831 37q187 0 338 89t236.5 247t85.5 354t-85.5 354.5t-236.5 248t-338 89.5q-140 0 -262.5 -52.5t-209.5 -144t-137 -220t-50 -275.5t50 -275t137 -219t209.5 -143.5t262.5 -52.5zM831 -35q-155 0 -293.5 58t-238 158.5t-157.5 242.5t-58 303t58 303.5t157.5 243t238 159
t293.5 58.5q208 0 379 -99t270 -274.5t99 -390.5t-99 -390t-270 -273.5t-379 -98.5z" />
    <glyph glyph-name="dollar.cap" horiz-adv-x="1150" 
d="M532 -162v180q-231 17 -355 146t-134 323h131q9 -157 101.5 -251t256.5 -109v590q-85 18 -146 37t-118.5 48.5t-92 68t-55 94t-20.5 127.5q0 163 119.5 265.5t312.5 110.5v117h97v-119q186 -15 293 -116.5t125 -266.5h-127q-12 120 -89.5 191.5t-201.5 83.5v-537
q72 -14 124 -28t108 -35.5t93.5 -50t69 -67.5t46.5 -92.5t15 -119.5q0 -177 -127.5 -290.5t-328.5 -121.5v-178h-97zM532 840v520q-141 -7 -223 -78t-82 -184q0 -110 70 -166.5t235 -91.5zM629 125q141 8 233 87.5t92 207.5q0 122 -72 179t-253 97v-571z" />
    <glyph glyph-name="Euro.cap" horiz-adv-x="1288" 
d="M729 -29q-213 0 -358 155t-183 423h-143v98h135q-4 27 -4 84q0 55 4 82h-135v98h143q39 268 183 426t362 158q190 0 313 -114t154 -316h-133q-55 311 -334 311q-173 0 -274.5 -123t-130.5 -342h450v-98h-459q-2 -27 -2 -82q0 -57 2 -84h459v-98h-448
q28 -214 131.5 -335.5t273.5 -121.5q162 0 251.5 113.5t109.5 308.5h131q-15 -245 -148 -394t-350 -149z" />
    <glyph glyph-name="sterling.cap" horiz-adv-x="1138" 
d="M788 -23q-65 0 -123.5 16.5t-95 37t-89.5 37t-109 16.5q-93 0 -224 -92l-77 110q107 80 163 169t56 214q0 78 -35 174h-176v109h139q-24 61 -37 100t-25 98t-12 113q0 85 30 160t86.5 132.5t145 90.5t197.5 33q197 0 325.5 -122.5t131.5 -344.5h-133q-3 179 -95.5 265.5
t-234.5 86.5q-148 0 -231.5 -83t-83.5 -220q0 -25 4 -52.5t8 -48t14 -53.5t15.5 -49t19 -54.5t18.5 -51.5h338v-109h-305q21 -86 21 -151q0 -221 -158 -354l4 -4q46 21 78 29.5t78 8.5q66 0 132.5 -23t128.5 -46t118 -23q105 0 221 105l78 -97q-74 -64 -143.5 -95.5
t-162.5 -31.5z" />
    <glyph glyph-name="yen.cap" horiz-adv-x="1126" 
d="M496 0v346h-381v96h381v158h-381v96h354l-438 768h153l381 -686h4l379 686h148l-439 -768h357v-96h-383v-158h383v-96h-383v-346h-135z" />
    <glyph glyph-name="zero.cap" horiz-adv-x="1255" 
d="M631 94q199 0 302 163t103 476q0 307 -105 474t-300 167q-200 0 -306 -164t-106 -477q0 -307 106.5 -473t305.5 -166zM629 -29q-261 0 -406 204t-145 558t149.5 558t403.5 204q252 0 399.5 -202.5t147.5 -559.5q0 -354 -144 -558t-405 -204z" />
    <glyph glyph-name="one.cap" horiz-adv-x="694" 
d="M375 0v1104h-309v90q89 4 145.5 17t100.5 44t66.5 83.5t31.5 134.5h102v-1473h-137z" />
    <glyph glyph-name="two.cap" horiz-adv-x="1099" 
d="M61 0q2 131 39.5 233t122 183.5t140.5 121.5t176 111q11 7 16 10q150 91 195 127q105 84 130 191q9 41 9 90q0 147 -84.5 229t-229.5 82q-149 0 -237 -88q-96 -89 -102 -295h-140q3 245 144 377q132 123 344 123q203 0 323.5 -119.5t120.5 -306.5q0 -50 -7.5 -94t-24 -81
t-34.5 -68t-47.5 -60.5t-54.5 -52t-64.5 -48.5t-67.5 -43.5t-73 -43.5q-33 -19 -49 -29q-49 -29 -74 -44.5t-70 -46t-70.5 -52.5t-59.5 -56t-54 -66t-36.5 -72.5t-22.5 -84.5h791v-127h-949z" />
    <glyph glyph-name="three.cap" horiz-adv-x="1126" 
d="M571 -29q-147 0 -264 57t-186 168t-70 259h137q6 -174 109 -268.5t272 -94.5q166 0 257.5 84t91.5 236q0 149 -94.5 229t-266.5 80h-100v113h98q150 0 231.5 72t81.5 200q0 132 -84 204t-219 72q-155 0 -243.5 -96.5t-90.5 -253.5h-133q2 207 127.5 335t345.5 128
q188 0 311.5 -105t123.5 -284q0 -121 -59 -200.5t-163 -119.5v-6q275 -87 275 -379q0 -197 -134.5 -313.5t-353.5 -116.5z" />
    <glyph glyph-name="four.cap" horiz-adv-x="1146" 
d="M733 0v377h-684v127l705 975h114v-990h230v-112h-230v-377h-135zM184 489h549v760h-4l-545 -753v-7z" />
    <glyph glyph-name="five.cap" horiz-adv-x="1091" 
d="M537 -29q-210 0 -343 118t-141 306h137q18 -143 105 -222t240 -79q162 0 255 104.5t93 274.5q0 166 -94 264.5t-244 98.5q-223 0 -324 -152h-129l127 780h731v-121h-631l-81 -503h4q129 116 323 116q91 0 173 -32t146 -91.5t102 -153.5t38 -210q0 -222 -134.5 -360
t-352.5 -138z" />
    <glyph glyph-name="six.cap" horiz-adv-x="1153" 
d="M612 -29q-202 0 -340 125q-104 94 -149 251.5t-45 393.5q0 221 60.5 389t184.5 266.5t298 98.5q186 0 294.5 -105.5t126.5 -273.5h-135q-11 119 -85 189.5t-197 70.5q-142 0 -235 -82.5t-134.5 -230t-40.5 -358.5h4q137 239 397 239q204 0 333.5 -135.5t129.5 -341.5
q2 -212 -128.5 -354t-338.5 -142zM608 86q150 0 243 106t93 271q0 163 -92.5 263.5t-243.5 100.5q-156 0 -258 -103.5t-102 -266.5q0 -165 100.5 -268t259.5 -103z" />
    <glyph glyph-name="seven.cap" horiz-adv-x="1040" 
d="M274 0q29 379 192 746t396 593v4h-815v121h957v-116q-231 -226 -391 -580.5t-191 -767.5h-148z" />
    <glyph glyph-name="eight.cap" horiz-adv-x="1167" 
d="M586 -29q-82 0 -157.5 17.5t-141.5 53.5t-114.5 87.5t-76.5 124t-28 158.5q0 145 78.5 241t211.5 142v6q-103 40 -162 123.5t-59 195.5q0 165 126.5 270t318.5 105q198 0 322 -106t124 -269q0 -111 -60 -193t-165 -124v-6q129 -38 213 -142.5t84 -242.5
q0 -108 -42.5 -194t-114.5 -139t-163 -80.5t-194 -27.5zM586 88q172 0 272 90t100 234q0 147 -100.5 237t-277.5 90q-174 0 -273.5 -90t-99.5 -237q0 -145 101 -234.5t278 -89.5zM580 850q143 0 228 75.5t85 188.5q0 117 -82.5 191.5t-228.5 74.5q-144 0 -227 -74.5
t-83 -191.5q0 -115 82 -189.5t226 -74.5z" />
    <glyph glyph-name="nine.cap" horiz-adv-x="1155" 
d="M545 -29q-191 0 -314 106t-133 281h142q11 -123 91.5 -195.5t211.5 -72.5q159 0 252 96q148 155 151 568h-4q-64 -110 -167 -170t-232 -60q-204 0 -335.5 135t-131.5 342q-1 137 59 250t170 178.5t248 65.5q195 0 326 -115q111 -88 156.5 -247.5t45.5 -407.5
q0 -437 -196 -625q-129 -129 -340 -129zM553 639q158 0 259 103t101 266q0 167 -100 268.5t-256 101.5q-155 0 -250.5 -103.5t-95.5 -268.5q0 -166 94 -266.5t248 -100.5z" />
    <glyph glyph-name="percent.cap" horiz-adv-x="1636" 
d="M377 793q87 0 140.5 79t53.5 224q0 142 -54.5 221.5t-139.5 79.5q-88 0 -141.5 -78t-53.5 -223q0 -143 54 -223t141 -80zM377 696q-140 0 -228 107.5t-88 292.5t90.5 292t225.5 107q134 0 222.5 -106t88.5 -293q0 -185 -86.5 -292.5t-224.5 -107.5zM342 0l842 1464h110
l-839 -1464h-113zM1262 70q89 0 141.5 77.5t52.5 223.5q0 142 -54 222.5t-140 80.5t-140.5 -79t-54.5 -224q0 -142 54.5 -221.5t140.5 -79.5zM1262 -29q-138 0 -226 108t-88 292q0 186 90 292.5t224 106.5q136 0 224.5 -105.5t88.5 -293.5q0 -184 -87 -292t-226 -108z" />
    <glyph glyph-name="perthousand.cap" horiz-adv-x="2326" 
d="M377 793q87 0 140.5 79t53.5 224q0 142 -54.5 221.5t-139.5 79.5q-88 0 -141.5 -78t-53.5 -223q0 -143 54 -223t141 -80zM377 696q-140 0 -228 107.5t-88 292.5t90.5 292t225.5 107q134 0 222.5 -106t88.5 -293q0 -185 -86.5 -292.5t-224.5 -107.5zM322 0l841 1464h111
l-840 -1464h-112zM1221 70q89 0 141.5 77.5t52.5 223.5q0 142 -54 222.5t-140 80.5t-140.5 -79t-54.5 -224q0 -142 54.5 -221.5t140.5 -79.5zM1221 -29q-138 0 -226 108t-88 292q0 186 90 292.5t224 106.5q136 0 224.5 -105.5t88.5 -293.5q0 -184 -87 -292t-226 -108z
M1952 70q89 0 141.5 77.5t52.5 223.5q0 142 -54 222.5t-140 80.5q-88 0 -141.5 -79t-53.5 -224q0 -143 54 -222t141 -79zM1952 -29q-138 0 -227 108t-89 292q0 186 90 292.5t226 106.5t224.5 -105.5t88.5 -293.5q0 -184 -87.5 -292t-225.5 -108z" />
    <glyph glyph-name="zero.numerator" horiz-adv-x="786" 
d="M395 719q102 0 153.5 86t51.5 246q0 158 -52.5 246.5t-152.5 88.5q-103 0 -156 -87.5t-53 -247.5q0 -157 53.5 -244.5t155.5 -87.5zM393 621q-154 0 -240.5 116t-86.5 314q0 200 89 315t240 115q150 0 238 -115t88 -315q0 -198 -87 -314t-241 -116z" />
    <glyph glyph-name="one.numerator" horiz-adv-x="524" 
d="M248 639v598h-189v80q94 2 145.5 37t63.5 116h97v-831h-117z" />
    <glyph glyph-name="two.numerator" horiz-adv-x="694" 
d="M57 639q2 56 18.5 104.5t37.5 81.5t60 68.5t65 54t73 49.5q12 8 40 25.5t39.5 25t33 23.5t31 25.5t24 26t20 31.5t10.5 34t5 41q0 73 -42 114t-112 41q-79 0 -125 -50.5t-47 -145.5h-110q0 141 78 217t209 76q119 0 193.5 -72t74.5 -178q0 -31 -7 -59.5t-15.5 -49
t-28.5 -44t-32 -36t-41 -33.5t-41.5 -29t-46.5 -29q-5 -3 -8 -5l-7.5 -5t-8.5 -5q-40 -24 -65 -40.5t-57.5 -43t-52.5 -56t-27 -61.5h434v-96h-572z" />
    <glyph glyph-name="three.numerator" horiz-adv-x="718" 
d="M362 621q-140 0 -225 76.5t-84 205.5h111q5 -90 54.5 -138t139.5 -48q85 0 133 42t48 118q0 73 -48.5 113t-136.5 40h-55v90h53q75 0 117.5 36t42.5 99t-42.5 100.5t-109.5 37.5q-81 0 -125 -49t-47 -130h-108q2 120 77 193.5t205 73.5q116 0 189.5 -60t73.5 -161
q0 -131 -129 -177v-4q161 -44 161 -211q0 -116 -83 -181.5t-212 -65.5z" />
    <glyph glyph-name="four.numerator" horiz-adv-x="733" 
d="M444 639v199h-395v112l397 523h109v-545h127v-90h-127v-199h-111zM147 928h297v387h-4l-293 -383v-4z" />
    <glyph glyph-name="five.numerator" horiz-adv-x="706" 
d="M352 621q-127 0 -209.5 67.5t-89.5 179.5h115q9 -72 56 -110.5t126 -38.5q81 0 128.5 51.5t47.5 138.5q0 85 -48.5 134t-125.5 49q-115 0 -166 -72h-106l76 444h446v-98h-366l-41 -240h2q72 62 180 62q111 0 189.5 -76.5t78.5 -204.5q0 -127 -82.5 -206.5t-210.5 -79.5z
" />
    <glyph glyph-name="six.numerator" horiz-adv-x="741" 
d="M393 621q-133 0 -213 77q-61 58 -87.5 144t-26.5 209q0 127 34 222t108 151.5t181 56.5q118 0 187.5 -64.5t80.5 -161.5h-114q-6 56 -46 93.5t-102 37.5q-212 0 -215 -307h6q76 107 217 107q117 0 197 -81.5t80 -201.5q0 -119 -83 -200.5t-204 -81.5zM391 715
q77 0 127.5 52t50.5 134q0 81 -51.5 135t-128.5 54q-86 0 -139 -52.5t-53 -134.5q0 -83 55 -135.5t139 -52.5z" />
    <glyph glyph-name="seven.numerator" horiz-adv-x="671" 
d="M303 639h-121q10 208 101.5 404t216.5 319v2h-451v100h572v-96q-129 -125 -216.5 -315t-101.5 -414z" />
    <glyph glyph-name="eight.numerator" horiz-adv-x="751" 
d="M377 625q-132 0 -224 65.5t-92 183.5q0 80 43.5 135t116.5 83v4q-119 52 -119 172q0 98 77.5 157.5t195.5 59.5q120 0 196 -59t76 -154q0 -122 -119 -174v-4q72 -24 116 -80.5t44 -134.5q0 -122 -89.5 -188t-221.5 -66zM377 715q89 0 141.5 45t52.5 117q0 76 -52 121.5
t-144 45.5q-91 0 -143 -45.5t-52 -121.5q0 -73 52.5 -117.5t144.5 -44.5zM375 1128q75 0 117.5 37.5t42.5 96.5q0 60 -42 96.5t-118 36.5q-75 0 -116.5 -36.5t-41.5 -96.5q0 -59 41.5 -96.5t116.5 -37.5z" />
    <glyph glyph-name="nine.numerator" horiz-adv-x="745" 
d="M365 621q-123 0 -199.5 63.5t-87.5 169.5h115q8 -60 51.5 -99.5t115.5 -39.5q90 0 136 55q63 68 69 248h-4q-78 -100 -211 -100q-125 0 -206 80t-83 200q0 120 83.5 201.5t211.5 81.5q116 0 191 -56q72 -53 102.5 -141.5t30.5 -224.5q0 -275 -121 -373q-74 -65 -194 -65z
M360 1014q85 0 138.5 51.5t54.5 134.5q0 82 -56.5 135.5t-136.5 53.5q-82 0 -134 -52.5t-52 -134.5q0 -83 51.5 -135.5t134.5 -52.5z" />
    <glyph glyph-name="zero.denominator" horiz-adv-x="786" 
d="M395 80q102 0 153.5 86t51.5 246q0 158 -52.5 247t-152.5 89q-103 0 -156 -87.5t-53 -248.5q0 -157 53.5 -244.5t155.5 -87.5zM393 -18q-154 0 -240.5 116t-86.5 314q0 200 89 316t240 116q150 0 238 -115.5t88 -316.5q0 -198 -87 -314t-241 -116z" />
    <glyph glyph-name="one.denominator" horiz-adv-x="524" 
d="M248 0v600h-189v78q94 2 145.5 37t63.5 116h97v-831h-117z" />
    <glyph glyph-name="two.denominator" horiz-adv-x="694" 
d="M57 0q2 56 18.5 105t38 82t59.5 68.5t65 55t73 49.5q7 4 39.5 24.5t40 25.5t32.5 22.5t32 26t23 26t21 31.5t10 33.5t5 40.5q0 74 -42 114.5t-112 40.5q-80 0 -125.5 -49.5t-46.5 -144.5h-110q0 139 78 215t209 76q119 0 193.5 -72t74.5 -178q0 -31 -7 -59.5t-15.5 -49
t-28.5 -44t-32 -36t-41 -33.5t-41.5 -29t-46.5 -29l-24 -15q-42 -25 -65.5 -40.5t-57 -42.5t-53 -56t-26.5 -62h434v-96h-572z" />
    <glyph glyph-name="three.denominator" horiz-adv-x="718" 
d="M362 -16q-140 0 -225 76.5t-84 205.5h111q5 -91 54.5 -139.5t139.5 -48.5q85 0 133 42.5t48 119.5q0 72 -48.5 111.5t-136.5 39.5h-55v90h53q75 0 117.5 36t42.5 99q0 65 -42 101.5t-110 36.5q-81 0 -125 -48t-47 -128h-108q2 119 77 192.5t205 73.5q116 0 189.5 -61
t73.5 -162q0 -131 -129 -177v-4q161 -44 161 -211q0 -115 -83 -180t-212 -65z" />
    <glyph glyph-name="four.denominator" horiz-adv-x="733" 
d="M444 0v199h-395v112l397 525h109v-547h127v-90h-127v-199h-111zM147 289h297v387h-4l-293 -383v-4z" />
    <glyph glyph-name="five.denominator" horiz-adv-x="706" 
d="M352 -16q-127 0 -209.5 66.5t-89.5 178.5h115q9 -71 56 -110t126 -39q81 0 128.5 52t47.5 138q0 85 -49 135t-125 50q-114 0 -166 -74h-106l76 444h446v-98h-366l-41 -240h2q72 62 180 62q111 0 189.5 -76.5t78.5 -204.5q0 -127 -82.5 -205.5t-210.5 -78.5z" />
    <glyph glyph-name="six.denominator" horiz-adv-x="741" 
d="M393 -18q-133 0 -213 77q-61 58 -87.5 144t-26.5 209q0 127 34 222t108 151.5t181 56.5q118 0 187.5 -64t80.5 -160h-114q-6 55 -46 93.5t-102 38.5q-109 0 -161 -82t-54 -228h6q76 107 217 107q117 0 197 -81.5t80 -201.5q0 -119 -83 -200.5t-204 -81.5zM391 76
q77 0 127.5 52t50.5 134q0 81 -51.5 135t-128.5 54q-86 0 -139 -52.5t-53 -134.5q0 -83 55 -135.5t139 -52.5z" />
    <glyph glyph-name="seven.denominator" horiz-adv-x="671" 
d="M303 0h-121q10 208 101.5 404t216.5 319v2h-451v100h572v-96q-129 -125 -216.5 -315t-101.5 -414z" />
    <glyph glyph-name="eight.denominator" horiz-adv-x="751" 
d="M377 -14q-85 0 -155 27t-115.5 85.5t-45.5 139.5q0 78 43.5 132.5t116.5 82.5v4q-119 52 -119 172q0 98 77.5 157.5t195.5 59.5q120 0 196 -59t76 -154q0 -122 -119 -174v-4q72 -24 116 -80.5t44 -134.5q0 -122 -89.5 -188t-221.5 -66zM377 76q89 0 141.5 45.5
t52.5 116.5q0 76 -52 122t-144 46q-91 0 -143 -46t-52 -122q0 -73 52.5 -117.5t144.5 -44.5zM375 489q75 0 117.5 38t42.5 98q0 59 -42 96t-118 37q-74 0 -116 -37t-42 -96q0 -61 41 -98.5t117 -37.5z" />
    <glyph glyph-name="nine.denominator" horiz-adv-x="745" 
d="M365 -16q-123 0 -199.5 63t-87.5 170h115q8 -62 51.5 -101.5t115.5 -39.5q90 0 136 55q63 68 69 250h-4q-79 -102 -211 -102q-125 0 -206 80t-83 200q0 121 83.5 203t211.5 82q113 0 191 -58q72 -53 102.5 -141.5t30.5 -224.5q0 -272 -121 -373q-72 -63 -194 -63z
M360 375q85 0 138.5 51.5t54.5 134.5q0 82 -57 136.5t-136 54.5q-81 0 -133.5 -53.5t-52.5 -135.5q0 -83 51.5 -135.5t134.5 -52.5z" />
    <glyph glyph-name="dotlessj" horiz-adv-x="346" 
d="M-41 -322v107h2q8 -2 35 -2q59 0 87 28.5t28 92.5v1155h127v-1161q0 -122 -57.5 -172t-168.5 -50q-43 0 -53 2z" />
    <glyph glyph-name="commaaccent" 
d="M438 -438v67q35 13 51.5 37t16.5 76v2h-64v162h142v-160q0 -161 -146 -184z" />
    <glyph glyph-name="commaaccent.alt" 
d="M438 -438v67q35 13 51.5 37t16.5 76v2h-64v162h142v-160q0 -161 -146 -184z" />
    </font>
</defs>
</svg>
